{"glyphs":{"0":{"ha":800,"x_min":107,"x_max":865,"o":"m 834 485 q 745 241 798 338 q 630 87 692 144 q 499 6 568 30 q 361 -17 431 -17 q 259 0 305 -17 q 178 50 212 16 q 126 136 144 84 q 107 258 107 188 q 115 362 107 306 q 140 486 123 418 q 225 722 175 626 q 337 876 276 817 q 469 961 399 935 q 612 987 538 987 q 715 971 668 987 q 795 921 762 955 q 847 834 829 887 q 865 705 865 781 q 858 604 865 659 q 834 485 850 549 m 694 482 q 722 612 713 555 q 730 713 730 669 q 695 837 730 800 q 591 874 659 874 q 496 852 542 874 q 411 783 451 830 q 338 663 372 736 q 279 488 304 590 q 244 260 244 347 q 280 136 244 175 q 383 96 315 96 q 474 119 429 96 q 560 188 519 141 q 635 308 600 235 q 694 482 669 380 z "},"1":{"ha":800,"x_min":109,"x_max":696,"o":"m 665 0 l 109 0 l 136 113 l 350 113 l 530 838 l 298 723 l 311 843 l 581 983 l 696 983 l 479 113 l 692 113 l 665 0 z "},"2":{"ha":800,"x_min":41,"x_max":821,"o":"m 692 0 l 41 0 l 68 113 q 209 200 137 151 q 349 304 281 249 q 477 418 417 359 q 583 532 538 477 q 654 635 628 587 q 680 721 680 684 q 669 783 680 755 q 639 829 659 810 q 592 858 620 848 q 531 867 564 867 q 465 858 500 867 q 395 833 430 849 q 326 794 360 817 q 263 745 292 771 l 258 857 q 321 909 285 885 q 399 950 357 932 q 484 977 440 967 q 571 987 528 987 q 676 968 630 987 q 755 916 723 949 q 804 839 787 883 q 821 745 821 795 q 798 645 821 699 q 735 534 775 591 q 641 418 695 477 q 523 303 587 359 q 390 199 460 248 q 251 110 321 149 l 424 110 q 602 111 525 110 q 721 119 678 113 l 692 0 z "},"3":{"ha":800,"x_min":71,"x_max":859,"o":"m 429 578 q 486 584 454 578 q 550 600 517 589 q 614 627 583 611 q 670 664 646 643 q 709 712 694 686 q 724 771 724 739 q 711 815 724 796 q 677 846 699 833 q 630 865 656 859 q 576 871 604 871 q 501 866 537 871 q 430 848 465 861 q 360 817 395 836 q 290 768 326 797 l 294 881 q 352 923 320 903 q 419 956 383 942 q 495 979 456 970 q 578 987 535 987 q 685 972 634 987 q 774 932 736 958 q 836 870 813 906 q 859 789 859 833 q 833 693 859 736 q 768 618 808 650 q 678 564 728 586 q 580 532 629 543 q 644 511 610 526 q 707 471 678 496 q 755 409 736 446 q 774 322 774 372 q 756 224 774 270 q 709 141 739 179 q 638 74 679 104 q 550 24 597 45 q 452 -6 503 4 q 351 -17 401 -17 q 264 -9 307 -17 q 186 14 222 -1 q 121 48 151 28 q 71 93 91 68 l 123 236 q 168 180 143 205 q 222 137 192 155 q 290 110 253 119 q 374 100 328 100 q 469 115 421 100 q 554 158 516 130 q 616 229 593 187 q 640 323 640 270 q 623 382 640 356 q 574 427 606 409 q 498 455 543 446 q 401 465 454 465 l 353 465 l 381 578 l 429 578 z "},"4":{"ha":800,"x_min":72,"x_max":838,"o":"m 229 366 l 555 366 l 668 817 l 229 366 m 659 262 l 593 0 l 465 0 l 530 262 l 72 262 l 98 366 l 696 983 l 838 983 l 684 366 l 813 366 l 787 262 l 659 262 z "},"5":{"ha":800,"x_min":60,"x_max":879,"o":"m 848 844 q 773 854 811 852 q 692 857 734 857 l 431 857 l 369 612 q 412 616 385 614 q 476 618 439 618 q 592 599 539 618 q 684 548 646 581 q 744 469 723 515 q 766 370 766 424 q 748 258 766 310 q 701 162 731 205 q 629 86 671 119 q 538 30 587 53 q 435 -5 490 7 q 326 -17 381 -17 q 181 -1 247 -17 q 60 53 115 14 l 115 193 q 163 153 139 170 q 214 125 187 136 q 271 109 241 114 q 337 103 301 103 q 444 118 391 103 q 539 164 497 134 q 607 240 581 195 q 633 345 633 285 q 615 412 633 383 q 570 460 598 441 q 507 489 543 479 q 436 498 472 498 q 382 496 409 498 q 328 489 356 494 q 270 475 300 484 q 205 455 239 467 l 333 970 l 879 970 l 848 844 z "},"6":{"ha":800,"x_min":141,"x_max":890,"o":"m 509 486 q 384 465 441 486 q 277 406 327 444 q 273 320 273 363 q 284 232 273 272 q 317 162 296 191 q 371 116 339 133 q 445 100 403 100 q 526 114 486 100 q 598 155 566 128 q 650 221 630 182 q 669 308 669 259 q 659 381 669 349 q 627 437 648 414 q 576 473 606 460 q 509 486 547 486 m 829 784 q 799 820 817 804 q 761 847 781 836 q 716 865 740 859 q 668 871 692 871 q 544 846 603 871 q 435 773 484 821 q 350 659 387 726 q 294 508 313 592 q 353 547 322 530 q 415 576 384 564 q 478 595 447 589 q 538 602 509 602 q 646 581 597 602 q 730 525 695 559 q 783 445 764 490 q 802 351 802 399 q 774 193 802 262 q 695 78 745 125 q 574 7 644 31 q 422 -17 505 -17 q 312 7 363 -17 q 223 74 261 31 q 163 181 185 118 q 141 322 141 243 q 156 475 141 397 q 202 627 172 553 q 279 766 233 701 q 386 880 325 831 q 523 958 447 929 q 690 987 599 987 q 804 968 750 987 q 890 913 857 950 l 829 784 z "},"7":{"ha":800,"x_min":146,"x_max":954,"o":"m 146 0 q 246 177 197 94 q 344 333 295 259 q 442 474 393 407 q 543 606 491 542 q 649 731 595 669 q 764 857 704 793 l 492 857 q 334 854 397 857 q 231 844 272 852 l 262 970 l 954 970 l 927 864 q 567 445 726 662 q 285 0 408 229 l 146 0 z "},"8":{"ha":800,"x_min":78,"x_max":861,"o":"m 382 96 q 479 112 431 96 q 565 156 527 127 q 628 227 604 185 q 652 323 652 269 q 640 382 652 355 q 606 430 628 410 q 553 461 584 450 q 483 472 522 472 q 387 455 434 472 q 302 407 339 438 q 241 333 264 376 q 218 237 218 290 q 230 179 218 205 q 262 135 241 153 q 314 106 283 117 q 382 96 344 96 m 509 575 q 588 588 549 575 q 659 626 627 602 q 710 686 690 650 q 730 765 730 721 q 719 814 730 792 q 689 850 708 836 q 643 873 669 865 q 585 881 616 881 q 506 869 545 881 q 436 834 467 857 q 386 777 405 811 q 367 698 367 743 q 377 647 367 669 q 407 608 388 624 q 451 584 425 592 q 509 575 477 575 m 368 -17 q 258 0 311 -17 q 165 47 205 16 q 102 122 125 78 q 78 220 78 166 q 99 326 78 277 q 156 413 121 374 q 235 481 191 452 q 328 528 280 510 q 297 551 313 537 q 268 586 281 566 q 245 632 254 606 q 236 690 236 658 q 268 815 236 760 q 352 908 300 870 q 472 966 404 946 q 611 987 540 987 q 708 972 662 987 q 787 932 753 958 q 841 867 821 905 q 861 781 861 829 q 847 697 861 734 q 808 629 833 660 q 748 573 783 598 q 670 528 713 549 q 711 497 690 517 q 749 452 732 478 q 776 393 766 426 q 787 322 787 361 q 770 225 787 271 q 723 142 753 180 q 653 75 693 104 q 566 25 612 45 q 469 -6 519 5 q 368 -17 418 -17 z "},"9":{"ha":800,"x_min":106,"x_max":859,"o":"m 486 505 q 615 528 553 505 q 726 592 676 550 q 728 648 728 619 q 718 730 728 690 q 687 801 708 770 q 634 851 667 832 q 557 871 602 871 q 470 854 510 871 q 400 808 430 838 q 354 738 371 779 q 338 648 338 696 q 348 591 338 617 q 378 545 359 564 q 425 516 397 526 q 486 505 452 505 m 169 193 q 201 157 181 174 q 243 127 220 140 q 290 107 266 115 q 336 100 315 100 q 450 126 392 100 q 559 202 508 153 q 650 325 610 252 q 711 489 690 397 q 585 416 652 442 q 448 389 518 389 q 342 411 388 389 q 267 467 297 433 q 221 545 236 502 q 205 632 205 589 q 221 738 205 689 q 264 825 237 786 q 328 895 291 865 q 407 945 364 925 q 496 976 450 966 q 587 987 542 987 q 705 962 654 987 q 790 894 755 937 q 842 792 824 850 q 859 666 859 734 q 844 506 859 587 q 799 350 829 425 q 724 207 769 274 q 619 91 679 140 q 484 12 559 41 q 321 -17 410 -17 q 258 -11 291 -17 q 196 7 226 -4 q 143 33 167 18 q 106 64 119 47 l 169 193 z "}," ":{"ha":359,"x_min":0,"x_max":0,"o":""},"!":{"ha":505,"x_min":127,"x_max":542,"o":"m 127 61 q 137 100 127 81 q 161 132 146 118 q 195 155 176 146 q 237 163 215 163 q 267 156 253 163 q 292 139 281 150 q 309 115 302 129 q 315 85 315 100 q 306 46 315 64 q 281 14 296 28 q 247 -9 267 -1 q 205 -17 227 -17 q 175 -11 189 -17 q 150 6 161 -5 q 134 31 140 17 q 127 61 127 45 m 218 292 q 254 444 235 364 q 292 612 273 524 q 332 798 312 700 q 369 1004 351 895 l 542 1004 q 475 798 505 895 q 422 612 446 700 q 377 444 397 524 q 337 292 357 364 l 218 292 z "},"\"":{"ha":682,"x_min":322,"x_max":754,"o":"m 553 694 q 568 767 560 730 q 584 848 576 804 q 600 942 592 891 q 615 1053 608 992 l 754 1053 q 714 942 732 992 q 683 848 696 891 q 659 767 669 804 q 637 694 648 730 l 553 694 m 322 694 q 338 767 330 730 q 354 848 346 804 q 369 942 361 891 q 385 1053 377 992 l 524 1053 q 484 942 501 992 q 452 848 466 891 q 428 767 439 804 q 407 694 417 730 l 322 694 z "},"#":{"ha":800,"x_min":54,"x_max":923,"o":"m 359 415 l 532 415 l 615 572 l 442 572 l 359 415 m 183 671 l 379 671 l 501 904 l 616 904 l 494 671 l 667 671 l 789 904 l 905 904 l 783 671 l 923 671 l 899 572 l 730 572 l 648 415 l 819 415 l 794 315 l 595 315 l 465 66 l 350 66 l 480 315 l 307 315 l 177 66 l 62 66 l 192 315 l 54 315 l 79 415 l 244 415 l 327 572 l 159 572 l 183 671 z "},"$":{"ha":800,"x_min":111,"x_max":831,"o":"m 363 694 q 369 664 363 678 q 388 634 375 649 q 422 604 401 620 q 472 568 443 587 l 533 814 q 464 800 495 811 q 410 772 432 789 q 375 736 387 756 q 363 694 363 715 m 623 242 q 600 306 623 273 q 521 381 576 339 l 452 108 q 527 121 495 110 q 581 150 559 132 q 613 191 602 168 q 623 242 623 215 m 690 1063 l 654 921 q 746 904 705 916 q 831 868 788 891 l 776 749 q 700 790 734 774 q 627 811 665 805 l 554 515 q 633 457 597 487 q 694 395 669 427 q 733 329 720 363 q 747 258 747 294 q 722 145 747 193 q 652 66 696 98 q 549 18 608 34 q 426 0 491 1 l 389 -146 l 294 -146 l 332 7 q 219 44 275 18 q 111 110 164 70 l 170 235 q 202 201 182 219 q 245 168 221 184 q 299 138 270 151 q 359 116 328 124 l 439 437 l 433 441 q 348 497 385 471 q 288 548 311 522 q 252 604 264 574 q 240 673 240 633 q 259 761 240 718 q 316 839 277 804 q 416 895 355 873 q 560 922 476 918 l 595 1063 l 690 1063 z "},"%":{"ha":1021,"x_min":149,"x_max":1048,"o":"m 601 717 q 555 593 583 644 q 495 512 528 543 q 421 468 461 481 q 337 455 382 455 q 225 493 267 455 q 184 614 184 532 q 199 723 184 663 q 243 843 216 793 q 303 924 269 892 q 377 969 337 955 q 461 983 417 983 q 573 943 531 983 q 615 821 615 903 q 601 717 615 774 m 486 708 q 501 808 501 768 q 484 871 501 852 q 435 890 467 890 q 395 883 412 890 q 363 857 378 876 q 336 808 349 839 q 313 732 324 778 q 298 631 298 671 q 315 568 298 587 q 363 549 332 549 q 402 556 385 549 q 435 583 420 564 q 462 631 450 601 q 486 708 475 662 m 1048 983 l 269 -17 l 149 -17 l 928 983 l 1048 983 m 996 245 q 950 121 977 172 q 890 40 924 71 q 816 -4 856 9 q 732 -17 777 -17 q 669 -7 697 -17 q 621 21 641 2 q 590 71 601 41 q 579 142 579 101 q 583 193 579 166 q 594 252 587 220 q 638 371 612 321 q 699 452 665 420 q 772 498 732 484 q 857 512 812 512 q 968 472 926 512 q 1010 349 1010 431 q 1006 300 1010 326 q 996 245 1003 275 m 882 237 q 897 336 897 296 q 879 399 897 380 q 829 418 862 418 q 790 411 807 418 q 758 385 772 404 q 731 336 743 367 q 707 260 719 306 q 692 159 692 199 q 709 96 692 115 q 758 77 726 77 q 798 84 780 77 q 830 111 816 92 q 858 160 845 129 q 882 237 870 191 z "},"&":{"ha":815,"x_min":50,"x_max":768,"o":"m 369 779 q 384 708 369 747 q 422 625 399 670 q 543 730 504 687 q 582 809 582 774 q 574 844 582 827 q 554 872 567 860 q 525 890 542 884 q 491 897 509 897 q 446 889 467 897 q 407 865 424 880 q 379 827 389 849 q 369 779 369 806 m 299 100 q 345 106 320 100 q 397 124 370 113 q 452 152 424 136 q 509 187 481 168 q 416 379 467 270 q 393 426 405 403 q 370 471 381 448 q 223 340 273 401 q 174 213 174 279 q 181 170 174 190 q 205 134 189 149 q 244 109 221 118 q 299 100 268 100 m 764 289 q 718 235 745 264 q 654 175 690 206 q 716 89 688 120 q 768 47 744 57 q 740 28 756 39 q 706 7 723 17 q 674 -10 689 -3 q 650 -17 659 -17 q 612 13 635 -17 q 557 100 589 43 q 484 54 522 75 q 408 17 446 33 q 333 -8 370 1 q 260 -17 295 -17 q 173 0 212 -17 q 107 45 134 16 q 64 112 79 73 q 50 195 50 151 q 64 273 50 233 q 111 357 78 313 q 196 450 143 401 q 324 553 248 498 q 276 659 296 608 q 256 755 256 709 q 272 853 256 810 q 321 926 288 896 q 402 971 353 956 q 517 987 451 987 q 582 976 550 987 q 638 944 614 964 q 678 894 663 923 q 693 829 693 865 q 676 760 693 795 q 630 688 660 724 q 559 614 600 651 q 469 541 518 577 q 491 497 480 519 q 513 452 502 475 q 561 348 538 395 q 606 260 584 300 q 669 321 641 291 q 715 379 697 352 l 764 289 z "},"'":{"ha":397,"x_min":295,"x_max":496,"o":"m 295 694 q 311 767 302 730 q 327 848 319 804 q 342 942 334 891 q 357 1053 350 992 l 496 1053 q 456 942 474 992 q 425 848 439 891 q 401 767 412 804 q 380 694 390 730 l 295 694 z "},"(":{"ha":526,"x_min":109,"x_max":632,"o":"m 632 987 q 502 876 559 936 q 400 746 445 815 q 324 597 356 676 q 269 429 292 518 q 244 303 253 364 q 236 183 236 242 q 262 -6 236 83 q 342 -176 288 -96 l 254 -273 q 145 -61 182 -175 q 109 183 109 54 q 117 304 109 243 q 140 429 125 366 q 214 636 168 538 q 321 820 260 735 q 455 972 382 904 q 607 1090 528 1041 l 632 987 z "},")":{"ha":526,"x_min":27,"x_max":555,"o":"m 393 1090 q 462 1009 432 1055 q 513 906 492 962 q 545 785 534 850 q 555 650 555 721 q 548 529 555 591 q 524 402 540 467 q 457 209 498 300 q 358 34 415 117 q 228 -125 300 -50 q 67 -273 155 -201 l 27 -176 q 159 -46 100 -113 q 262 90 217 20 q 340 238 308 161 q 395 402 373 315 q 418 524 410 464 q 426 642 426 583 q 400 832 426 744 q 317 987 374 921 l 393 1090 z "},"*":{"ha":684,"x_min":231,"x_max":764,"o":"m 604 1063 q 583 1003 592 1030 q 566 952 574 976 q 552 907 559 928 q 541 864 546 886 q 584 888 562 876 q 628 915 605 901 q 678 946 652 929 q 736 983 705 962 l 764 901 q 701 874 729 886 q 648 852 673 863 q 602 831 624 842 q 558 811 580 821 q 593 791 575 801 q 631 773 610 782 q 675 753 651 764 q 728 731 699 743 l 656 648 q 614 683 633 667 q 578 711 595 699 q 546 735 562 724 q 514 758 530 746 q 506 714 510 736 q 498 669 502 693 q 491 618 494 646 q 485 558 488 591 l 390 558 q 410 619 401 591 q 427 670 419 646 q 441 715 435 694 q 453 758 447 736 q 410 733 431 746 q 365 707 389 721 q 315 675 342 692 q 257 638 289 659 l 231 721 q 293 746 264 734 q 345 769 321 758 q 392 790 370 779 q 436 811 414 800 q 400 830 418 821 q 362 849 382 840 q 318 868 342 858 l 266 890 l 338 974 q 379 939 360 954 q 415 910 398 923 q 448 886 432 897 q 479 864 463 875 q 488 907 484 886 q 494 952 491 928 q 499 1003 497 976 q 505 1063 502 1030 l 604 1063 z "},"+":{"ha":800,"x_min":174,"x_max":802,"o":"m 198 538 l 446 538 l 507 784 l 612 784 l 551 538 l 802 538 l 777 439 l 526 439 l 464 189 l 359 189 l 421 439 l 174 439 l 198 538 z "},",":{"ha":427,"x_min":50,"x_max":292,"o":"m 109 100 q 153 149 124 132 q 211 166 182 166 q 243 160 228 166 q 269 142 258 153 q 286 115 279 131 q 292 80 292 99 q 275 6 292 43 q 231 -64 258 -31 q 173 -127 205 -98 q 111 -180 140 -157 l 50 -153 q 89 -117 68 -138 q 131 -71 111 -96 q 166 -19 151 -45 q 188 33 182 8 l 93 33 l 109 100 z "},"-":{"ha":570,"x_min":105,"x_max":605,"o":"m 130 469 l 605 469 l 580 369 l 105 369 l 130 469 z "},".":{"ha":420,"x_min":100,"x_max":288,"o":"m 100 61 q 110 100 100 81 q 134 132 119 118 q 168 155 149 146 q 210 163 188 163 q 240 156 226 163 q 265 139 254 150 q 281 115 275 129 q 288 85 288 100 q 278 46 288 64 q 254 14 269 28 q 219 -9 239 -1 q 178 -17 199 -17 q 148 -11 162 -17 q 123 6 134 -5 q 106 31 113 17 q 100 61 100 45 z "},"/":{"ha":665,"x_min":-81,"x_max":902,"o":"m 902 1063 l 34 -163 l -81 -163 l 787 1063 l 902 1063 z "},":":{"ha":420,"x_min":100,"x_max":400,"o":"m 100 61 q 110 100 100 81 q 134 132 119 118 q 168 155 149 146 q 210 163 188 163 q 240 156 226 163 q 265 139 254 150 q 281 115 275 129 q 288 85 288 100 q 278 46 288 64 q 254 14 269 28 q 219 -9 239 -1 q 178 -17 199 -17 q 148 -11 162 -17 q 123 6 134 -5 q 106 31 113 17 q 100 61 100 45 m 213 514 q 222 553 213 534 q 247 585 231 571 q 282 607 262 599 q 323 615 302 615 q 353 609 339 615 q 378 592 368 602 q 394 567 388 581 q 400 537 400 553 q 391 498 400 517 q 367 466 382 480 q 332 444 352 452 q 292 435 313 435 q 261 442 275 435 q 236 459 246 448 q 219 484 225 470 q 213 514 213 498 z "},";":{"ha":427,"x_min":50,"x_max":400,"o":"m 109 100 q 153 149 124 132 q 211 166 182 166 q 243 160 228 166 q 269 142 258 153 q 286 115 279 131 q 292 80 292 99 q 275 6 292 43 q 231 -64 258 -31 q 173 -127 205 -98 q 111 -180 140 -157 l 50 -153 q 89 -117 68 -138 q 131 -71 111 -96 q 166 -19 151 -45 q 188 33 182 8 l 93 33 l 109 100 m 213 514 q 222 553 213 534 q 247 585 231 571 q 282 607 262 599 q 323 615 302 615 q 353 609 339 615 q 378 592 368 602 q 394 567 388 581 q 400 537 400 553 q 391 498 400 517 q 367 466 382 480 q 332 444 352 452 q 292 435 313 435 q 261 442 275 435 q 236 459 246 448 q 219 484 225 470 q 213 514 213 498 z "},"<":{"ha":800,"x_min":134,"x_max":892,"o":"m 732 163 l 134 429 l 162 542 l 892 808 l 863 688 l 277 478 l 762 283 l 732 163 z "},"=":{"ha":800,"x_min":120,"x_max":854,"o":"m 203 651 l 854 651 l 829 551 l 178 551 l 203 651 m 144 418 l 795 418 l 771 319 l 120 319 l 144 418 z "},">":{"ha":800,"x_min":81,"x_max":840,"o":"m 241 808 l 840 542 l 812 429 l 81 163 l 111 283 l 697 492 l 212 688 l 241 808 z "},"?":{"ha":699,"x_min":189,"x_max":727,"o":"m 189 61 q 198 100 189 81 q 222 132 207 118 q 256 155 237 146 q 298 163 276 163 q 328 156 314 163 q 353 139 342 150 q 370 115 363 129 q 376 85 376 100 q 367 46 376 64 q 342 14 357 28 q 308 -9 328 -1 q 267 -17 288 -17 q 236 -11 250 -17 q 211 6 222 -5 q 195 31 201 17 q 189 61 189 45 m 284 950 q 331 979 304 966 q 387 1003 357 993 q 446 1018 416 1013 q 506 1023 477 1023 q 598 1011 557 1023 q 668 978 639 999 q 712 927 696 956 q 727 863 727 897 q 713 798 727 831 q 675 733 699 765 q 623 670 652 701 q 564 611 593 639 q 506 552 530 580 q 464 491 482 525 q 431 409 446 456 q 398 292 416 362 l 273 292 q 309 419 291 364 q 347 516 326 473 q 390 591 367 558 q 444 651 414 623 q 482 685 458 665 q 528 729 505 705 q 566 778 550 752 q 582 829 582 803 q 553 886 582 865 q 465 907 524 907 q 381 889 429 907 q 284 831 333 871 l 284 950 z "},"@":{"ha":1141,"x_min":98,"x_max":1180,"o":"m 798 578 q 753 594 783 586 q 686 602 724 602 q 649 598 668 602 q 610 587 630 595 q 570 564 590 578 q 529 525 549 549 q 491 464 508 500 q 465 389 474 427 q 456 347 459 367 q 454 311 454 328 q 473 237 454 262 q 519 213 492 213 q 556 226 534 213 q 603 261 578 239 q 653 311 627 283 q 702 369 678 339 q 744 427 725 398 q 774 479 762 456 l 798 578 m 787 -79 q 723 -111 758 -96 q 652 -135 688 -125 q 578 -151 615 -145 q 507 -156 541 -156 q 348 -128 422 -156 q 218 -47 274 -100 q 131 81 163 5 q 98 254 98 157 q 119 409 98 326 q 221 645 153 546 q 379 809 290 745 q 572 903 469 873 q 782 934 676 934 q 947 908 873 934 q 1073 834 1021 882 q 1152 719 1124 786 q 1180 572 1180 652 q 1164 445 1180 512 q 1106 301 1143 362 q 1024 200 1069 240 q 930 139 979 159 q 836 119 881 119 q 793 130 812 119 q 763 159 775 140 q 745 203 751 178 q 739 259 739 229 q 740 291 739 275 q 745 326 742 308 q 693 259 724 295 q 626 193 661 223 q 554 142 590 162 q 488 121 517 121 q 434 132 460 121 q 389 162 408 142 q 357 212 369 182 q 345 282 345 242 q 355 359 345 317 q 397 471 371 420 q 456 562 422 522 q 517 620 486 595 q 581 660 547 644 q 650 684 614 676 q 728 691 686 691 q 774 688 749 691 q 824 680 799 685 q 874 667 850 675 q 918 651 899 660 l 860 418 q 844 342 849 376 q 840 285 840 309 q 850 228 840 246 q 880 210 861 210 q 922 223 897 210 q 974 265 947 237 q 1024 336 1000 293 q 1063 439 1048 379 q 1075 496 1071 469 q 1078 551 1078 524 q 1058 668 1078 614 q 998 761 1038 722 q 896 822 957 800 q 753 844 835 844 q 585 814 669 844 q 429 729 501 785 q 301 594 356 673 q 222 416 247 515 q 208 346 212 380 q 204 281 204 313 q 229 138 204 202 q 298 30 254 75 q 405 -39 343 -15 q 540 -63 467 -63 q 634 -50 587 -63 q 734 -7 682 -37 l 787 -79 z "},"A":{"ha":946,"x_min":-14,"x_max":865,"o":"m 349 359 l 693 359 l 640 841 l 349 359 m 704 256 l 286 256 l 132 0 l -14 0 q 16 42 1 20 q 48 92 31 64 q 89 154 66 119 q 140 236 111 189 l 594 970 l 740 970 l 828 236 q 839 155 833 190 q 848 92 844 119 q 857 42 852 64 q 865 0 861 20 l 732 0 l 704 256 z "},"B":{"ha":862,"x_min":68,"x_max":870,"o":"m 232 103 q 295 101 251 102 q 397 100 340 100 q 505 110 453 100 q 597 143 557 119 q 662 207 637 168 q 686 305 686 246 q 671 372 686 342 q 631 423 656 402 q 569 454 605 444 q 489 465 532 465 l 323 465 l 232 103 m 243 665 q 267 760 256 713 q 288 846 279 806 q 302 918 296 886 q 309 970 308 950 q 363 973 332 972 q 429 976 393 975 q 506 977 465 977 q 589 977 547 977 q 710 962 657 977 q 798 919 762 946 q 852 854 833 891 q 870 773 870 817 q 854 682 870 722 q 810 609 839 641 q 740 555 781 577 q 648 518 699 532 q 706 495 676 511 q 760 454 735 479 q 799 392 784 429 q 814 307 814 356 q 785 171 814 230 q 699 73 755 113 q 563 13 643 33 q 381 -7 482 -7 q 279 -6 330 -7 q 186 -4 229 -5 q 112 -2 143 -3 q 68 0 81 -1 q 86 51 77 20 q 107 122 96 82 q 130 207 118 161 q 153 302 141 253 l 243 665 m 348 568 l 473 568 q 581 580 532 568 q 662 615 629 592 q 714 671 696 637 q 732 749 732 705 q 688 844 732 813 q 550 874 643 874 q 478 873 510 874 q 424 871 446 872 l 348 568 z "},"C":{"ha":909,"x_min":125,"x_max":1010,"o":"m 834 86 q 756 40 798 59 q 669 8 714 20 q 576 -11 623 -5 q 481 -17 528 -17 q 331 11 397 -17 q 219 86 265 38 q 150 202 174 135 q 125 348 125 269 q 150 532 125 446 q 217 688 174 617 q 316 815 259 760 q 439 908 374 870 q 576 967 505 947 q 718 987 648 987 q 794 981 754 987 q 874 962 835 975 q 949 931 913 950 q 1010 887 984 912 l 939 768 q 893 814 920 794 q 836 847 867 833 q 770 867 804 861 q 703 874 736 874 q 592 857 647 874 q 488 806 537 839 q 398 727 439 774 q 326 624 356 681 q 278 500 295 567 q 261 361 261 434 q 279 255 261 302 q 331 172 298 207 q 410 119 364 138 q 510 100 455 100 q 602 109 556 100 q 690 133 648 117 q 770 170 732 149 q 839 216 808 191 l 834 86 z "},"D":{"ha":964,"x_min":68,"x_max":981,"o":"m 234 110 q 298 105 258 108 q 388 103 339 103 q 549 122 477 103 q 675 181 621 142 q 767 282 730 221 q 825 427 804 343 q 845 576 845 509 q 774 798 845 725 q 563 871 704 871 q 527 870 546 871 q 489 869 508 870 q 453 868 470 869 q 422 867 435 868 l 234 110 m 243 665 q 267 760 256 713 q 288 846 279 806 q 302 918 296 886 q 309 970 308 950 q 368 973 332 972 q 446 976 404 975 q 529 977 487 977 q 606 977 572 977 q 749 956 681 977 q 869 889 817 935 q 951 773 920 844 q 981 604 981 703 q 976 527 981 568 q 960 439 971 486 q 876 236 930 321 q 747 97 822 151 q 576 18 671 43 q 368 -7 480 -7 q 330 -6 351 -7 q 284 -6 308 -6 q 234 -5 260 -5 q 185 -3 209 -4 q 68 0 128 -2 q 86 51 77 20 q 106 122 96 82 q 129 207 117 161 q 153 302 140 253 l 243 665 z "},"E":{"ha":773,"x_min":68,"x_max":886,"o":"m 733 562 l 707 455 l 320 455 l 234 110 l 413 110 q 583 111 514 110 q 694 119 651 113 l 665 0 l 68 0 q 105 115 85 40 q 150 289 125 190 l 248 682 q 290 855 272 780 q 309 970 307 930 l 886 970 l 859 861 l 421 861 l 347 562 l 733 562 z "},"F":{"ha":766,"x_min":68,"x_max":899,"o":"m 738 555 l 712 449 l 319 449 l 279 289 q 255 195 267 239 q 236 114 244 151 q 223 48 228 77 q 217 0 218 19 l 68 0 q 105 115 85 40 q 150 289 125 190 l 247 678 q 270 771 259 727 q 289 853 281 816 q 303 921 298 891 q 309 970 308 950 l 899 970 l 872 861 l 421 861 l 345 555 l 738 555 z "},"G":{"ha":954,"x_min":125,"x_max":1040,"o":"m 853 90 q 783 49 825 68 q 690 15 740 30 q 587 -8 640 1 q 484 -17 533 -17 q 340 6 406 -17 q 227 74 274 30 q 152 182 179 118 q 125 330 125 247 q 131 407 125 367 q 147 492 136 448 q 234 704 177 612 q 366 859 290 796 q 533 954 442 922 q 721 987 623 987 q 808 980 764 987 q 893 961 852 974 q 971 927 934 947 q 1040 880 1008 907 l 966 761 q 853 846 920 818 q 713 874 787 874 q 567 846 636 874 q 441 768 498 819 q 344 646 385 718 q 281 488 303 575 q 260 334 260 404 q 277 234 260 278 q 325 161 294 191 q 401 115 356 131 q 501 100 446 100 q 565 103 532 100 q 631 113 599 106 q 691 129 663 120 q 739 149 720 138 l 795 372 l 557 372 l 585 481 l 951 481 l 853 90 z "},"H":{"ha":987,"x_min":68,"x_max":1076,"o":"m 695 0 l 807 449 l 319 449 l 207 0 l 68 0 q 105 115 85 40 q 150 289 125 190 l 248 682 q 290 855 272 780 q 309 970 307 930 l 448 970 l 345 555 l 833 555 l 937 970 l 1076 970 q 1038 855 1058 930 q 994 682 1018 781 l 896 289 q 854 115 871 190 q 834 0 836 40 l 695 0 z "},"I":{"ha":648,"x_min":54,"x_max":753,"o":"m 753 970 l 730 874 l 564 874 l 370 96 l 536 96 l 512 0 l 54 0 l 78 96 l 241 96 l 435 874 l 272 874 l 296 970 l 753 970 z "},"J":{"ha":675,"x_min":4,"x_max":730,"o":"m 730 970 l 576 355 q 513 181 551 252 q 429 66 476 110 q 325 2 382 22 q 202 -17 267 -17 q 146 -9 176 -17 q 90 11 117 -2 q 40 42 62 24 q 4 80 17 60 l 66 203 q 96 166 78 184 q 136 134 115 148 q 181 112 157 120 q 229 103 205 103 q 357 156 303 103 q 439 322 411 208 l 522 651 q 545 746 534 700 q 565 833 556 791 q 581 909 574 874 q 591 970 587 944 l 730 970 z "},"K":{"ha":855,"x_min":68,"x_max":991,"o":"m 337 524 l 828 970 l 991 970 l 456 499 l 793 0 l 627 0 l 326 477 l 207 0 l 68 0 q 105 115 85 40 q 150 289 125 190 l 248 682 q 290 855 272 780 q 309 970 307 930 l 448 970 l 337 524 z "},"L":{"ha":719,"x_min":68,"x_max":684,"o":"m 386 110 q 564 111 487 110 q 684 119 641 113 l 654 0 l 68 0 q 105 115 85 40 q 150 289 125 190 l 248 682 q 290 855 272 780 q 309 970 307 930 l 448 970 l 234 110 l 386 110 z "},"M":{"ha":1211,"x_min":75,"x_max":1252,"o":"m 509 970 l 597 136 l 1096 970 l 1252 970 q 1160 534 1201 733 q 1136 420 1148 477 q 1114 310 1124 363 q 1094 207 1103 256 q 1077 117 1084 158 q 1064 46 1069 77 q 1058 0 1059 16 l 932 0 l 1112 797 l 634 0 l 502 0 l 419 793 l 200 0 l 75 0 q 101 79 84 24 q 141 207 119 134 q 189 365 163 279 q 238 534 214 450 q 363 970 296 733 l 509 970 z "},"N":{"ha":1004,"x_min":61,"x_max":1099,"o":"m 385 783 l 190 0 l 61 0 q 99 115 79 40 q 143 289 119 190 l 241 682 q 283 855 265 780 q 302 970 300 930 l 431 970 l 775 184 l 970 970 l 1099 970 q 1062 855 1082 930 q 1017 682 1042 781 l 848 0 l 729 0 l 385 783 z "},"O":{"ha":981,"x_min":125,"x_max":1012,"o":"m 1012 631 q 990 457 1012 541 q 929 302 968 374 q 837 171 890 230 q 721 70 783 112 q 590 6 659 28 q 452 -17 522 -17 q 325 7 384 -17 q 221 76 265 31 q 151 188 176 122 q 125 339 125 254 q 148 513 125 430 q 209 669 170 597 q 301 799 248 741 q 417 900 355 858 q 549 964 479 941 q 688 987 618 987 q 814 963 755 987 q 917 893 873 939 q 986 782 961 848 q 1012 631 1012 715 m 488 100 q 601 122 548 100 q 696 181 653 144 q 773 269 739 218 q 829 375 806 319 q 864 490 852 431 q 876 605 876 549 q 860 715 876 666 q 815 799 844 764 q 745 852 787 833 q 653 871 704 871 q 540 849 593 871 q 444 790 488 827 q 367 703 401 753 q 310 597 333 653 q 274 482 286 541 q 262 367 262 422 q 277 256 262 306 q 322 172 293 207 q 394 118 352 137 q 488 100 435 100 z "},"P":{"ha":807,"x_min":68,"x_max":896,"o":"m 326 479 q 394 473 357 475 q 470 472 431 472 q 594 490 540 472 q 685 540 648 508 q 741 615 722 572 q 760 711 760 659 q 749 771 760 742 q 713 822 738 800 q 648 858 688 844 q 553 871 609 871 q 512 870 529 871 q 481 870 495 870 q 454 869 467 869 q 422 867 440 868 l 326 479 m 279 289 q 256 195 267 239 q 237 114 245 151 q 223 48 229 77 q 217 0 218 19 l 68 0 q 105 115 85 40 q 150 289 125 190 l 243 665 q 267 760 256 713 q 288 846 279 806 q 302 918 296 886 q 309 970 308 950 q 393 974 349 972 q 481 976 432 975 q 586 977 531 977 q 714 960 656 977 q 811 912 771 943 q 874 836 852 880 q 896 735 896 791 q 864 577 896 646 q 774 463 832 509 q 634 393 715 416 q 454 369 553 369 q 416 369 436 369 q 375 371 395 370 q 336 373 355 372 q 300 376 317 374 l 279 289 z "},"Q":{"ha":989,"x_min":125,"x_max":1014,"o":"m 468 100 q 568 118 518 100 q 663 171 618 137 q 748 253 709 205 q 816 359 787 301 q 862 486 845 418 q 878 627 878 553 q 865 729 878 684 q 825 806 851 774 q 762 854 800 838 q 674 871 724 871 q 553 848 609 871 q 451 787 497 825 q 369 696 405 748 q 310 586 334 644 q 273 466 286 528 q 260 345 260 404 q 274 242 260 288 q 314 165 288 197 q 379 117 340 134 q 468 100 418 100 m 1014 637 q 1001 503 1014 567 q 966 383 988 439 q 915 278 944 327 q 851 189 885 229 q 782 119 818 149 q 711 70 746 89 q 820 5 766 31 q 941 -30 875 -21 q 919 -55 933 -39 q 888 -87 905 -71 q 856 -114 872 -102 q 825 -126 839 -126 q 789 -117 811 -126 q 742 -93 768 -107 q 690 -63 717 -79 q 638 -33 663 -47 q 594 -9 614 -19 q 562 0 574 0 q 506 -13 538 -9 q 442 -17 474 -17 q 317 7 375 -17 q 217 75 259 31 q 150 185 174 120 q 125 334 125 250 q 130 410 125 370 q 146 492 135 450 q 234 704 176 612 q 368 859 293 796 q 529 954 444 922 q 696 987 614 987 q 826 963 767 987 q 926 895 884 940 q 991 785 968 850 q 1014 637 1014 720 z "},"R":{"ha":878,"x_min":68,"x_max":884,"o":"m 336 518 l 465 518 q 576 530 524 518 q 667 568 629 543 q 727 633 705 593 q 749 730 749 673 q 697 832 749 794 q 539 871 645 871 q 477 870 503 871 q 422 867 450 869 l 336 518 m 279 289 q 256 196 267 240 q 237 115 245 152 q 223 48 229 77 q 217 0 218 19 l 68 0 q 105 115 85 40 q 150 289 125 190 l 243 665 q 267 760 256 713 q 288 846 279 806 q 302 918 296 886 q 309 970 308 950 q 381 974 340 972 q 464 976 416 975 q 572 977 513 977 q 698 963 641 977 q 797 920 755 948 q 861 851 838 892 q 884 755 884 809 q 859 629 884 685 q 793 531 835 572 q 696 463 751 489 q 578 425 640 436 q 610 362 591 399 q 650 281 629 324 q 695 194 672 239 q 739 111 718 150 q 777 43 760 73 q 804 0 794 13 l 631 0 l 448 416 l 310 416 l 279 289 z "},"S":{"ha":783,"x_min":44,"x_max":854,"o":"m 795 784 q 688 849 745 827 q 573 871 631 871 q 484 862 526 871 q 412 834 443 852 q 363 791 381 817 q 346 732 346 765 q 357 695 346 713 q 393 658 369 677 q 454 615 416 638 q 543 562 491 591 q 649 486 608 524 q 714 412 691 448 q 747 342 738 376 q 755 281 755 309 q 725 149 755 205 q 642 56 694 93 q 522 1 590 19 q 378 -17 453 -17 q 282 -5 330 -17 q 191 26 234 6 q 110 72 148 45 q 44 127 73 98 l 109 256 q 177 191 139 220 q 257 142 216 162 q 341 111 299 121 q 421 100 383 100 q 501 113 465 100 q 564 147 538 125 q 605 197 591 169 q 620 256 620 225 q 613 300 620 277 q 586 348 606 322 q 526 403 565 373 q 422 469 487 433 q 337 522 375 495 q 273 578 299 549 q 232 638 246 607 q 217 705 217 670 q 244 825 217 772 q 321 913 272 877 q 439 968 371 949 q 588 987 507 987 q 731 968 667 987 q 854 913 796 950 l 795 784 z "},"T":{"ha":844,"x_min":201,"x_max":1015,"o":"m 1015 970 l 984 848 q 906 858 945 856 q 821 861 867 861 l 659 861 l 516 289 q 475 115 492 190 q 458 0 459 40 l 302 0 q 341 115 320 40 q 387 289 363 190 l 530 861 l 370 861 q 284 858 325 861 q 201 848 243 856 l 231 970 l 1015 970 z "},"U":{"ha":963,"x_min":155,"x_max":1052,"o":"m 1052 970 q 1016 857 1036 930 q 970 682 996 785 l 881 326 q 825 185 861 248 q 735 77 789 122 q 606 8 680 33 q 436 -17 532 -17 q 308 5 361 -17 q 221 64 255 26 q 171 151 187 101 q 155 257 155 201 q 170 374 155 313 l 248 682 q 290 855 273 781 q 309 970 307 930 l 448 970 l 304 395 q 290 328 295 361 q 286 265 286 296 q 294 196 286 228 q 324 140 303 163 q 378 103 345 117 q 463 90 412 90 q 654 158 581 90 q 764 372 728 227 l 913 970 l 1052 970 z "},"V":{"ha":912,"x_min":224,"x_max":1089,"o":"m 1089 970 q 1060 928 1075 950 q 1027 877 1045 905 q 986 812 1008 848 q 934 728 963 776 l 492 0 l 339 0 l 256 728 q 246 812 250 776 q 238 877 241 848 q 231 927 234 905 q 224 970 228 950 l 363 970 l 444 130 l 937 970 l 1089 970 z "},"W":{"ha":1397,"x_min":228,"x_max":1567,"o":"m 374 123 l 828 970 l 954 970 l 989 123 l 1411 970 l 1567 970 q 1540 928 1554 950 q 1510 877 1527 905 q 1474 812 1494 848 q 1429 728 1455 776 l 1041 0 l 888 0 l 850 781 l 424 0 l 271 0 l 245 728 q 242 812 243 775 q 238 877 240 848 q 233 928 236 905 q 228 970 231 951 l 370 970 l 374 123 z "},"X":{"ha":885,"x_min":-20,"x_max":1021,"o":"m 496 408 l 142 0 l -20 0 l 6 26 q 32 53 19 39 q 59 82 45 66 q 93 119 74 98 q 135 165 111 139 q 189 226 158 191 l 451 524 l 367 738 q 332 824 347 789 q 306 884 317 859 q 283 929 294 909 q 262 970 273 949 l 414 970 l 550 625 l 855 970 l 1021 970 q 981 931 1001 951 q 936 885 961 911 q 879 823 911 859 q 802 738 847 788 l 596 508 l 709 223 q 743 137 729 171 q 767 80 757 104 q 787 38 778 56 q 807 0 796 20 l 658 0 l 496 408 z "},"Y":{"ha":882,"x_min":224,"x_max":1059,"o":"m 326 0 q 363 115 343 40 q 408 289 383 190 l 436 406 l 332 708 q 310 772 321 741 q 287 835 299 803 q 259 900 274 867 q 224 970 243 933 l 374 970 l 532 531 l 896 970 l 1059 970 q 986 894 1018 928 q 928 829 955 860 q 876 770 901 799 q 824 708 851 741 l 564 401 l 536 289 q 494 115 512 190 q 475 0 477 40 l 326 0 z "},"Z":{"ha":821,"x_min":3,"x_max":957,"o":"m 935 884 l 203 110 l 481 110 q 659 113 581 110 q 780 123 737 116 l 749 0 l 3 0 l 24 83 l 757 861 l 513 861 q 422 860 463 861 q 348 858 381 860 q 289 854 315 857 q 241 848 262 852 l 272 970 l 957 970 l 935 884 z "},"[":{"ha":522,"x_min":30,"x_max":658,"o":"m 30 -273 l 359 1063 l 658 1063 l 633 964 l 460 964 l 180 -173 l 353 -173 l 328 -273 l 30 -273 z "},"\\":{"ha":682,"x_min":321,"x_max":542,"o":"m 420 1063 l 542 -63 l 445 -83 l 321 1043 l 420 1063 z "},"]":{"ha":522,"x_min":-4,"x_max":624,"o":"m -4 -273 l 21 -173 l 194 -173 l 474 964 l 301 964 l 326 1063 l 624 1063 l 294 -273 l -4 -273 z "},"^":{"ha":563,"x_min":113,"x_max":688,"o":"m 113 778 l 401 1063 l 516 1063 l 688 778 l 587 778 l 448 964 l 214 778 l 113 778 z "},"_":{"ha":850,"x_min":-94,"x_max":795,"o":"m -68 -113 l 795 -113 l 770 -213 l -94 -213 l -68 -113 z "},"`":{"ha":380,"x_min":177,"x_max":506,"o":"m 319 1063 l 506 778 l 404 778 l 177 1063 l 319 1063 z "},"a":{"ha":768,"x_min":85,"x_max":797,"o":"m 649 573 q 605 581 633 576 q 526 585 577 585 q 416 561 465 585 q 330 495 367 536 q 266 400 292 454 q 225 286 240 346 q 215 210 215 245 q 219 164 215 185 q 232 128 224 143 q 253 104 241 113 q 279 95 264 95 q 335 115 302 95 q 404 166 368 134 q 476 240 439 199 q 543 326 512 282 q 597 412 574 370 q 628 488 619 454 l 649 573 m 557 0 q 559 52 557 23 q 564 111 561 81 q 571 169 567 140 q 581 219 576 197 l 595 273 q 550 205 576 239 q 494 139 524 172 q 431 79 464 107 q 365 29 398 50 q 298 -5 331 7 q 237 -17 266 -17 q 176 -5 203 -17 q 127 31 148 7 q 96 90 107 55 q 85 170 85 125 q 89 221 85 194 q 100 279 92 249 q 134 382 111 332 q 187 479 156 433 q 258 564 218 525 q 345 631 298 603 q 445 676 392 660 q 557 692 498 692 q 685 683 623 692 q 797 661 748 675 l 720 352 q 695 235 704 289 q 682 136 686 180 q 677 57 678 92 q 676 0 676 23 l 557 0 z "},"b":{"ha":776,"x_min":75,"x_max":788,"o":"m 220 136 q 251 118 233 127 q 289 102 269 109 q 331 90 309 94 q 374 85 353 85 q 467 106 418 85 q 557 170 516 128 q 598 219 580 191 q 631 280 617 247 q 652 351 644 313 q 659 431 659 389 q 632 542 659 507 q 557 576 604 576 q 513 564 538 576 q 461 531 488 552 q 406 481 434 510 q 350 421 377 453 q 300 356 323 390 q 259 291 277 323 l 220 136 m 425 1065 q 422 1016 425 1049 q 412 940 418 983 q 396 847 406 897 q 374 749 387 798 l 309 488 q 379 565 342 528 q 456 630 416 602 q 536 675 495 659 q 615 692 576 692 q 682 680 650 692 q 737 642 713 668 q 774 573 760 615 q 788 471 788 531 q 775 358 788 413 q 738 253 762 302 q 683 161 715 203 q 615 85 652 118 q 494 8 558 33 q 351 -17 431 -17 q 270 -9 309 -17 q 194 10 230 -1 q 127 34 158 21 q 75 58 97 47 l 249 749 q 266 828 258 785 q 281 914 275 871 q 292 996 288 957 q 296 1065 296 1036 l 425 1065 z "},"c":{"ha":671,"x_min":94,"x_max":730,"o":"m 613 56 q 554 24 583 37 q 495 1 525 10 q 432 -13 465 -8 q 361 -17 399 -17 q 255 2 304 -17 q 171 57 207 21 q 115 143 135 92 q 94 258 94 195 q 128 428 94 349 q 221 566 161 507 q 361 658 280 624 q 535 692 441 692 q 592 688 564 692 q 646 676 621 684 q 693 657 671 668 q 730 635 715 647 l 677 515 q 597 565 639 548 q 503 582 556 582 q 390 554 441 582 q 302 483 339 527 q 245 384 265 439 q 224 275 224 330 q 236 199 224 233 q 270 142 248 165 q 324 105 292 118 q 395 93 355 93 q 512 114 457 93 q 622 173 568 134 l 613 56 z "},"d":{"ha":812,"x_min":94,"x_max":907,"o":"m 667 529 q 626 552 646 542 q 586 568 606 562 q 545 577 566 574 q 498 580 524 580 q 414 564 451 580 q 345 515 378 547 q 294 450 317 487 q 256 373 272 414 q 232 292 240 333 q 224 214 224 251 q 248 120 224 153 q 325 88 271 88 q 370 101 344 88 q 426 135 396 113 q 485 184 455 156 q 543 244 515 213 q 594 308 571 275 q 631 370 616 340 l 667 529 m 907 1065 q 894 951 907 1016 q 859 797 881 887 l 751 353 q 719 186 728 260 q 710 61 710 112 q 711 27 710 42 q 713 0 711 12 l 589 0 q 593 99 589 47 q 610 207 597 151 q 542 125 582 165 q 456 53 501 85 q 367 2 412 22 q 288 -17 323 -17 q 208 -2 243 -17 q 146 40 172 12 q 108 106 121 67 q 94 195 94 146 q 109 316 94 257 q 150 429 124 376 q 212 528 176 482 q 291 607 248 573 q 402 671 345 650 q 515 692 459 692 q 564 687 539 692 q 611 674 588 682 q 656 655 635 666 q 694 634 677 645 l 732 797 q 763 941 749 875 q 776 1065 776 1006 l 907 1065 z "},"e":{"ha":707,"x_min":93,"x_max":730,"o":"m 488 591 q 413 578 450 591 q 342 542 375 566 q 282 484 309 517 q 238 408 255 450 q 306 402 275 404 q 366 400 338 400 q 467 409 423 400 q 540 432 511 417 q 584 467 569 446 q 599 511 599 487 q 590 543 599 528 q 567 569 582 558 q 532 585 553 579 q 488 591 512 591 m 648 56 q 587 29 621 42 q 516 5 554 16 q 438 -11 479 -5 q 355 -17 397 -17 q 238 4 288 -17 q 156 61 189 24 q 109 148 124 98 q 93 258 93 199 q 107 367 93 313 q 148 470 121 421 q 213 559 175 518 q 299 629 252 600 q 404 675 347 659 q 524 692 460 692 q 617 678 578 692 q 682 642 656 664 q 719 591 707 619 q 730 536 730 564 q 711 449 730 490 q 650 375 692 407 q 543 326 608 344 q 386 307 478 307 q 217 319 313 307 q 215 285 215 302 q 224 210 215 245 q 254 148 233 174 q 306 107 274 122 q 385 92 338 92 q 454 98 418 92 q 525 117 490 104 q 594 146 560 129 q 656 183 627 163 l 648 56 z "},"f":{"ha":513,"x_min":122,"x_max":750,"o":"m 693 924 q 672 938 684 931 q 645 951 659 945 q 615 960 631 957 q 585 964 600 964 q 494 926 532 964 q 435 804 456 889 l 399 661 l 591 661 l 566 565 l 377 565 q 346 433 359 491 q 323 328 333 376 q 299 194 308 260 q 290 75 290 127 q 296 0 290 28 l 151 0 q 165 126 155 56 q 189 271 175 196 q 220 422 203 347 q 252 565 236 498 l 122 565 l 146 661 l 275 661 l 304 778 q 356 919 326 862 q 425 1011 386 977 q 510 1062 463 1046 q 612 1077 557 1077 q 652 1073 632 1077 q 690 1063 672 1069 q 723 1047 708 1056 q 750 1030 739 1039 l 693 924 z "},"g":{"ha":752,"x_min":40,"x_max":791,"o":"m 647 553 q 615 564 633 559 q 578 572 597 569 q 542 578 560 576 q 508 580 524 580 q 417 560 458 580 q 342 509 376 541 q 291 447 313 481 q 254 373 269 412 q 231 293 239 334 q 223 214 223 252 q 244 130 223 159 q 301 102 266 102 q 339 113 315 102 q 391 145 363 125 q 450 191 419 165 q 509 248 480 218 q 563 312 538 279 q 605 376 588 345 l 647 553 m 650 17 q 589 -134 630 -71 q 495 -237 548 -197 q 383 -296 442 -277 q 267 -315 323 -315 q 143 -293 202 -315 q 40 -234 85 -271 l 108 -129 q 192 -182 147 -163 q 288 -200 237 -200 q 349 -188 314 -200 q 418 -152 384 -176 q 479 -91 452 -127 q 518 -7 507 -55 l 568 203 q 492 119 532 157 q 413 54 452 81 q 336 12 374 26 q 264 -3 298 -3 q 199 8 231 -3 q 143 42 168 19 q 105 101 119 66 q 91 186 91 137 q 104 297 91 241 q 143 407 118 353 q 205 508 169 460 q 288 593 242 555 q 413 666 345 640 q 559 692 481 692 q 620 687 589 692 q 681 675 651 682 q 738 659 710 668 q 791 641 766 650 l 650 17 z "},"h":{"ha":804,"x_min":75,"x_max":793,"o":"m 590 0 q 586 52 586 21 q 587 93 586 72 q 591 138 589 115 q 600 185 593 157 q 613 243 606 212 q 628 307 621 274 q 643 368 636 339 q 653 422 649 397 q 658 461 658 446 q 638 549 658 522 q 570 576 619 576 q 523 564 549 576 q 469 530 497 551 q 412 478 441 508 q 357 416 384 449 q 308 347 331 382 q 269 277 286 311 l 200 0 l 75 0 l 261 749 q 279 831 271 788 q 295 917 288 874 q 305 997 301 959 q 309 1065 309 1036 l 437 1065 q 433 1005 437 1042 q 422 924 429 968 q 406 834 415 880 q 387 749 397 789 l 322 490 q 387 566 351 530 q 463 630 423 602 q 545 675 503 658 q 631 692 587 692 q 754 642 715 692 q 793 505 793 593 q 788 458 793 487 q 775 397 783 430 q 758 328 768 363 q 740 261 749 293 q 724 203 731 229 q 715 161 718 176 q 710 113 712 136 q 707 69 707 90 q 715 0 707 31 l 590 0 z "},"i":{"ha":376,"x_min":112,"x_max":423,"o":"m 356 678 q 350 621 356 656 q 335 543 345 585 q 315 455 326 501 q 292 363 304 408 l 262 242 q 248 168 252 206 q 244 92 244 129 q 247 43 244 66 q 252 0 249 19 l 117 0 q 112 59 112 23 q 119 156 112 102 q 140 263 127 210 l 167 364 q 188 446 177 403 q 207 530 199 488 q 221 611 216 572 q 227 678 227 649 l 356 678 m 245 880 q 253 918 245 899 q 275 951 261 937 q 308 975 289 966 q 348 983 326 983 q 378 977 364 983 q 402 961 392 971 q 418 937 412 951 q 423 907 423 923 q 415 868 423 887 q 392 836 406 850 q 358 813 377 821 q 317 804 338 804 q 287 810 300 804 q 264 827 274 817 q 250 850 255 837 q 245 880 245 864 z "},"j":{"ha":408,"x_min":-222,"x_max":448,"o":"m 269 880 q 277 918 269 899 q 299 951 286 937 q 332 975 313 966 q 372 983 351 983 q 402 977 389 983 q 427 961 416 971 q 442 937 437 951 q 448 907 448 923 q 439 868 448 887 q 416 836 431 850 q 382 813 401 821 q 341 804 363 804 q 312 810 325 804 q 289 827 298 817 q 274 850 279 837 q 269 880 269 864 m 380 678 q 374 612 380 656 q 360 512 369 568 q 339 390 351 455 q 315 262 328 326 q 291 142 303 199 q 269 45 279 85 q 209 -120 245 -52 q 127 -232 172 -189 q 30 -295 82 -275 q -77 -315 -22 -315 q -111 -312 -92 -315 q -151 -302 -131 -309 q -191 -288 -172 -296 q -222 -269 -210 -279 l -172 -155 q -148 -172 -163 -164 q -117 -186 -134 -180 q -83 -196 -100 -193 q -52 -200 -66 -200 q 3 -184 -25 -200 q 58 -137 31 -169 q 107 -59 84 -106 q 145 52 130 -12 q 170 162 157 102 q 195 282 183 221 q 217 404 207 344 q 235 517 227 465 q 247 612 242 570 q 251 678 251 654 l 380 678 z "},"k":{"ha":718,"x_min":75,"x_max":769,"o":"m 75 0 q 156 326 119 175 q 189 456 172 391 q 219 578 205 521 q 244 681 233 636 q 262 751 256 726 q 280 832 271 789 q 295 918 288 876 q 305 998 301 960 q 309 1065 309 1036 l 437 1065 q 434 1007 437 1042 q 423 929 430 972 q 407 841 416 887 q 387 749 397 794 l 296 389 q 415 465 359 427 q 514 539 471 503 q 584 611 557 576 q 616 678 610 646 l 769 678 q 745 617 769 651 q 677 545 721 583 q 571 464 633 507 q 433 378 509 422 q 501 308 469 353 q 565 212 534 264 q 625 104 595 159 q 685 0 655 48 l 526 0 q 473 115 500 57 q 417 223 446 174 q 355 308 387 273 q 288 355 323 344 l 200 0 l 75 0 z "},"l":{"ha":390,"x_min":126,"x_max":444,"o":"m 444 1065 q 440 1007 444 1042 q 430 929 437 972 q 414 841 423 887 q 393 749 404 794 l 296 351 q 269 209 278 281 q 260 76 260 136 q 261 35 260 54 q 265 0 262 16 l 130 0 q 127 35 128 18 q 126 71 126 53 q 135 194 126 130 q 163 332 144 257 l 269 751 q 287 832 278 789 q 301 918 295 876 q 312 998 308 960 q 315 1065 315 1036 l 444 1065 z "},"m":{"ha":1139,"x_min":78,"x_max":1122,"o":"m 905 0 q 902 24 903 11 q 900 52 900 37 q 901 93 900 72 q 905 138 903 115 q 915 187 907 157 q 931 250 922 216 q 950 320 940 284 q 969 388 960 356 q 983 447 977 420 q 988 488 988 473 q 971 556 988 536 q 920 576 955 576 q 877 560 901 576 q 827 516 852 543 q 776 454 802 489 q 728 381 750 418 q 688 309 706 345 q 661 243 670 273 l 600 0 l 475 0 l 557 330 q 569 378 564 354 q 578 423 574 402 q 584 461 582 444 q 587 488 587 478 q 571 556 587 536 q 526 576 555 576 q 489 562 510 576 q 444 523 468 547 q 394 465 419 498 q 344 394 368 431 q 299 318 320 357 q 264 243 278 279 l 203 0 l 78 0 l 178 404 q 187 453 183 425 q 194 513 191 481 q 199 577 197 545 q 201 641 201 610 l 201 660 q 200 678 201 669 l 322 678 q 323 666 323 673 l 323 652 q 321 606 323 631 q 318 554 320 581 q 311 504 315 528 q 302 461 307 479 q 366 554 332 512 q 436 627 400 597 q 509 675 472 658 q 583 692 547 692 q 638 681 614 692 q 677 651 661 670 q 701 604 692 631 q 709 543 709 576 q 707 526 709 537 q 703 503 705 515 q 699 479 701 490 q 696 461 696 467 q 754 551 721 509 q 824 624 787 593 q 901 673 861 655 q 980 692 941 692 q 1045 681 1018 692 q 1089 650 1072 670 q 1114 603 1106 631 q 1122 543 1122 576 q 1116 493 1122 524 q 1101 425 1110 462 q 1081 347 1092 387 q 1060 271 1069 307 q 1042 205 1050 235 q 1032 161 1034 176 q 1026 113 1029 136 q 1024 69 1024 90 q 1025 33 1024 50 q 1031 0 1027 16 l 905 0 z "},"n":{"ha":810,"x_min":78,"x_max":797,"o":"m 593 0 q 590 24 591 11 q 588 52 588 37 q 589 93 588 72 q 593 138 591 115 q 602 185 595 157 q 615 243 608 212 q 631 307 623 274 q 646 368 639 339 q 657 422 652 397 q 661 461 661 446 q 637 549 661 522 q 566 576 613 576 q 518 562 545 576 q 463 523 492 547 q 406 465 435 498 q 350 396 376 433 q 302 323 324 360 q 266 251 280 286 l 203 0 l 78 0 l 178 404 q 187 454 183 425 q 194 516 191 484 q 199 584 197 549 q 200 652 200 619 l 200 678 l 322 678 q 323 665 323 672 q 323 649 323 657 q 322 601 323 627 q 317 548 320 575 q 310 497 314 522 q 302 456 307 473 q 375 549 336 506 q 457 624 414 593 q 544 674 499 656 q 634 692 588 692 q 758 642 718 692 q 797 505 797 593 q 792 458 797 487 q 779 397 787 430 q 762 328 771 363 q 744 261 753 293 q 729 203 736 229 q 720 161 722 176 q 714 113 717 136 q 712 69 712 90 q 713 33 712 50 q 719 0 715 16 l 593 0 z "},"o":{"ha":768,"x_min":96,"x_max":772,"o":"m 489 585 q 381 554 429 585 q 298 477 332 524 q 244 371 263 429 q 226 258 226 313 q 237 187 226 218 q 268 134 248 156 q 316 101 288 113 q 379 90 344 90 q 454 103 419 90 q 518 140 489 117 q 571 196 548 164 q 609 264 593 228 q 634 338 625 300 q 642 414 642 377 q 631 486 642 454 q 601 539 621 517 q 552 573 581 561 q 489 585 524 585 m 96 233 q 110 346 96 290 q 149 452 123 401 q 211 547 174 503 q 295 623 248 591 q 397 673 341 655 q 516 692 452 692 q 620 674 573 692 q 701 625 667 657 q 753 545 734 592 q 772 439 772 498 q 759 327 772 382 q 720 220 745 271 q 659 126 695 170 q 577 51 623 83 q 476 1 531 19 q 359 -17 421 -17 q 254 0 302 -17 q 171 50 206 18 q 116 129 136 82 q 96 233 96 175 z "},"p":{"ha":804,"x_min":14,"x_max":804,"o":"m 14 -326 q 16 -280 14 -304 q 24 -228 19 -255 q 35 -174 28 -201 q 47 -119 41 -146 l 159 322 q 177 403 169 360 q 190 490 184 446 q 197 577 195 534 q 200 659 200 620 l 200 678 l 322 678 q 323 659 323 669 l 323 637 q 319 549 323 597 q 307 461 315 502 q 371 544 334 503 q 451 617 409 585 q 538 671 493 650 q 624 692 583 692 q 704 674 670 692 q 760 627 738 657 q 793 554 782 596 q 804 461 804 511 q 789 341 804 399 q 748 231 774 283 q 686 135 722 179 q 607 58 650 91 q 502 1 557 19 q 390 -17 446 -17 q 340 -12 363 -17 q 296 4 317 -6 q 257 27 276 14 q 217 58 237 41 l 173 -119 q 153 -226 159 -174 q 146 -326 146 -279 l 14 -326 m 248 173 q 298 133 277 149 q 338 108 319 117 q 375 95 357 99 q 417 92 393 92 q 491 107 457 92 q 553 149 524 123 q 603 209 581 175 q 641 279 625 242 q 664 354 656 315 q 671 427 671 392 q 646 536 671 495 q 570 576 620 576 q 506 553 542 576 q 430 492 470 530 q 351 401 391 453 q 276 293 311 350 l 248 173 z "},"q":{"ha":756,"x_min":92,"x_max":790,"o":"m 642 554 q 612 565 629 560 q 577 573 595 570 q 542 578 559 576 q 509 580 524 580 q 422 562 462 580 q 349 515 382 545 q 297 455 320 490 q 257 382 273 420 q 232 303 241 343 q 224 224 224 262 q 246 126 224 157 q 309 95 268 95 q 349 109 325 95 q 401 147 373 123 q 459 200 429 170 q 515 262 488 231 q 565 326 543 294 q 600 383 587 357 l 642 554 m 439 -326 q 441 -286 439 -309 q 447 -236 443 -262 q 456 -180 450 -210 q 470 -122 462 -151 l 559 203 q 526 157 547 182 q 480 108 506 132 q 426 61 455 83 q 368 21 397 38 q 311 -7 339 3 q 258 -17 282 -17 q 198 -4 227 -17 q 144 34 168 8 q 106 100 121 60 q 92 193 92 139 q 107 307 92 249 q 149 418 122 364 q 214 519 176 472 q 298 604 252 567 q 419 670 355 648 q 559 692 483 692 q 621 687 590 692 q 680 675 651 682 q 737 659 709 668 q 790 641 765 650 l 600 -125 q 579 -231 587 -181 q 572 -326 572 -280 l 439 -326 z "},"r":{"ha":617,"x_min":78,"x_max":699,"o":"m 78 0 l 178 404 q 187 454 183 425 q 194 516 191 484 q 199 584 197 549 q 200 652 200 619 l 200 678 l 322 678 q 321 633 322 660 q 318 575 320 606 q 311 514 315 545 q 302 458 307 483 q 371 549 335 507 q 444 624 408 592 q 517 673 481 655 q 587 692 553 692 q 638 682 617 692 q 673 653 660 671 q 692 611 686 635 q 699 559 699 587 q 695 515 699 538 q 685 468 691 492 l 573 448 q 580 502 580 475 q 568 555 580 533 q 532 576 556 576 q 498 564 518 576 q 455 528 479 551 q 407 476 432 506 q 358 414 382 447 q 312 348 334 382 q 273 281 290 313 l 203 0 l 78 0 z "},"s":{"ha":641,"x_min":48,"x_max":671,"o":"m 618 522 q 583 543 604 532 q 536 563 562 553 q 480 578 510 572 q 420 585 451 585 q 320 565 356 585 q 283 511 283 546 q 291 485 283 496 q 316 462 299 473 q 360 436 333 450 q 425 402 387 422 q 495 361 462 382 q 552 317 528 340 q 590 267 576 294 q 604 208 604 239 q 583 115 604 157 q 525 44 562 74 q 438 -1 488 15 q 331 -17 388 -17 q 240 -7 282 -17 q 163 20 199 3 q 99 60 128 37 q 48 107 71 82 l 108 220 q 157 169 130 193 q 216 127 184 145 q 284 100 248 110 q 361 90 321 90 q 404 96 383 90 q 440 115 425 103 q 466 143 456 127 q 475 180 475 160 q 466 212 475 197 q 439 242 458 227 q 390 274 420 257 q 316 313 359 291 q 199 391 241 349 q 156 486 156 433 q 175 565 156 528 q 230 630 194 602 q 317 675 266 659 q 434 692 369 692 q 516 687 479 692 q 582 674 553 682 q 634 657 612 667 q 671 638 656 648 l 618 522 z "},"t":{"ha":553,"x_min":120,"x_max":626,"o":"m 144 661 l 278 661 l 334 878 l 459 878 q 431 765 444 819 q 404 661 417 711 l 626 661 l 602 565 l 378 565 q 327 368 349 453 q 294 221 306 282 q 290 195 292 208 q 288 168 288 181 q 292 139 288 153 q 303 114 295 125 q 324 97 311 104 q 357 91 337 91 q 428 106 391 91 q 510 143 465 121 l 502 35 q 399 -6 448 5 q 315 -17 351 -17 q 252 -8 281 -17 q 203 20 224 1 q 172 70 183 39 q 160 144 160 100 q 161 173 160 158 q 165 204 162 188 q 176 260 168 225 q 195 341 184 295 q 221 445 207 388 q 252 565 236 501 l 120 565 l 144 661 z "},"u":{"ha":797,"x_min":115,"x_max":817,"o":"m 583 0 q 585 101 583 50 q 597 207 587 151 q 522 118 562 159 q 439 47 481 77 q 355 0 397 18 q 278 -17 314 -17 q 158 25 200 -17 q 115 153 115 68 q 120 207 115 178 q 132 268 124 235 l 180 465 q 193 522 187 496 q 204 573 199 548 q 213 623 210 597 q 220 678 217 648 l 353 678 q 339 592 350 640 q 311 476 329 545 q 266 299 285 373 q 248 190 248 224 q 268 115 248 139 q 322 92 288 92 q 363 104 338 92 q 416 139 388 117 q 474 190 444 161 q 532 251 505 218 q 584 317 560 283 q 624 383 608 351 q 647 476 637 435 q 666 552 658 517 q 678 618 673 587 q 685 678 683 648 l 817 678 q 807 613 815 652 q 787 526 799 574 q 761 423 775 478 q 732 309 747 368 q 710 186 719 250 q 702 68 702 122 q 703 32 702 48 q 705 0 703 15 l 583 0 z "},"v":{"ha":638,"x_min":122,"x_max":716,"o":"m 258 678 q 272 613 266 650 q 282 535 278 576 q 289 448 287 493 q 291 357 291 403 q 287 232 291 293 q 274 119 283 171 q 344 201 308 156 q 414 295 380 246 q 478 395 448 344 q 531 497 509 447 q 567 593 554 547 q 581 678 581 639 l 716 678 q 700 588 716 638 q 654 482 683 538 q 585 365 625 426 q 498 242 545 304 q 401 118 452 180 q 299 0 351 57 l 163 0 q 174 240 174 124 q 161 478 174 367 q 122 678 149 589 l 258 678 z "},"w":{"ha":1055,"x_min":132,"x_max":1116,"o":"m 692 678 q 713 463 705 581 q 722 202 722 345 l 722 163 q 721 123 722 143 q 782 210 751 163 q 842 307 813 257 q 896 408 871 357 q 940 507 921 459 q 969 596 958 554 q 980 671 980 639 l 980 678 l 1116 678 q 1100 591 1115 640 q 1059 485 1084 542 q 998 366 1033 428 q 923 242 963 304 q 841 117 884 179 q 756 0 798 56 l 621 0 q 620 120 620 59 q 619 246 620 182 q 616 378 618 310 q 608 519 614 446 q 557 414 589 473 q 483 289 525 355 q 391 149 440 222 q 288 0 341 76 l 153 0 q 169 165 163 85 q 174 320 174 245 q 163 522 174 431 q 132 678 152 613 l 268 678 q 286 570 279 631 q 292 437 292 509 q 285 283 292 363 q 263 123 278 203 q 444 407 366 269 q 582 678 523 545 l 692 678 z "},"x":{"ha":684,"x_min":20,"x_max":745,"o":"m 473 0 q 444 46 459 16 q 412 115 429 76 q 378 199 396 153 q 341 294 360 245 q 267 232 301 268 q 209 156 233 196 q 170 76 184 117 q 156 0 156 35 l 20 0 q 53 108 26 54 q 120 210 80 161 q 209 300 159 258 q 310 371 258 341 q 268 467 290 420 q 222 554 245 513 q 174 626 199 594 q 123 678 149 659 l 298 678 q 325 637 311 664 q 356 573 340 610 q 390 494 372 537 q 427 406 408 452 q 495 461 463 430 q 550 529 526 493 q 587 602 573 564 q 603 678 602 640 l 745 678 q 731 612 744 645 q 696 546 718 578 q 646 484 674 514 q 586 425 617 453 q 521 372 554 397 q 458 327 488 347 q 504 221 481 273 q 549 126 526 170 q 595 49 572 82 q 641 0 618 16 l 473 0 z "},"y":{"ha":662,"x_min":-136,"x_max":716,"o":"m 235 678 q 269 620 252 655 q 301 539 286 584 q 329 444 316 495 q 351 340 342 393 q 366 232 361 286 q 372 128 372 178 q 454 274 416 200 q 521 415 492 347 q 566 542 549 484 q 582 642 582 600 q 578 678 582 662 l 713 678 q 716 654 716 669 q 694 546 716 614 q 633 392 673 479 q 537 205 593 306 q 413 0 481 105 q 298 -155 352 -94 q 196 -252 245 -216 q 103 -301 148 -288 q 16 -315 59 -315 q -68 -299 -31 -315 q -136 -256 -105 -283 l -69 -149 q -48 -167 -61 -158 q -21 -183 -36 -176 q 10 -195 -7 -191 q 43 -200 26 -200 q 89 -191 64 -200 q 143 -160 115 -182 q 205 -102 172 -138 q 273 -11 237 -66 q 256 201 272 96 q 215 396 241 305 q 157 561 190 488 q 90 678 125 633 l 235 678 z "},"z":{"ha":656,"x_min":17,"x_max":724,"o":"m 724 678 l 708 615 l 245 138 q 294 145 267 145 q 350 137 320 145 q 411 120 380 130 q 472 104 441 111 q 530 96 503 96 q 587 102 560 96 q 633 117 614 107 l 606 0 q 558 -12 586 -7 q 501 -17 531 -17 q 428 -6 465 -17 q 352 17 390 4 q 277 40 315 30 q 205 51 240 51 q 131 35 170 51 q 57 -17 93 19 l 17 32 l 543 578 l 278 578 q 246 577 263 578 q 213 574 229 576 q 182 569 197 572 q 157 562 167 566 l 184 678 l 724 678 z "},"{":{"ha":665,"x_min":203,"x_max":777,"o":"m 433 -273 q 379 -256 409 -266 q 323 -235 350 -246 q 276 -212 296 -224 q 248 -189 255 -201 q 241 -149 241 -178 q 246 -80 241 -121 q 259 5 252 -40 q 276 97 267 51 q 293 182 286 142 q 307 251 301 222 q 312 293 312 281 q 304 308 312 299 q 284 327 296 317 q 258 349 272 338 q 232 371 243 360 q 212 391 220 382 q 203 408 203 401 q 214 422 203 413 q 240 441 224 431 q 276 462 256 451 q 313 484 295 473 q 346 503 331 494 q 366 518 360 512 q 378 543 370 522 q 395 596 385 564 q 416 668 405 628 q 441 750 428 708 q 468 834 454 793 q 495 911 481 876 q 522 971 509 946 q 546 1007 534 997 q 586 1030 559 1018 q 645 1053 612 1042 q 711 1074 677 1064 q 773 1090 745 1083 l 777 997 q 734 982 759 991 q 686 965 709 974 q 644 946 663 956 q 618 930 625 937 q 605 904 613 924 q 587 853 597 883 q 567 786 578 823 q 547 710 557 749 q 527 635 536 672 q 508 569 517 599 q 493 520 500 540 q 483 495 486 500 q 468 482 479 490 q 442 466 456 475 q 412 449 427 458 q 383 432 396 439 q 361 417 370 424 q 353 408 353 411 q 366 391 353 402 q 396 367 380 380 q 427 341 413 354 q 440 318 440 328 q 434 276 440 307 q 418 203 428 245 q 398 114 409 161 q 378 23 388 66 q 363 -55 369 -20 q 357 -107 357 -90 q 372 -125 357 -115 q 407 -147 387 -136 q 449 -167 427 -158 q 484 -180 470 -176 l 433 -273 z "},"|":{"ha":454,"x_min":76,"x_max":510,"o":"m 510 1070 l 178 -266 l 76 -266 l 408 1070 l 510 1070 z "},"}":{"ha":665,"x_min":22,"x_max":597,"o":"m 366 1090 q 421 1074 391 1083 q 477 1053 450 1064 q 525 1030 504 1042 q 553 1007 545 1018 q 559 966 559 996 q 554 898 559 938 q 541 812 549 857 q 524 720 533 766 q 506 633 514 673 q 493 564 498 593 q 488 523 488 534 q 505 499 488 515 q 542 468 522 484 q 580 435 563 451 q 597 412 597 420 q 586 396 597 406 q 560 377 576 387 q 524 355 544 366 q 487 333 505 344 q 454 314 469 323 q 433 299 439 305 q 422 274 429 295 q 405 221 415 254 q 384 149 395 189 q 359 67 372 109 q 332 -17 346 24 q 305 -94 319 -58 q 279 -154 292 -129 q 254 -189 266 -179 q 215 -212 241 -201 q 156 -235 188 -224 q 89 -256 123 -246 q 26 -273 55 -266 l 22 -180 q 65 -165 41 -174 q 114 -148 90 -157 q 156 -129 137 -138 q 182 -113 175 -120 q 195 -86 187 -107 q 213 -36 203 -66 q 233 32 222 -5 q 253 107 243 68 q 274 182 264 145 q 292 248 283 218 q 307 297 300 277 q 317 322 314 317 q 334 336 322 328 q 360 353 345 344 q 390 370 374 361 q 418 387 405 379 q 439 400 431 394 q 448 409 448 406 q 434 427 448 415 q 404 451 420 438 q 374 477 387 465 q 360 500 360 490 q 366 541 360 511 q 381 610 372 570 q 401 697 391 650 q 421 787 412 743 q 437 868 431 831 q 443 926 443 905 q 428 945 443 935 q 391 965 412 955 q 349 984 370 975 q 316 997 328 992 l 366 1090 z "},"~":{"ha":743,"x_min":35,"x_max":793,"o":"m 35 250 q 59 309 42 280 q 100 359 75 337 q 155 395 124 382 q 224 409 186 409 q 294 404 261 409 q 358 391 328 399 q 419 374 389 383 q 482 357 450 365 q 549 344 514 349 q 623 339 583 339 q 661 345 644 339 q 689 361 677 351 q 709 382 701 370 q 722 406 717 394 l 793 406 q 767 343 785 374 q 725 290 750 313 q 666 253 699 267 q 592 239 633 239 q 481 250 534 239 q 381 274 429 261 q 289 298 334 288 q 199 309 243 309 q 137 292 159 309 q 106 250 115 274 l 35 250 z "},"":{"ha":946,"x_min":-14,"x_max":948,"o":"m 349 359 l 693 359 l 640 841 l 349 359 m 704 256 l 286 256 l 132 0 l -14 0 q 16 42 1 20 q 48 92 31 64 q 89 154 66 119 q 140 236 111 189 l 594 970 l 740 970 l 828 236 q 839 155 833 190 q 848 92 844 119 q 857 42 852 64 q 865 0 861 20 l 732 0 l 704 256 m 663 1199 q 655 1160 663 1179 q 632 1127 646 1141 q 598 1104 617 1113 q 557 1096 578 1096 q 527 1102 541 1096 q 503 1119 513 1108 q 487 1143 493 1129 q 481 1173 481 1157 q 489 1209 481 1191 q 510 1242 496 1227 q 544 1266 524 1257 q 588 1275 564 1275 q 618 1269 604 1275 q 642 1253 632 1263 q 658 1229 652 1242 q 663 1199 663 1215 m 948 1199 q 940 1160 948 1179 q 917 1127 931 1141 q 883 1104 902 1113 q 842 1096 863 1096 q 811 1102 825 1096 q 788 1119 798 1108 q 772 1143 778 1129 q 766 1173 766 1157 q 774 1209 766 1191 q 795 1242 781 1227 q 829 1266 809 1257 q 873 1275 848 1275 q 903 1269 889 1275 q 927 1253 917 1263 q 943 1229 937 1242 q 948 1199 948 1215 z "},"":{"ha":946,"x_min":-14,"x_max":865,"o":"m 349 359 l 693 359 l 640 841 l 349 359 m 704 256 l 286 256 l 132 0 l -14 0 q 16 42 1 20 q 48 92 31 64 q 89 154 66 119 q 140 236 111 189 l 594 970 l 740 970 l 828 236 q 839 155 833 190 q 848 92 844 119 q 857 42 852 64 q 865 0 861 20 l 732 0 l 704 256 m 557 1187 q 571 1251 557 1220 q 611 1304 586 1281 q 668 1341 635 1327 q 735 1355 700 1355 q 784 1346 762 1355 q 822 1321 806 1337 q 847 1283 838 1305 q 857 1237 857 1261 q 842 1173 857 1204 q 802 1120 827 1143 q 745 1083 777 1097 q 677 1069 713 1069 q 629 1079 651 1069 q 591 1104 607 1088 q 566 1141 575 1120 q 557 1187 557 1162 m 690 1145 q 722 1152 706 1145 q 750 1170 738 1158 q 770 1197 762 1181 q 777 1231 777 1213 q 763 1265 777 1253 q 723 1278 749 1278 q 691 1272 707 1278 q 663 1254 675 1265 q 644 1227 651 1242 q 636 1193 636 1211 q 650 1158 636 1171 q 690 1145 664 1145 z "},"":{"ha":909,"x_min":125,"x_max":1010,"o":"m 834 86 q 756 40 798 59 q 669 8 714 20 q 576 -11 623 -5 q 498 -17 536 -16 l 486 -63 q 501 -61 494 -62 q 520 -60 509 -60 q 581 -84 559 -60 q 602 -147 602 -109 q 583 -217 602 -186 q 533 -271 564 -249 q 464 -306 502 -294 q 389 -319 426 -319 q 342 -311 362 -319 q 304 -292 321 -304 l 327 -226 q 354 -241 339 -237 q 390 -246 368 -246 q 426 -241 407 -246 q 462 -227 446 -237 q 489 -201 478 -216 q 500 -165 500 -186 q 486 -132 500 -144 q 448 -119 471 -119 q 414 -124 431 -119 q 383 -136 396 -130 l 414 -12 q 331 10 370 -5 q 219 86 265 38 q 150 202 174 135 q 125 348 125 269 q 150 532 125 446 q 217 688 174 617 q 316 815 259 760 q 439 908 374 870 q 576 967 505 947 q 718 987 648 987 q 794 981 754 987 q 874 962 835 975 q 949 931 913 950 q 1010 887 984 912 l 939 768 q 893 814 920 794 q 836 847 867 833 q 770 867 804 861 q 703 874 736 874 q 592 857 647 874 q 488 806 537 839 q 398 727 439 774 q 326 624 356 681 q 278 500 295 567 q 261 361 261 434 q 279 255 261 302 q 331 172 298 207 q 410 119 364 138 q 510 100 455 100 q 602 109 556 100 q 690 133 648 117 q 770 170 732 149 q 839 216 808 191 l 834 86 z "},"":{"ha":773,"x_min":68,"x_max":968,"o":"m 733 562 l 707 455 l 320 455 l 234 110 l 413 110 q 583 111 514 110 q 694 119 651 113 l 665 0 l 68 0 q 105 115 85 40 q 150 289 125 190 l 248 682 q 290 855 272 780 q 309 970 307 930 l 886 970 l 859 861 l 421 861 l 347 562 l 733 562 m 968 1355 l 626 1069 l 511 1069 l 799 1355 l 968 1355 z "},"":{"ha":1004,"x_min":61,"x_max":1099,"o":"m 385 783 l 190 0 l 61 0 q 99 115 79 40 q 143 289 119 190 l 241 682 q 283 855 265 780 q 302 970 300 930 l 431 970 l 775 184 l 970 970 l 1099 970 q 1062 855 1082 930 q 1017 682 1042 781 l 848 0 l 729 0 l 385 783 m 470 1093 q 494 1152 477 1123 q 533 1204 511 1181 q 584 1241 556 1227 q 642 1255 611 1255 q 694 1245 670 1255 q 750 1221 718 1234 q 805 1198 783 1206 q 848 1189 826 1189 q 871 1194 860 1189 q 891 1207 882 1199 q 907 1226 900 1215 q 919 1249 914 1237 l 990 1249 q 965 1187 982 1217 q 926 1135 949 1158 q 874 1099 903 1113 q 814 1086 846 1086 q 762 1095 787 1086 q 709 1118 737 1103 q 653 1144 675 1135 q 613 1152 632 1152 q 569 1135 588 1152 q 541 1093 550 1117 l 470 1093 z "},"":{"ha":981,"x_min":125,"x_max":1012,"o":"m 1012 631 q 990 457 1012 541 q 929 302 968 374 q 837 171 890 230 q 721 70 783 112 q 590 6 659 28 q 452 -17 522 -17 q 325 7 384 -17 q 221 76 265 31 q 151 188 176 122 q 125 339 125 254 q 148 513 125 430 q 209 669 170 597 q 301 799 248 741 q 417 900 355 858 q 549 964 479 941 q 688 987 618 987 q 814 963 755 987 q 917 893 873 939 q 986 782 961 848 q 1012 631 1012 715 m 488 100 q 601 122 548 100 q 696 181 653 144 q 773 269 739 218 q 829 375 806 319 q 864 490 852 431 q 876 605 876 549 q 860 715 876 666 q 815 799 844 764 q 745 852 787 833 q 653 871 704 871 q 540 849 593 871 q 444 790 488 827 q 367 703 401 753 q 310 597 333 653 q 274 482 286 541 q 262 367 262 422 q 277 256 262 306 q 322 172 293 207 q 394 118 352 137 q 488 100 435 100 m 684 1199 q 675 1160 684 1179 q 652 1127 667 1141 q 618 1104 637 1113 q 577 1096 599 1096 q 547 1102 561 1096 q 523 1119 533 1108 q 508 1143 513 1129 q 502 1173 502 1157 q 509 1209 502 1191 q 531 1242 517 1227 q 564 1266 545 1257 q 608 1275 584 1275 q 638 1269 625 1275 q 663 1253 652 1263 q 678 1229 673 1242 q 684 1199 684 1215 m 968 1199 q 960 1160 968 1179 q 937 1127 951 1141 q 903 1104 922 1113 q 862 1096 884 1096 q 832 1102 846 1096 q 808 1119 818 1108 q 792 1143 798 1129 q 787 1173 787 1157 q 794 1209 787 1191 q 815 1242 802 1227 q 849 1266 829 1257 q 893 1275 869 1275 q 923 1269 909 1275 q 947 1253 937 1263 q 963 1229 958 1242 q 968 1199 968 1215 z "},"":{"ha":963,"x_min":155,"x_max":1052,"o":"m 1052 970 q 1016 857 1036 930 q 970 682 996 785 l 881 326 q 825 185 861 248 q 735 77 789 122 q 606 8 680 33 q 436 -17 532 -17 q 308 5 361 -17 q 221 64 255 26 q 171 151 187 101 q 155 257 155 201 q 170 374 155 313 l 248 682 q 290 855 273 781 q 309 970 307 930 l 448 970 l 304 395 q 290 328 295 361 q 286 265 286 296 q 294 196 286 228 q 324 140 303 163 q 378 103 345 117 q 463 90 412 90 q 654 158 581 90 q 764 372 728 227 l 913 970 l 1052 970 m 677 1199 q 668 1160 677 1179 q 645 1127 660 1141 q 611 1104 631 1113 q 570 1096 592 1096 q 540 1102 554 1096 q 516 1119 526 1108 q 501 1143 507 1129 q 495 1173 495 1157 q 503 1209 495 1191 q 524 1242 510 1227 q 557 1266 538 1257 q 602 1275 577 1275 q 632 1269 618 1275 q 656 1253 646 1263 q 671 1229 666 1242 q 677 1199 677 1215 m 962 1199 q 953 1160 962 1179 q 930 1127 945 1141 q 896 1104 916 1113 q 855 1096 877 1096 q 825 1102 839 1096 q 801 1119 811 1108 q 786 1143 791 1129 q 780 1173 780 1157 q 787 1209 780 1191 q 809 1242 795 1227 q 842 1266 823 1257 q 886 1275 862 1275 q 917 1269 903 1275 q 941 1253 930 1263 q 956 1229 951 1242 q 962 1199 962 1215 z "},"":{"ha":671,"x_min":94,"x_max":730,"o":"m 613 56 q 554 24 583 37 q 495 1 525 10 q 431 -12 465 -8 q 382 -16 408 -16 l 371 -63 q 386 -61 378 -62 q 405 -60 393 -60 q 465 -84 444 -60 q 487 -147 487 -109 q 468 -217 487 -186 q 417 -271 448 -249 q 349 -306 387 -294 q 273 -319 311 -319 q 227 -311 247 -319 q 189 -292 206 -304 l 212 -226 q 238 -241 224 -237 q 275 -246 253 -246 q 311 -241 292 -246 q 347 -227 330 -237 q 374 -201 363 -216 q 385 -165 385 -186 q 370 -132 385 -144 q 332 -119 356 -119 q 298 -124 316 -119 q 268 -136 281 -130 l 299 -11 q 255 2 277 -6 q 171 57 207 21 q 115 143 135 92 q 94 258 94 195 q 128 428 94 349 q 221 566 161 507 q 361 658 280 624 q 535 692 441 692 q 592 688 564 692 q 646 676 621 684 q 693 657 671 668 q 730 635 715 647 l 677 515 q 597 565 639 548 q 503 582 556 582 q 390 554 441 582 q 302 483 339 527 q 245 384 265 439 q 224 275 224 330 q 236 199 224 233 q 270 142 248 165 q 324 105 292 118 q 395 93 355 93 q 512 114 457 93 q 622 173 568 134 l 613 56 z "},"":{"ha":707,"x_min":93,"x_max":874,"o":"m 488 591 q 413 578 450 591 q 342 542 375 566 q 282 484 309 517 q 238 408 255 450 q 306 402 275 404 q 366 400 338 400 q 467 409 423 400 q 540 432 511 417 q 584 467 569 446 q 599 511 599 487 q 590 543 599 528 q 567 569 582 558 q 532 585 553 579 q 488 591 512 591 m 648 56 q 587 29 621 42 q 516 5 554 16 q 438 -11 479 -5 q 355 -17 397 -17 q 238 4 288 -17 q 156 61 189 24 q 109 148 124 98 q 93 258 93 199 q 107 367 93 313 q 148 470 121 421 q 213 559 175 518 q 299 629 252 600 q 404 675 347 659 q 524 692 460 692 q 617 678 578 692 q 682 642 656 664 q 719 591 707 619 q 730 536 730 564 q 711 449 730 490 q 650 375 692 407 q 543 326 608 344 q 386 307 478 307 q 217 319 313 307 q 215 285 215 302 q 224 210 215 245 q 254 148 233 174 q 306 107 274 122 q 385 92 338 92 q 454 98 418 92 q 525 117 490 104 q 594 146 560 129 q 656 183 627 163 l 648 56 m 874 1063 l 532 778 l 417 778 l 705 1063 l 874 1063 z "},"":{"ha":707,"x_min":93,"x_max":730,"o":"m 488 591 q 413 578 450 591 q 342 542 375 566 q 282 484 309 517 q 238 408 255 450 q 306 402 275 404 q 366 400 338 400 q 467 409 423 400 q 540 432 511 417 q 584 467 569 446 q 599 511 599 487 q 590 543 599 528 q 567 569 582 558 q 532 585 553 579 q 488 591 512 591 m 648 56 q 587 29 621 42 q 516 5 554 16 q 438 -11 479 -5 q 355 -17 397 -17 q 238 4 288 -17 q 156 61 189 24 q 109 148 124 98 q 93 258 93 199 q 107 367 93 313 q 148 470 121 421 q 213 559 175 518 q 299 629 252 600 q 404 675 347 659 q 524 692 460 692 q 617 678 578 692 q 682 642 656 664 q 719 591 707 619 q 730 536 730 564 q 711 449 730 490 q 650 375 692 407 q 543 326 608 344 q 386 307 478 307 q 217 319 313 307 q 215 285 215 302 q 224 210 215 245 q 254 148 233 174 q 306 107 274 122 q 385 92 338 92 q 454 98 418 92 q 525 117 490 104 q 594 146 560 129 q 656 183 627 163 l 648 56 m 481 1063 l 668 778 l 566 778 l 339 1063 l 481 1063 z "},"":{"ha":707,"x_min":93,"x_max":803,"o":"m 488 591 q 413 578 450 591 q 342 542 375 566 q 282 484 309 517 q 238 408 255 450 q 306 402 275 404 q 366 400 338 400 q 467 409 423 400 q 540 432 511 417 q 584 467 569 446 q 599 511 599 487 q 590 543 599 528 q 567 569 582 558 q 532 585 553 579 q 488 591 512 591 m 648 56 q 587 29 621 42 q 516 5 554 16 q 438 -11 479 -5 q 355 -17 397 -17 q 238 4 288 -17 q 156 61 189 24 q 109 148 124 98 q 93 258 93 199 q 107 367 93 313 q 148 470 121 421 q 213 559 175 518 q 299 629 252 600 q 404 675 347 659 q 524 692 460 692 q 617 678 578 692 q 682 642 656 664 q 719 591 707 619 q 730 536 730 564 q 711 449 730 490 q 650 375 692 407 q 543 326 608 344 q 386 307 478 307 q 217 319 313 307 q 215 285 215 302 q 224 210 215 245 q 254 148 233 174 q 306 107 274 122 q 385 92 338 92 q 454 98 418 92 q 525 117 490 104 q 594 146 560 129 q 656 183 627 163 l 648 56 m 227 778 l 515 1063 l 631 1063 l 803 778 l 702 778 l 562 964 l 329 778 l 227 778 z "},"":{"ha":707,"x_min":93,"x_max":795,"o":"m 488 591 q 413 578 450 591 q 342 542 375 566 q 282 484 309 517 q 238 408 255 450 q 306 402 275 404 q 366 400 338 400 q 467 409 423 400 q 540 432 511 417 q 584 467 569 446 q 599 511 599 487 q 590 543 599 528 q 567 569 582 558 q 532 585 553 579 q 488 591 512 591 m 648 56 q 587 29 621 42 q 516 5 554 16 q 438 -11 479 -5 q 355 -17 397 -17 q 238 4 288 -17 q 156 61 189 24 q 109 148 124 98 q 93 258 93 199 q 107 367 93 313 q 148 470 121 421 q 213 559 175 518 q 299 629 252 600 q 404 675 347 659 q 524 692 460 692 q 617 678 578 692 q 682 642 656 664 q 719 591 707 619 q 730 536 730 564 q 711 449 730 490 q 650 375 692 407 q 543 326 608 344 q 386 307 478 307 q 217 319 313 307 q 215 285 215 302 q 224 210 215 245 q 254 148 233 174 q 306 107 274 122 q 385 92 338 92 q 454 98 418 92 q 525 117 490 104 q 594 146 560 129 q 656 183 627 163 l 648 56 m 511 907 q 502 868 511 887 q 479 836 494 850 q 445 813 465 821 q 404 804 426 804 q 374 810 388 804 q 350 827 360 817 q 335 851 340 838 q 329 881 329 865 q 336 918 329 899 q 358 950 344 936 q 391 974 372 965 q 435 983 411 983 q 466 977 452 983 q 490 961 479 971 q 505 937 500 951 q 511 907 511 923 m 795 907 q 787 868 795 887 q 764 836 779 850 q 730 813 749 821 q 689 804 711 804 q 659 810 673 804 q 635 827 645 817 q 620 851 625 838 q 614 881 614 865 q 621 918 614 899 q 643 950 629 936 q 676 974 656 965 q 720 983 696 983 q 750 977 736 983 q 774 961 764 971 q 790 937 785 951 q 795 907 795 923 z "},"":{"ha":376,"x_min":112,"x_max":682,"o":"m 356 678 q 350 621 356 656 q 335 543 345 585 q 315 455 326 501 q 292 363 304 408 l 262 242 q 248 168 252 206 q 244 92 244 129 q 247 43 244 66 q 252 0 249 19 l 117 0 q 112 59 112 23 q 119 156 112 102 q 140 263 127 210 l 167 364 q 188 446 177 403 q 207 530 199 488 q 221 611 216 572 q 227 678 227 649 l 356 678 m 682 1063 l 340 778 l 224 778 l 513 1063 l 682 1063 z "},"":{"ha":376,"x_min":112,"x_max":475,"o":"m 356 678 q 350 621 356 656 q 335 543 345 585 q 315 455 326 501 q 292 363 304 408 l 262 242 q 248 168 252 206 q 244 92 244 129 q 247 43 244 66 q 252 0 249 19 l 117 0 q 112 59 112 23 q 119 156 112 102 q 140 263 127 210 l 167 364 q 188 446 177 403 q 207 530 199 488 q 221 611 216 572 q 227 678 227 649 l 356 678 m 289 1063 l 475 778 l 374 778 l 146 1063 l 289 1063 z "},"":{"ha":376,"x_min":35,"x_max":610,"o":"m 356 678 q 350 621 356 656 q 335 543 345 585 q 315 455 326 501 q 292 363 304 408 l 262 242 q 248 168 252 206 q 244 92 244 129 q 247 43 244 66 q 252 0 249 19 l 117 0 q 112 59 112 23 q 119 156 112 102 q 140 263 127 210 l 167 364 q 188 446 177 403 q 207 530 199 488 q 221 611 216 572 q 227 678 227 649 l 356 678 m 35 778 l 323 1063 l 438 1063 l 610 778 l 509 778 l 370 964 l 136 778 l 35 778 z "},"":{"ha":376,"x_min":112,"x_max":603,"o":"m 356 678 q 350 621 356 656 q 335 543 345 585 q 315 455 326 501 q 292 363 304 408 l 262 242 q 248 168 252 206 q 244 92 244 129 q 247 43 244 66 q 252 0 249 19 l 117 0 q 112 59 112 23 q 119 156 112 102 q 140 263 127 210 l 167 364 q 188 446 177 403 q 207 530 199 488 q 221 611 216 572 q 227 678 227 649 l 356 678 m 318 907 q 310 868 318 887 q 287 836 301 850 q 253 813 272 821 q 212 804 233 804 q 181 810 195 804 q 158 827 168 817 q 142 851 148 838 q 136 881 136 865 q 144 918 136 899 q 165 950 151 936 q 199 974 179 965 q 243 983 218 983 q 273 977 259 983 q 297 961 287 971 q 313 937 307 951 q 318 907 318 923 m 603 907 q 594 868 603 887 q 571 836 586 850 q 537 813 557 821 q 496 804 518 804 q 466 810 480 804 q 443 827 452 817 q 427 851 433 838 q 421 881 421 865 q 429 918 421 899 q 450 950 436 936 q 484 974 464 965 q 528 983 503 983 q 558 977 544 983 q 582 961 572 971 q 597 937 592 951 q 603 907 603 923 z "},"":{"ha":810,"x_min":78,"x_max":825,"o":"m 593 0 q 590 24 591 11 q 588 52 588 37 q 589 93 588 72 q 593 138 591 115 q 602 185 595 157 q 615 243 608 212 q 631 307 623 274 q 646 368 639 339 q 657 422 652 397 q 661 461 661 446 q 637 549 661 522 q 566 576 613 576 q 518 562 545 576 q 463 523 492 547 q 406 465 435 498 q 350 396 376 433 q 302 323 324 360 q 266 251 280 286 l 203 0 l 78 0 l 178 404 q 187 454 183 425 q 194 516 191 484 q 199 584 197 549 q 200 652 200 619 l 200 678 l 322 678 q 323 665 323 672 q 323 649 323 657 q 322 601 323 627 q 317 548 320 575 q 310 497 314 522 q 302 456 307 473 q 375 549 336 506 q 457 624 414 593 q 544 674 499 656 q 634 692 588 692 q 758 642 718 692 q 797 505 797 593 q 792 458 797 487 q 779 397 787 430 q 762 328 771 363 q 744 261 753 293 q 729 203 736 229 q 720 161 722 176 q 714 113 717 136 q 712 69 712 90 q 713 33 712 50 q 719 0 715 16 l 593 0 m 304 801 q 329 861 312 831 q 368 912 345 890 q 418 949 391 935 q 476 964 446 964 q 529 953 505 964 q 585 929 553 943 q 639 906 618 915 q 682 897 661 897 q 705 902 694 897 q 725 916 716 907 q 742 935 734 924 q 753 957 749 945 l 825 957 q 800 896 817 925 q 760 844 783 866 q 709 808 737 821 q 649 794 680 794 q 597 803 622 794 q 544 826 572 812 q 488 852 509 844 q 448 861 467 861 q 404 843 422 861 q 376 801 385 825 l 304 801 z "},"":{"ha":768,"x_min":96,"x_max":875,"o":"m 489 585 q 381 554 429 585 q 298 477 332 524 q 244 371 263 429 q 226 258 226 313 q 237 187 226 218 q 268 134 248 156 q 316 101 288 113 q 379 90 344 90 q 454 103 419 90 q 518 140 489 117 q 571 196 548 164 q 609 264 593 228 q 634 338 625 300 q 642 414 642 377 q 631 486 642 454 q 601 539 621 517 q 552 573 581 561 q 489 585 524 585 m 96 233 q 110 346 96 290 q 149 452 123 401 q 211 547 174 503 q 295 623 248 591 q 397 673 341 655 q 516 692 452 692 q 620 674 573 692 q 701 625 667 657 q 753 545 734 592 q 772 439 772 498 q 759 327 772 382 q 720 220 745 271 q 659 126 695 170 q 577 51 623 83 q 476 1 531 19 q 359 -17 421 -17 q 254 0 302 -17 q 171 50 206 18 q 116 129 136 82 q 96 233 96 175 m 875 1063 l 533 778 l 418 778 l 706 1063 l 875 1063 z "},"":{"ha":768,"x_min":96,"x_max":772,"o":"m 489 585 q 381 554 429 585 q 298 477 332 524 q 244 371 263 429 q 226 258 226 313 q 237 187 226 218 q 268 134 248 156 q 316 101 288 113 q 379 90 344 90 q 454 103 419 90 q 518 140 489 117 q 571 196 548 164 q 609 264 593 228 q 634 338 625 300 q 642 414 642 377 q 631 486 642 454 q 601 539 621 517 q 552 573 581 561 q 489 585 524 585 m 96 233 q 110 346 96 290 q 149 452 123 401 q 211 547 174 503 q 295 623 248 591 q 397 673 341 655 q 516 692 452 692 q 620 674 573 692 q 701 625 667 657 q 753 545 734 592 q 772 439 772 498 q 759 327 772 382 q 720 220 745 271 q 659 126 695 170 q 577 51 623 83 q 476 1 531 19 q 359 -17 421 -17 q 254 0 302 -17 q 171 50 206 18 q 116 129 136 82 q 96 233 96 175 m 482 1063 l 669 778 l 567 778 l 340 1063 l 482 1063 z "},"":{"ha":768,"x_min":96,"x_max":804,"o":"m 489 585 q 381 554 429 585 q 298 477 332 524 q 244 371 263 429 q 226 258 226 313 q 237 187 226 218 q 268 134 248 156 q 316 101 288 113 q 379 90 344 90 q 454 103 419 90 q 518 140 489 117 q 571 196 548 164 q 609 264 593 228 q 634 338 625 300 q 642 414 642 377 q 631 486 642 454 q 601 539 621 517 q 552 573 581 561 q 489 585 524 585 m 96 233 q 110 346 96 290 q 149 452 123 401 q 211 547 174 503 q 295 623 248 591 q 397 673 341 655 q 516 692 452 692 q 620 674 573 692 q 701 625 667 657 q 753 545 734 592 q 772 439 772 498 q 759 327 772 382 q 720 220 745 271 q 659 126 695 170 q 577 51 623 83 q 476 1 531 19 q 359 -17 421 -17 q 254 0 302 -17 q 171 50 206 18 q 116 129 136 82 q 96 233 96 175 m 228 778 l 516 1063 l 631 1063 l 804 778 l 703 778 l 563 964 l 330 778 l 228 778 z "},"":{"ha":768,"x_min":96,"x_max":796,"o":"m 489 585 q 381 554 429 585 q 298 477 332 524 q 244 371 263 429 q 226 258 226 313 q 237 187 226 218 q 268 134 248 156 q 316 101 288 113 q 379 90 344 90 q 454 103 419 90 q 518 140 489 117 q 571 196 548 164 q 609 264 593 228 q 634 338 625 300 q 642 414 642 377 q 631 486 642 454 q 601 539 621 517 q 552 573 581 561 q 489 585 524 585 m 96 233 q 110 346 96 290 q 149 452 123 401 q 211 547 174 503 q 295 623 248 591 q 397 673 341 655 q 516 692 452 692 q 620 674 573 692 q 701 625 667 657 q 753 545 734 592 q 772 439 772 498 q 759 327 772 382 q 720 220 745 271 q 659 126 695 170 q 577 51 623 83 q 476 1 531 19 q 359 -17 421 -17 q 254 0 302 -17 q 171 50 206 18 q 116 129 136 82 q 96 233 96 175 m 511 907 q 503 868 511 887 q 480 836 494 850 q 446 813 465 821 q 405 804 427 804 q 375 810 389 804 q 351 827 361 817 q 335 851 341 838 q 330 881 330 865 q 337 918 330 899 q 358 950 345 936 q 392 974 372 965 q 436 983 412 983 q 466 977 452 983 q 490 961 480 971 q 506 937 500 951 q 511 907 511 923 m 796 907 q 788 868 796 887 q 765 836 779 850 q 731 813 750 821 q 690 804 711 804 q 660 810 673 804 q 636 827 646 817 q 620 851 626 838 q 614 881 614 865 q 622 918 614 899 q 643 950 629 936 q 677 974 657 965 q 721 983 696 983 q 751 977 737 983 q 775 961 765 971 q 791 937 785 951 q 796 907 796 923 z "},"":{"ha":768,"x_min":96,"x_max":804,"o":"m 489 585 q 381 554 429 585 q 298 477 332 524 q 244 371 263 429 q 226 258 226 313 q 237 187 226 218 q 268 134 248 156 q 316 101 288 113 q 379 90 344 90 q 454 103 419 90 q 518 140 489 117 q 571 196 548 164 q 609 264 593 228 q 634 338 625 300 q 642 414 642 377 q 631 486 642 454 q 601 539 621 517 q 552 573 581 561 q 489 585 524 585 m 96 233 q 110 346 96 290 q 149 452 123 401 q 211 547 174 503 q 295 623 248 591 q 397 673 341 655 q 516 692 452 692 q 620 674 573 692 q 701 625 667 657 q 753 545 734 592 q 772 439 772 498 q 759 327 772 382 q 720 220 745 271 q 659 126 695 170 q 577 51 623 83 q 476 1 531 19 q 359 -17 421 -17 q 254 0 302 -17 q 171 50 206 18 q 116 129 136 82 q 96 233 96 175 m 284 801 q 308 861 292 831 q 348 912 325 890 q 398 949 370 935 q 456 964 425 964 q 508 953 484 964 q 564 929 532 943 q 619 906 597 915 q 662 897 640 897 q 685 902 674 897 q 705 916 696 907 q 721 935 714 924 q 733 957 728 945 l 804 957 q 780 896 796 925 q 740 844 763 866 q 688 808 717 821 q 629 794 660 794 q 576 803 602 794 q 524 826 551 812 q 468 852 489 844 q 427 861 446 861 q 383 843 402 861 q 355 801 364 825 l 284 801 z "},"":{"ha":797,"x_min":115,"x_max":888,"o":"m 583 0 q 585 101 583 50 q 597 207 587 151 q 522 118 562 159 q 439 47 481 77 q 355 0 397 18 q 278 -17 314 -17 q 158 25 200 -17 q 115 153 115 68 q 120 207 115 178 q 132 268 124 235 l 180 465 q 193 522 187 496 q 204 573 199 548 q 213 623 210 597 q 220 678 217 648 l 353 678 q 339 592 350 640 q 311 476 329 545 q 266 299 285 373 q 248 190 248 224 q 268 115 248 139 q 322 92 288 92 q 363 104 338 92 q 416 139 388 117 q 474 190 444 161 q 532 251 505 218 q 584 317 560 283 q 624 383 608 351 q 647 476 637 435 q 666 552 658 517 q 678 618 673 587 q 685 678 683 648 l 817 678 q 807 613 815 652 q 787 526 799 574 q 761 423 775 478 q 732 309 747 368 q 710 186 719 250 q 702 68 702 122 q 703 32 702 48 q 705 0 703 15 l 583 0 m 888 1063 l 546 778 l 431 778 l 719 1063 l 888 1063 z "},"":{"ha":797,"x_min":115,"x_max":817,"o":"m 583 0 q 585 101 583 50 q 597 207 587 151 q 522 118 562 159 q 439 47 481 77 q 355 0 397 18 q 278 -17 314 -17 q 158 25 200 -17 q 115 153 115 68 q 120 207 115 178 q 132 268 124 235 l 180 465 q 193 522 187 496 q 204 573 199 548 q 213 623 210 597 q 220 678 217 648 l 353 678 q 339 592 350 640 q 311 476 329 545 q 266 299 285 373 q 248 190 248 224 q 268 115 248 139 q 322 92 288 92 q 363 104 338 92 q 416 139 388 117 q 474 190 444 161 q 532 251 505 218 q 584 317 560 283 q 624 383 608 351 q 647 476 637 435 q 666 552 658 517 q 678 618 673 587 q 685 678 683 648 l 817 678 q 807 613 815 652 q 787 526 799 574 q 761 423 775 478 q 732 309 747 368 q 710 186 719 250 q 702 68 702 122 q 703 32 702 48 q 705 0 703 15 l 583 0 m 495 1063 l 682 778 l 580 778 l 353 1063 l 495 1063 z "},"":{"ha":797,"x_min":115,"x_max":817,"o":"m 583 0 q 585 101 583 50 q 597 207 587 151 q 522 118 562 159 q 439 47 481 77 q 355 0 397 18 q 278 -17 314 -17 q 158 25 200 -17 q 115 153 115 68 q 120 207 115 178 q 132 268 124 235 l 180 465 q 193 522 187 496 q 204 573 199 548 q 213 623 210 597 q 220 678 217 648 l 353 678 q 339 592 350 640 q 311 476 329 545 q 266 299 285 373 q 248 190 248 224 q 268 115 248 139 q 322 92 288 92 q 363 104 338 92 q 416 139 388 117 q 474 190 444 161 q 532 251 505 218 q 584 317 560 283 q 624 383 608 351 q 647 476 637 435 q 666 552 658 517 q 678 618 673 587 q 685 678 683 648 l 817 678 q 807 613 815 652 q 787 526 799 574 q 761 423 775 478 q 732 309 747 368 q 710 186 719 250 q 702 68 702 122 q 703 32 702 48 q 705 0 703 15 l 583 0 m 241 778 l 529 1063 l 644 1063 l 817 778 l 715 778 l 576 964 l 342 778 l 241 778 z "},"":{"ha":797,"x_min":115,"x_max":817,"o":"m 583 0 q 585 101 583 50 q 597 207 587 151 q 522 118 562 159 q 439 47 481 77 q 355 0 397 18 q 278 -17 314 -17 q 158 25 200 -17 q 115 153 115 68 q 120 207 115 178 q 132 268 124 235 l 180 465 q 193 522 187 496 q 204 573 199 548 q 213 623 210 597 q 220 678 217 648 l 353 678 q 339 592 350 640 q 311 476 329 545 q 266 299 285 373 q 248 190 248 224 q 268 115 248 139 q 322 92 288 92 q 363 104 338 92 q 416 139 388 117 q 474 190 444 161 q 532 251 505 218 q 584 317 560 283 q 624 383 608 351 q 647 476 637 435 q 666 552 658 517 q 678 618 673 587 q 685 678 683 648 l 817 678 q 807 613 815 652 q 787 526 799 574 q 761 423 775 478 q 732 309 747 368 q 710 186 719 250 q 702 68 702 122 q 703 32 702 48 q 705 0 703 15 l 583 0 m 524 907 q 516 868 524 887 q 493 836 507 850 q 459 813 478 821 q 418 804 439 804 q 388 810 401 804 q 364 827 374 817 q 348 851 354 838 q 342 881 342 865 q 350 918 342 899 q 371 950 357 936 q 405 974 385 965 q 449 983 425 983 q 479 977 465 983 q 503 961 493 971 q 519 937 513 951 q 524 907 524 923 m 809 907 q 801 868 809 887 q 778 836 792 850 q 744 813 763 821 q 703 804 724 804 q 672 810 686 804 q 649 827 659 817 q 633 851 639 838 q 627 881 627 865 q 635 918 627 899 q 656 950 642 936 q 690 974 670 965 q 734 983 709 983 q 764 977 750 983 q 788 961 778 971 q 804 937 798 951 q 809 907 809 923 z "},"":{"ha":682,"x_min":129,"x_max":811,"o":"m 783 601 q 702 604 739 603 q 632 606 665 605 q 570 608 600 607 q 511 608 540 608 l 498 555 q 419 235 462 410 q 334 -156 377 60 l 201 -156 q 260 50 233 -48 q 311 235 288 147 q 354 403 334 323 q 392 555 374 482 l 406 608 q 346 608 376 608 q 282 606 316 607 q 211 604 249 605 q 129 601 174 603 l 157 711 q 237 707 200 709 q 307 706 274 706 q 370 705 340 705 q 429 705 399 705 q 463 857 446 779 q 491 1004 479 934 l 623 1004 q 577 857 600 934 q 535 705 555 779 q 600 705 570 705 q 662 706 630 705 q 729 707 693 706 q 811 711 765 709 l 783 601 z "},"":{"ha":420,"x_min":206,"x_max":555,"o":"m 206 789 q 223 864 206 828 q 270 927 241 900 q 336 970 298 954 q 415 987 374 987 q 471 977 446 987 q 515 948 497 966 q 544 905 534 930 q 555 852 555 881 q 538 778 555 814 q 492 714 521 742 q 425 671 463 687 q 346 654 387 654 q 290 665 315 654 q 245 693 264 675 q 217 736 227 711 q 206 789 206 761 m 358 731 q 400 740 379 731 q 438 764 421 749 q 465 800 454 779 q 475 843 475 820 q 455 892 475 873 q 403 911 435 911 q 361 902 382 911 q 324 878 340 893 q 297 842 307 863 q 286 800 286 822 q 306 750 286 770 q 358 731 326 731 z "},"":{"ha":800,"x_min":176,"x_max":789,"o":"m 303 311 q 330 209 303 252 q 406 149 357 166 l 518 598 q 450 575 482 592 q 391 531 418 558 q 344 465 364 503 q 312 378 324 427 q 305 344 307 361 q 303 311 303 327 m 676 878 l 633 705 q 724 686 684 701 q 789 652 764 672 l 738 538 q 606 598 682 587 l 492 138 q 584 160 542 141 q 673 214 627 180 l 659 103 q 610 75 633 87 q 565 54 588 63 q 518 41 543 45 q 466 34 494 36 l 422 -140 l 334 -140 l 378 38 q 297 69 334 47 q 233 125 260 92 q 191 202 205 159 q 176 297 176 246 q 179 340 176 319 q 187 386 182 362 q 236 506 203 451 q 315 602 269 561 q 419 670 361 644 q 545 703 477 696 l 588 878 l 676 878 z "},"":{"ha":800,"x_min":58,"x_max":799,"o":"m 202 555 l 274 555 q 286 624 279 590 q 300 688 292 657 q 351 819 319 762 q 426 912 383 875 q 522 968 469 949 q 635 987 575 987 q 679 984 655 987 q 724 975 702 981 q 766 960 747 968 q 799 941 786 951 l 743 841 q 717 857 733 850 q 684 870 701 865 q 648 878 666 876 q 616 881 631 881 q 556 872 584 881 q 504 843 528 863 q 461 791 479 823 q 432 714 443 760 q 416 638 423 679 q 403 555 409 597 l 616 555 l 592 458 l 389 458 q 376 380 382 418 q 361 309 369 342 q 318 198 345 247 q 241 110 290 149 l 379 110 q 557 111 480 110 q 677 119 634 113 l 648 0 l 58 0 l 79 86 q 125 119 102 100 q 168 160 149 138 q 202 207 187 182 q 223 260 216 233 q 243 357 235 307 q 260 458 252 408 l 178 458 l 202 555 z "},"":{"ha":681,"x_min":-25,"x_max":758,"o":"m 517 347 q 496 412 517 378 q 425 488 475 446 q 367 479 396 488 q 314 454 338 471 q 275 412 290 437 q 260 353 260 387 q 285 287 260 321 q 366 207 309 254 q 419 220 393 210 q 468 249 446 231 q 503 292 490 267 q 517 347 517 316 m 39 -117 q 81 -153 56 -137 q 134 -181 106 -170 q 191 -200 161 -193 q 247 -206 220 -206 q 302 -198 273 -206 q 355 -174 331 -190 q 395 -134 379 -157 q 410 -79 410 -110 q 399 -33 410 -56 q 369 14 389 -10 q 321 62 349 37 q 262 113 294 87 q 167 217 200 163 q 134 335 134 271 q 147 416 134 378 q 185 485 160 454 q 245 538 210 515 q 323 575 280 561 q 255 664 279 620 q 232 750 232 708 q 252 843 232 800 q 312 918 273 886 q 408 968 351 949 q 541 987 466 987 q 610 982 577 987 q 671 970 643 977 q 721 953 699 962 q 758 934 743 943 l 705 817 q 672 839 691 827 q 630 859 653 850 q 579 875 607 869 q 521 881 552 881 q 470 874 497 881 q 418 854 442 868 q 379 820 395 841 q 363 769 363 799 q 375 726 363 747 q 410 683 388 705 q 460 634 431 660 q 521 579 489 609 q 573 528 549 553 q 613 477 596 503 q 638 426 629 452 q 648 370 648 399 q 633 288 648 326 q 593 218 618 250 q 532 163 567 187 q 458 125 498 140 q 518 32 497 80 q 539 -64 539 -16 q 513 -169 539 -123 q 443 -248 486 -216 q 345 -296 400 -279 q 231 -313 289 -313 q 150 -307 189 -313 q 78 -290 111 -300 q 18 -266 44 -279 q -25 -236 -9 -252 l 39 -117 z "},"":{"ha":624,"x_min":246,"x_max":553,"o":"m 246 462 q 261 526 246 495 q 302 581 277 557 q 360 618 327 604 q 428 633 393 633 q 477 623 454 633 q 517 597 500 614 q 543 558 534 581 q 553 511 553 536 q 537 447 553 478 q 496 393 522 416 q 437 355 470 369 q 369 340 404 340 q 320 350 342 340 q 281 377 298 360 q 255 415 264 393 q 246 462 246 437 z "},"":{"ha":682,"x_min":170,"x_max":855,"o":"m 758 894 l 536 0 l 444 0 l 667 894 l 558 894 l 336 0 l 244 0 l 370 509 q 305 518 340 509 q 240 550 270 528 q 190 606 210 572 q 170 690 170 641 q 196 808 170 756 q 267 897 222 861 q 371 951 311 932 q 499 970 431 970 l 855 970 l 836 894 l 758 894 z "},"":{"ha":826,"x_min":47,"x_max":898,"o":"m 391 151 q 415 128 399 139 q 451 109 431 117 q 491 95 470 100 q 532 90 513 90 q 590 97 561 90 q 644 121 620 105 q 683 163 668 138 q 698 222 698 188 q 690 259 698 241 q 671 292 683 277 q 643 322 659 308 q 610 349 627 336 q 567 384 589 365 q 527 425 545 403 q 498 470 509 446 q 488 521 488 494 q 500 589 488 560 q 532 641 512 618 q 578 680 553 663 q 631 711 604 696 q 684 741 659 726 q 730 772 710 755 q 763 811 751 789 q 775 862 775 833 q 763 909 775 888 q 729 943 750 929 q 681 963 708 956 q 625 970 654 970 q 553 960 589 970 q 483 925 516 949 q 425 863 450 901 q 385 771 399 825 l 193 0 l 47 0 q 73 63 60 26 q 98 142 85 99 q 124 233 111 185 q 149 328 137 280 l 253 745 q 315 897 275 834 q 407 1000 355 960 q 518 1059 458 1040 q 640 1077 578 1077 q 755 1060 706 1077 q 835 1014 804 1042 q 882 950 867 986 q 898 876 898 913 q 877 775 898 814 q 824 711 856 736 q 755 668 792 685 q 687 635 719 652 q 634 596 655 618 q 613 540 613 574 q 623 507 613 522 q 648 477 633 492 q 681 449 663 463 q 715 422 699 435 q 757 384 737 404 q 791 340 777 363 q 814 292 806 317 q 823 237 823 266 q 796 127 823 174 q 726 47 770 79 q 625 -1 682 16 q 506 -17 568 -17 q 454 -13 481 -17 q 402 -1 427 -8 q 358 14 378 5 q 327 32 338 23 l 391 151 z "},"":{"ha":1108,"x_min":142,"x_max":1135,"o":"m 528 510 l 606 510 q 719 532 675 510 q 773 602 762 554 q 777 633 777 618 q 749 692 777 670 q 657 715 720 715 q 579 713 614 715 l 528 510 m 492 364 q 467 260 476 302 q 456 193 458 218 l 361 193 q 382 260 372 218 q 409 364 393 302 l 467 597 q 494 706 483 660 q 507 778 505 752 q 555 781 528 779 q 609 783 578 782 q 678 784 640 784 q 755 776 720 784 q 814 751 789 768 q 852 710 839 734 q 866 653 866 686 q 860 608 866 631 q 831 545 850 572 q 788 500 812 518 q 735 470 763 481 q 680 452 707 458 q 700 413 688 436 q 725 362 711 389 q 753 308 739 336 q 780 257 767 281 q 802 216 792 233 q 815 193 811 199 l 710 193 l 596 444 l 512 444 l 492 364 m 729 907 q 577 882 653 907 q 436 806 502 857 q 320 679 371 755 q 244 498 270 602 q 232 436 236 466 q 229 378 229 407 q 254 244 229 303 q 323 145 279 185 q 424 84 366 105 q 546 63 481 63 q 698 88 622 63 q 841 164 774 113 q 958 292 907 215 q 1034 471 1008 368 q 1050 590 1050 536 q 1024 725 1050 666 q 954 825 998 784 q 851 886 909 865 q 729 907 793 907 m 749 987 q 905 957 834 987 q 1027 873 976 926 q 1107 748 1078 821 q 1135 591 1135 676 q 1119 465 1135 530 q 1062 311 1098 380 q 980 189 1027 243 q 879 97 934 136 q 766 33 825 58 q 646 -5 707 7 q 526 -17 585 -17 q 367 12 438 -17 q 247 93 296 41 q 170 216 197 145 q 142 371 142 287 q 159 505 142 437 q 215 656 180 588 q 295 778 250 724 q 394 871 340 831 q 506 936 448 910 q 626 974 565 962 q 749 987 688 987 z "},"":{"ha":1132,"x_min":142,"x_max":1139,"o":"m 770 250 q 673 197 724 215 q 574 180 623 180 q 483 198 524 180 q 414 247 443 216 q 371 322 386 279 q 355 417 355 366 q 367 506 355 458 q 422 637 386 583 q 506 727 459 692 q 605 778 552 762 q 709 794 657 794 q 803 781 755 794 q 888 734 850 768 l 841 654 q 770 706 809 691 q 692 721 731 721 q 615 708 652 721 q 547 668 578 694 q 492 600 516 641 q 454 502 468 558 q 446 441 446 470 q 457 366 446 400 q 487 307 467 332 q 535 269 507 283 q 599 256 563 256 q 688 278 646 256 q 775 336 730 300 l 770 250 m 751 987 q 896 961 826 987 q 1020 887 966 936 q 1106 767 1074 838 q 1139 603 1139 695 q 1135 536 1139 570 q 1121 465 1131 502 q 1064 311 1100 380 q 982 189 1028 243 q 881 97 936 136 q 768 33 827 58 q 648 -5 709 7 q 528 -17 587 -17 q 381 8 451 -17 q 258 82 311 33 q 174 202 205 131 q 142 366 142 273 q 161 512 142 434 q 254 726 193 637 q 396 874 316 816 q 568 959 476 932 q 751 987 660 987 m 731 907 q 579 882 655 907 q 438 806 504 857 q 322 679 373 755 q 246 498 272 602 q 234 436 238 466 q 231 378 231 407 q 256 244 231 303 q 325 145 281 185 q 426 84 368 105 q 548 63 484 63 q 700 88 624 63 q 843 164 777 113 q 960 292 909 215 q 1036 471 1010 368 q 1052 590 1052 536 q 1026 725 1052 666 q 956 825 1000 784 q 853 886 911 865 q 731 907 795 907 z "},"":{"ha":1116,"x_min":224,"x_max":1216,"o":"m 1216 970 q 1165 731 1187 840 l 1146 637 q 1129 551 1137 591 q 1116 480 1121 511 q 1109 437 1110 450 l 1038 437 l 1135 869 l 876 437 l 802 437 l 756 869 l 637 437 l 566 437 q 581 480 571 450 q 603 551 591 511 q 629 637 615 591 l 656 731 q 725 970 688 840 l 808 970 l 854 512 l 1128 970 l 1216 970 m 672 970 l 655 901 q 612 907 633 906 q 566 909 591 909 l 478 909 l 399 595 q 377 500 386 541 q 368 437 369 458 l 280 437 q 302 500 290 458 q 327 595 313 541 l 406 909 l 317 909 q 271 907 293 909 q 224 901 248 906 l 241 970 l 672 970 z "},"":{"ha":380,"x_min":113,"x_max":570,"o":"m 570 1063 l 228 778 l 113 778 l 401 1063 l 570 1063 z "},"":{"ha":448,"x_min":136,"x_max":603,"o":"m 318 907 q 310 868 318 887 q 287 836 301 850 q 253 813 272 821 q 212 804 233 804 q 181 810 195 804 q 158 827 168 817 q 142 851 148 838 q 136 881 136 865 q 144 918 136 899 q 165 950 151 936 q 199 974 179 965 q 243 983 218 983 q 273 977 259 983 q 297 961 287 971 q 313 937 307 951 q 318 907 318 923 m 603 907 q 594 868 603 887 q 571 836 586 850 q 537 813 557 821 q 496 804 518 804 q 466 810 480 804 q 443 827 452 817 q 427 851 433 838 q 421 881 421 865 q 429 918 421 899 q 450 950 436 936 q 484 974 464 965 q 528 983 503 983 q 558 977 544 983 q 582 961 572 971 q 597 937 592 951 q 603 907 603 923 z "},"":{"ha":800,"x_min":107,"x_max":854,"o":"m 848 808 l 705 651 l 854 651 l 829 551 l 613 551 l 491 418 l 795 418 l 771 319 l 399 319 l 229 133 l 107 133 l 277 319 l 120 319 l 144 418 l 369 418 l 491 551 l 178 551 l 203 651 l 583 651 l 726 808 l 848 808 z "},"":{"ha":1211,"x_min":0,"x_max":1323,"o":"m 798 861 l 419 359 l 672 359 l 798 861 m 825 455 l 739 110 l 850 110 q 1020 111 951 110 q 1131 119 1088 113 l 1102 0 l 573 0 q 584 28 578 12 q 598 74 590 45 q 618 147 606 103 q 646 256 629 191 l 342 256 l 149 0 l 0 0 q 59 70 32 37 q 111 134 86 102 q 161 198 136 165 q 212 265 185 230 l 736 970 l 1323 970 l 1296 861 l 926 861 l 852 562 l 1171 562 l 1144 455 l 825 455 z "},"":{"ha":979,"x_min":85,"x_max":1043,"o":"m 263 367 q 272 284 263 322 q 296 214 280 245 l 786 828 q 654 871 732 871 q 538 849 591 871 q 442 790 486 827 q 365 703 399 753 q 309 597 332 653 q 275 482 286 541 q 263 367 263 422 m 488 100 q 604 122 551 100 q 700 181 656 144 q 775 269 743 218 q 831 375 808 319 q 864 490 853 431 q 876 605 876 549 q 866 691 876 652 q 840 762 857 730 l 349 146 q 488 100 406 100 m 1043 1017 l 932 878 q 992 771 970 833 q 1013 631 1013 709 q 991 457 1013 541 q 930 302 969 374 q 838 171 891 230 q 722 70 784 112 q 591 6 660 28 q 452 -17 522 -17 q 352 -3 399 -17 q 264 40 304 12 l 192 -51 l 85 -51 l 203 97 q 146 202 166 142 q 125 339 125 263 q 148 513 125 430 q 209 669 170 597 q 301 799 248 741 q 417 900 355 858 q 549 964 480 941 q 689 987 618 987 q 785 973 739 987 q 870 933 831 960 l 937 1017 l 1043 1017 z "},"":{"ha":800,"x_min":103,"x_max":871,"o":"m 871 508 q 852 430 871 467 q 803 367 833 394 q 732 325 772 340 q 650 309 692 309 q 600 314 625 309 q 550 329 574 319 q 505 358 526 340 q 466 402 483 376 q 356 331 406 353 q 256 309 305 309 q 195 322 223 309 q 146 356 167 334 q 115 405 126 377 q 103 463 103 433 q 122 540 103 503 q 172 605 140 577 q 243 648 203 632 q 325 665 283 665 q 374 659 349 665 q 422 640 399 652 q 468 607 446 627 q 506 562 489 588 q 617 637 566 610 q 718 665 669 665 q 780 652 751 665 q 828 617 808 639 q 860 567 848 595 q 871 508 871 538 m 534 485 q 561 443 545 460 q 595 414 577 425 q 631 397 613 403 q 664 392 648 392 q 704 399 684 392 q 739 418 724 406 q 764 450 755 431 q 774 491 774 468 q 768 522 774 507 q 752 549 762 537 q 725 568 741 561 q 689 575 709 575 q 655 569 673 575 q 616 551 636 562 q 575 522 595 539 q 534 485 554 505 m 439 485 q 412 527 428 509 q 379 556 397 545 q 343 573 361 568 q 310 578 325 578 q 270 572 290 578 q 235 552 250 565 q 210 521 219 539 q 200 479 200 503 q 206 449 200 464 q 222 422 212 434 q 249 403 233 410 q 285 395 265 395 q 360 420 320 395 q 439 485 400 444 z "},"":{"ha":800,"x_min":97,"x_max":831,"o":"m 122 233 l 726 233 l 701 133 l 97 133 l 122 233 m 227 654 l 476 654 l 539 907 l 644 907 l 581 654 l 831 654 l 806 555 l 556 555 l 496 313 l 391 313 l 451 555 l 202 555 l 227 654 z "},"":{"ha":800,"x_min":27,"x_max":892,"o":"m 732 163 l 134 429 l 162 542 l 892 808 l 863 688 l 277 478 l 762 283 l 732 163 m 52 100 l 716 100 l 692 0 l 27 0 l 52 100 z "},"":{"ha":800,"x_min":41,"x_max":840,"o":"m 65 100 l 730 100 l 705 0 l 41 0 l 65 100 m 241 808 l 840 542 l 812 429 l 81 163 l 111 283 l 697 492 l 212 688 l 241 808 z "},"":{"ha":800,"x_min":157,"x_max":1015,"o":"m 222 512 l 376 512 l 309 708 q 286 772 297 741 q 262 835 275 803 q 235 900 250 867 q 201 970 220 933 l 350 970 l 502 548 l 852 970 l 1015 970 q 942 894 974 928 q 884 829 911 860 q 832 770 857 799 q 780 708 807 741 l 614 512 l 770 512 l 746 415 l 534 415 l 517 346 l 729 346 l 705 249 l 492 249 q 457 100 471 164 q 441 0 442 36 l 292 0 q 325 100 307 36 q 363 249 342 164 l 157 249 l 181 346 l 388 346 l 405 415 l 198 415 l 222 512 z "},"":{"ha":790,"x_min":-17,"x_max":823,"o":"m 583 0 q 578 38 580 16 q 576 86 576 60 q 576 110 576 98 q 578 133 577 121 q 526 81 556 108 q 462 33 496 55 q 392 -3 428 11 q 324 -17 357 -17 q 281 -11 300 -17 q 246 5 262 -5 q 220 27 231 14 q 203 53 209 39 l 165 -100 q 148 -172 155 -140 q 136 -231 141 -204 q 129 -281 132 -258 q 125 -326 126 -304 l -17 -326 l 180 465 q 194 523 189 496 q 205 573 200 549 q 213 623 210 597 q 220 678 216 648 l 359 678 q 321 528 339 600 q 306 466 314 498 q 291 406 298 435 q 277 351 283 376 q 267 309 271 326 q 258 264 260 286 q 255 225 255 243 q 264 166 255 191 q 288 125 273 141 q 322 101 302 109 q 365 93 342 93 q 423 110 390 93 q 488 155 456 127 q 550 215 521 182 q 598 279 580 248 l 645 465 q 659 524 653 498 q 670 574 665 550 q 677 623 674 598 q 684 678 681 648 l 823 678 l 788 537 q 773 476 781 507 q 757 413 765 444 q 742 353 749 382 q 728 299 734 323 q 703 170 711 228 q 694 64 694 113 q 699 0 694 29 l 583 0 z "},"":{"ha":739,"x_min":77,"x_max":813,"o":"m 623 418 q 598 444 614 431 q 559 469 581 458 q 511 488 537 480 q 456 495 484 495 q 367 478 409 495 q 291 432 325 461 q 233 363 257 403 q 198 279 209 324 q 195 260 196 270 q 193 240 193 250 q 201 186 193 214 q 223 136 208 159 q 260 100 238 114 q 313 86 283 86 q 406 111 361 86 q 489 180 450 136 q 561 285 528 224 q 623 418 595 346 m 344 917 q 429 951 380 936 q 532 967 478 967 q 667 945 613 967 q 753 887 721 924 q 800 803 786 851 q 813 703 813 755 q 808 630 813 667 q 793 558 802 594 q 750 420 777 490 q 689 288 724 351 q 611 168 654 224 q 518 72 568 113 q 412 7 469 31 q 294 -17 356 -17 q 200 2 241 -17 q 133 53 160 20 q 91 127 105 85 q 77 216 77 170 q 87 296 77 256 q 124 392 100 349 q 180 468 149 435 q 248 524 212 500 q 319 562 283 547 q 389 584 355 577 q 449 591 422 591 q 565 574 513 591 q 660 512 618 557 q 672 550 667 531 q 682 588 677 569 q 690 632 688 610 q 693 676 693 654 q 683 749 693 715 q 651 809 673 783 q 594 849 629 834 q 510 864 559 864 q 472 861 490 864 q 436 853 454 859 q 396 839 417 848 q 349 817 376 829 l 344 917 z "},"":{"ha":821,"x_min":10,"x_max":930,"o":"m 190 110 l 461 110 q 548 111 504 110 q 632 113 592 111 q 705 117 672 115 q 760 123 738 119 l 729 0 l 10 0 l 31 86 l 423 498 l 250 884 l 272 970 l 930 970 l 899 848 q 855 854 880 852 q 798 858 830 857 q 725 860 766 860 q 635 861 685 861 l 397 861 l 565 499 l 190 110 z "},"":{"ha":946,"x_min":68,"x_max":1035,"o":"m 421 861 l 207 0 l 68 0 q 104 113 85 40 q 149 286 123 186 l 248 682 q 290 855 273 781 q 309 970 307 930 l 1035 970 q 997 855 1017 930 q 953 682 977 781 l 854 286 q 812 113 829 186 q 793 0 795 40 l 654 0 l 869 861 l 421 861 z "},"":{"ha":878,"x_min":139,"x_max":969,"o":"m 806 582 l 727 266 q 712 202 718 231 q 702 149 706 174 q 696 103 698 124 q 694 62 694 81 q 699 0 694 31 l 566 0 q 564 19 565 9 q 563 40 563 29 q 567 94 563 64 q 578 157 570 123 q 589 210 583 180 q 604 272 595 239 q 621 342 612 305 q 639 416 629 378 l 680 582 l 409 582 l 264 0 l 139 0 l 283 582 l 144 582 l 169 678 l 969 678 l 945 582 l 806 582 z "},"":{"ha":654,"x_min":-83,"x_max":859,"o":"m 766 924 q 743 949 760 938 q 704 960 725 960 q 665 950 683 960 q 631 924 646 940 q 603 889 616 909 q 581 850 591 869 q 553 779 570 827 q 518 667 537 730 q 478 528 499 603 q 436 376 457 453 q 394 223 414 298 q 354 83 373 148 q 320 -31 336 18 q 295 -106 305 -81 q 241 -205 271 -165 q 178 -268 212 -244 q 106 -302 144 -292 q 31 -313 69 -313 q -38 -300 -9 -313 q -83 -269 -67 -288 l -5 -170 q 19 -192 2 -185 q 58 -199 37 -199 q 121 -166 89 -199 q 178 -73 153 -132 q 204 -3 189 -50 q 237 107 219 45 q 276 243 255 170 q 317 393 296 317 q 358 543 338 469 q 398 681 379 617 q 433 793 417 745 q 460 867 448 842 q 508 955 481 916 q 568 1021 535 994 q 640 1063 600 1048 q 726 1077 679 1077 q 803 1064 766 1077 q 859 1027 839 1052 l 766 924 z "},"":{"ha":534,"x_min":95,"x_max":650,"o":"m 547 823 q 514 829 536 826 q 457 832 493 832 q 379 816 413 832 q 320 773 345 800 q 279 710 296 746 q 252 635 262 675 q 246 589 246 611 q 257 536 246 557 q 289 515 268 515 q 329 531 305 515 q 379 572 353 547 q 431 629 405 597 q 480 690 458 660 q 518 747 503 721 q 538 789 534 773 l 547 823 m 491 452 q 492 485 491 465 q 495 527 493 505 q 500 571 497 549 q 509 612 504 593 l 519 654 q 464 575 495 614 q 399 507 433 537 q 330 459 365 477 q 263 441 296 441 q 185 475 215 441 q 155 570 155 509 q 164 635 155 601 q 203 735 177 687 q 268 820 229 783 q 359 880 307 857 q 475 902 411 902 q 569 897 522 902 q 650 882 616 891 l 600 681 q 585 606 590 640 q 577 544 580 572 q 575 493 575 515 q 574 452 574 470 l 491 452 m 111 399 l 581 399 l 564 332 l 95 332 l 111 399 z "},"":{"ha":528,"x_min":90,"x_max":616,"o":"m 106 399 l 557 399 l 541 332 l 90 332 l 106 399 m 360 513 q 429 530 398 513 q 482 576 460 548 q 516 640 504 604 q 528 711 528 675 q 500 798 528 766 q 427 830 472 830 q 357 812 388 830 q 303 765 326 794 q 270 701 281 736 q 258 628 258 665 q 286 544 258 574 q 360 513 315 513 m 345 441 q 271 454 304 441 q 216 490 239 467 q 182 546 194 513 q 170 620 170 579 q 189 728 170 677 q 243 817 208 779 q 329 879 279 856 q 442 901 379 901 q 517 888 485 901 q 572 851 550 875 q 605 794 593 827 q 616 723 616 762 q 597 616 616 667 q 543 527 578 566 q 457 465 507 488 q 345 441 407 441 z "},"":{"ha":1108,"x_min":17,"x_max":1115,"o":"m 663 110 q 780 209 723 156 q 881 324 837 262 q 952 457 926 386 q 979 610 979 528 q 960 721 979 672 q 905 803 940 769 q 820 853 869 836 q 712 871 771 871 q 596 853 650 871 q 498 804 542 836 q 419 730 454 773 q 361 636 385 687 q 326 528 338 585 q 313 412 313 471 q 321 322 313 365 q 342 242 329 279 q 372 171 355 204 q 407 110 389 138 l 380 0 l 17 0 l 46 119 q 85 115 60 117 q 143 112 111 113 q 212 111 175 111 q 288 110 250 110 q 249 170 268 136 q 216 244 231 204 q 193 330 202 284 q 184 425 184 375 q 203 570 184 499 q 255 703 221 640 q 339 817 290 765 q 450 907 388 869 q 585 966 512 945 q 741 987 659 987 q 885 962 817 987 q 1004 890 954 937 q 1085 777 1055 844 q 1115 627 1115 711 q 1102 514 1115 569 q 1065 410 1088 460 q 1011 316 1042 360 q 944 233 980 271 q 870 164 909 195 q 795 110 832 133 q 868 111 832 110 q 934 113 903 111 q 989 116 964 114 q 1028 119 1013 117 l 999 0 l 636 0 l 663 110 z "},"":{"ha":1145,"x_min":69,"x_max":1169,"o":"m 934 591 q 862 578 898 591 q 793 542 825 566 q 734 484 760 517 q 690 408 707 450 q 754 402 725 404 q 811 400 783 400 q 911 409 869 400 q 982 432 954 417 q 1024 467 1010 446 q 1038 511 1038 487 q 1029 543 1038 528 q 1007 569 1021 558 q 974 585 993 579 q 934 591 955 591 m 545 258 q 546 292 545 275 q 551 329 547 309 q 514 326 538 328 q 465 321 491 324 q 412 316 438 319 q 370 313 387 314 q 307 300 336 310 q 256 275 278 290 q 219 241 234 260 q 199 201 205 222 q 197 179 197 191 q 204 145 197 161 q 227 118 212 130 q 261 99 241 106 q 306 93 281 93 q 365 102 334 93 q 429 131 397 112 q 491 176 460 149 q 545 238 521 203 l 545 258 m 1086 56 q 1026 29 1059 42 q 956 5 993 16 q 879 -11 919 -5 q 800 -17 840 -17 q 650 23 709 -17 q 566 131 592 64 q 502 72 538 99 q 426 25 466 45 q 345 -6 386 5 q 264 -17 303 -17 q 186 -2 222 -17 q 124 37 151 13 q 84 93 98 62 q 69 158 69 125 q 93 247 69 204 q 158 322 116 289 q 259 377 201 355 q 387 406 317 399 q 432 409 405 407 q 488 414 460 412 q 540 419 516 417 q 574 422 564 421 l 583 459 q 586 473 585 467 q 587 487 587 480 q 546 559 587 534 q 438 585 505 585 q 385 579 411 585 q 332 564 359 574 q 275 538 305 553 q 211 502 245 522 q 219 530 214 513 q 230 567 224 548 q 241 603 235 586 q 250 631 246 621 q 306 653 279 642 q 363 672 334 664 q 425 686 392 681 q 496 691 457 691 q 625 661 577 691 q 686 579 672 630 q 812 661 741 631 q 969 692 884 692 q 1059 678 1021 692 q 1121 642 1097 664 q 1157 591 1145 619 q 1169 536 1169 564 q 1151 449 1169 490 q 1092 375 1133 407 q 988 326 1052 344 q 831 307 924 307 q 755 310 795 307 q 669 319 716 313 q 667 285 667 302 q 676 210 667 245 q 705 148 686 174 q 756 107 725 122 q 830 92 787 92 q 896 98 861 92 q 965 117 930 104 q 1033 146 1000 129 q 1095 183 1066 163 l 1086 56 z "},"":{"ha":768,"x_min":72,"x_max":799,"o":"m 489 585 q 381 554 429 585 q 298 477 332 524 q 244 371 263 429 q 226 258 226 313 q 243 164 226 200 l 566 569 q 489 585 534 585 m 642 414 q 622 514 642 474 l 298 106 q 379 90 330 90 q 454 103 419 90 q 518 140 489 117 q 571 196 548 164 q 609 264 593 228 q 634 338 625 300 q 642 414 642 377 m 799 736 l 706 619 q 754 542 737 587 q 772 439 772 496 q 759 327 772 382 q 720 220 745 271 q 659 126 695 170 q 577 51 623 83 q 476 1 531 19 q 359 -17 421 -17 q 287 -9 321 -17 q 223 14 253 -1 l 172 -51 l 72 -51 l 160 60 q 113 136 130 92 q 96 233 96 179 q 110 346 96 290 q 149 452 123 401 q 211 547 174 503 q 295 623 248 591 q 397 673 341 655 q 516 692 452 692 q 643 665 587 692 l 700 736 l 799 736 z "},"":{"ha":699,"x_min":32,"x_max":572,"o":"m 572 663 q 564 624 572 642 q 539 592 555 606 q 505 570 524 578 q 464 562 485 562 q 433 568 448 562 q 409 584 419 574 q 393 609 399 595 q 387 638 387 623 q 395 677 387 659 q 419 709 404 695 q 454 732 434 724 q 495 740 473 740 q 526 734 511 740 q 550 717 540 728 q 566 692 560 707 q 572 663 572 678 m 471 -199 q 424 -229 451 -215 q 365 -252 396 -242 q 301 -267 334 -262 q 237 -273 269 -273 q 159 -262 196 -273 q 93 -231 121 -252 q 48 -181 65 -211 q 32 -114 32 -152 q 45 -42 32 -75 q 81 21 58 -9 q 132 76 103 50 q 191 126 161 102 q 248 177 222 151 q 294 241 273 203 q 333 331 315 278 q 368 458 351 383 l 487 458 q 449 317 469 376 q 407 216 429 258 q 361 146 385 174 q 313 100 337 119 q 262 59 287 79 q 219 17 238 39 q 189 -26 200 -4 q 177 -73 177 -49 q 183 -105 177 -90 q 202 -131 189 -120 q 236 -149 215 -142 q 285 -156 256 -156 q 374 -138 326 -156 q 471 -81 422 -120 l 471 -199 z "},"":{"ha":505,"x_min":49,"x_max":457,"o":"m 457 663 q 448 624 457 642 q 424 592 439 606 q 389 570 409 578 q 349 562 370 562 q 318 568 332 562 q 294 584 304 574 q 277 609 283 595 q 271 638 271 623 q 280 677 271 659 q 304 709 289 695 q 338 732 319 724 q 380 740 358 740 q 410 734 396 740 q 435 717 425 728 q 451 692 445 707 q 457 663 457 678 m 369 439 q 334 287 353 366 q 296 119 315 208 q 258 -66 277 31 q 222 -273 239 -164 l 49 -273 q 115 -66 85 -164 q 170 119 144 31 q 216 287 195 208 q 257 439 237 366 l 369 439 z "},"":{"ha":800,"x_min":141,"x_max":814,"o":"m 636 226 l 687 432 l 141 432 l 166 532 l 814 532 l 738 226 l 636 226 z "},"":{"ha":800,"x_min":96,"x_max":1122,"o":"m 1006 990 l 437 0 l 380 0 l 207 532 l 114 485 l 96 549 l 271 642 l 428 166 l 946 1063 l 1122 1063 l 1105 990 l 1006 990 z "},"":{"ha":484,"x_min":-229,"x_max":721,"o":"m 664 924 q 614 953 643 942 q 555 964 585 964 q 465 926 503 964 q 407 804 428 889 q 389 732 397 768 q 373 661 381 697 l 575 661 l 551 565 l 353 565 q 298 293 325 430 q 237 17 271 157 q 182 -139 213 -76 q 111 -241 151 -202 q 22 -296 71 -279 q -85 -313 -27 -313 q -121 -309 -102 -313 q -161 -298 -141 -304 q -199 -282 -181 -291 q -229 -262 -216 -273 l -178 -153 q -156 -169 -170 -161 q -125 -184 -142 -178 q -92 -195 -109 -191 q -58 -199 -75 -199 q -6 -188 -31 -199 q 40 -150 19 -176 q 80 -86 62 -125 q 111 8 98 -47 q 142 140 126 69 q 174 285 158 212 q 204 431 190 359 q 232 565 219 503 l 106 565 l 131 661 l 252 661 q 267 736 260 706 q 276 778 273 766 q 327 919 297 862 q 395 1012 357 977 q 481 1062 434 1047 q 583 1077 528 1077 q 659 1064 623 1077 q 721 1030 695 1052 l 664 924 z "},"":{"ha":800,"x_min":96,"x_max":875,"o":"m 847 598 q 800 563 825 578 q 746 535 774 547 q 690 518 718 524 q 636 512 662 512 q 563 526 600 512 q 489 555 526 539 q 419 585 453 571 q 359 598 386 598 q 264 573 316 598 q 158 498 213 548 l 185 608 q 230 643 204 627 q 285 671 256 659 q 342 688 313 682 q 397 694 371 694 q 470 681 432 694 q 543 651 507 667 q 612 622 579 635 q 673 608 646 608 q 768 633 716 608 q 875 708 820 659 l 847 598 m 786 352 q 739 316 764 332 q 685 289 713 300 q 628 272 656 278 q 574 266 600 266 q 501 279 538 266 q 428 309 464 293 q 358 338 392 325 q 298 352 325 352 q 203 327 255 352 q 96 252 151 302 l 124 362 q 169 398 143 382 q 224 425 195 414 q 281 443 252 437 q 336 449 310 449 q 409 435 371 449 q 482 406 446 422 q 551 376 518 389 q 612 362 585 362 q 707 387 655 362 q 813 462 758 412 l 786 352 z "},"":{"ha":932,"x_min":7,"x_max":868,"o":"m 178 110 l 734 110 l 637 841 l 178 110 m 7 0 l 31 96 l 594 970 l 740 970 l 868 96 l 844 0 l 7 0 z "},"":{"ha":868,"x_min":95,"x_max":932,"o":"m 646 0 l 427 340 l 793 678 l 932 678 l 583 340 l 763 0 l 646 0 m 314 0 l 95 340 l 460 678 l 600 678 l 251 340 l 431 0 l 314 0 z "},"":{"ha":868,"x_min":37,"x_max":875,"o":"m 37 0 l 387 340 l 206 678 l 325 678 l 543 340 l 174 0 l 37 0 m 370 0 l 719 340 l 538 678 l 657 678 l 875 340 l 507 0 l 370 0 z "},"":{"ha":1156,"x_min":100,"x_max":1023,"o":"m 836 61 q 845 100 836 81 q 869 132 854 118 q 904 155 884 146 q 945 163 924 163 q 976 156 962 163 q 1001 139 990 150 q 1017 115 1011 129 q 1023 85 1023 100 q 1014 46 1023 64 q 990 14 1005 28 q 955 -9 975 -1 q 914 -17 935 -17 q 884 -11 898 -17 q 859 6 869 -5 q 842 31 848 17 q 836 61 836 45 m 467 61 q 476 100 467 81 q 500 132 485 118 q 534 155 515 146 q 576 163 554 163 q 606 156 592 163 q 631 139 621 150 q 648 115 642 129 q 654 85 654 100 q 645 46 654 64 q 621 14 635 28 q 586 -9 606 -1 q 545 -17 566 -17 q 514 -11 528 -17 q 489 6 500 -5 q 473 31 479 17 q 467 61 467 45 m 100 61 q 110 100 100 81 q 134 132 119 118 q 168 155 149 146 q 210 163 188 163 q 240 156 226 163 q 265 139 254 150 q 281 115 275 129 q 288 85 288 100 q 278 46 288 64 q 254 14 269 28 q 219 -9 239 -1 q 178 -17 199 -17 q 148 -11 162 -17 q 123 6 134 -5 q 106 31 113 17 q 100 61 100 45 z "},"":{"ha":359,"x_min":0,"x_max":0,"o":""},"":{"ha":946,"x_min":-14,"x_max":865,"o":"m 349 359 l 693 359 l 640 841 l 349 359 m 704 256 l 286 256 l 132 0 l -14 0 q 16 42 1 20 q 48 92 31 64 q 89 154 66 119 q 140 236 111 189 l 594 970 l 740 970 l 828 236 q 839 155 833 190 q 848 92 844 119 q 857 42 852 64 q 865 0 861 20 l 732 0 l 704 256 m 634 1355 l 821 1069 l 719 1069 l 492 1355 l 634 1355 z "},"":{"ha":946,"x_min":-14,"x_max":956,"o":"m 349 359 l 693 359 l 640 841 l 349 359 m 704 256 l 286 256 l 132 0 l -14 0 q 16 42 1 20 q 48 92 31 64 q 89 154 66 119 q 140 236 111 189 l 594 970 l 740 970 l 828 236 q 839 155 833 190 q 848 92 844 119 q 857 42 852 64 q 865 0 861 20 l 732 0 l 704 256 m 436 1093 q 460 1152 444 1123 q 499 1204 477 1181 q 550 1241 522 1227 q 608 1255 577 1255 q 660 1245 636 1255 q 716 1221 684 1234 q 771 1198 749 1206 q 814 1189 792 1189 q 837 1194 826 1189 q 857 1207 848 1199 q 873 1226 866 1215 q 885 1249 880 1237 l 956 1249 q 931 1187 948 1217 q 892 1135 915 1158 q 840 1099 869 1113 q 781 1086 812 1086 q 728 1095 753 1086 q 675 1118 703 1103 q 620 1144 641 1135 q 579 1152 598 1152 q 535 1135 554 1152 q 507 1093 516 1117 l 436 1093 z "},"":{"ha":981,"x_min":125,"x_max":1012,"o":"m 1012 631 q 990 457 1012 541 q 929 302 968 374 q 837 171 890 230 q 721 70 783 112 q 590 6 659 28 q 452 -17 522 -17 q 325 7 384 -17 q 221 76 265 31 q 151 188 176 122 q 125 339 125 254 q 148 513 125 430 q 209 669 170 597 q 301 799 248 741 q 417 900 355 858 q 549 964 479 941 q 688 987 618 987 q 814 963 755 987 q 917 893 873 939 q 986 782 961 848 q 1012 631 1012 715 m 488 100 q 601 122 548 100 q 696 181 653 144 q 773 269 739 218 q 829 375 806 319 q 864 490 852 431 q 876 605 876 549 q 860 715 876 666 q 815 799 844 764 q 745 852 787 833 q 653 871 704 871 q 540 849 593 871 q 444 790 488 827 q 367 703 401 753 q 310 597 333 653 q 274 482 286 541 q 262 367 262 422 q 277 256 262 306 q 322 172 293 207 q 394 118 352 137 q 488 100 435 100 m 456 1093 q 480 1152 464 1123 q 520 1204 497 1181 q 570 1241 543 1227 q 628 1255 597 1255 q 681 1245 656 1255 q 736 1221 705 1234 q 791 1198 770 1206 q 834 1189 812 1189 q 857 1194 846 1189 q 877 1207 868 1199 q 893 1226 886 1215 q 905 1249 901 1237 l 977 1249 q 952 1187 968 1217 q 912 1135 935 1158 q 861 1099 889 1113 q 801 1086 832 1086 q 749 1095 774 1086 q 696 1118 724 1103 q 640 1144 661 1135 q 600 1152 618 1152 q 555 1135 574 1152 q 528 1093 536 1117 l 456 1093 z "},"":{"ha":1316,"x_min":125,"x_max":1428,"o":"m 461 100 q 563 122 515 100 q 650 181 610 144 q 722 269 690 218 q 776 375 754 319 q 809 490 798 431 q 821 605 821 549 q 806 715 821 666 q 765 799 791 764 q 703 852 739 833 q 627 871 667 871 q 525 849 573 871 q 437 790 477 827 q 365 703 397 753 q 310 597 332 653 q 275 482 287 541 q 263 367 263 422 q 278 256 263 306 q 320 172 294 207 q 383 118 347 137 q 461 100 419 100 m 1401 861 l 1025 861 l 948 562 l 1276 562 l 1249 455 l 924 455 l 838 110 l 956 110 q 1125 111 1057 110 q 1236 119 1194 113 l 1207 0 l 692 0 l 725 123 q 668 67 702 93 q 596 23 635 41 q 515 -6 557 4 q 432 -17 473 -17 q 319 7 374 -17 q 221 76 264 31 q 152 188 178 122 q 125 339 125 254 q 146 513 125 430 q 203 669 167 597 q 290 799 239 741 q 398 900 340 858 q 523 964 457 941 q 655 987 588 987 q 734 974 697 987 q 802 939 772 962 q 854 885 832 916 q 888 818 876 854 l 928 970 l 1428 970 l 1401 861 z "},"":{"ha":1220,"x_min":96,"x_max":1244,"o":"m 1008 591 q 936 578 972 591 q 867 542 900 566 q 808 484 835 517 q 765 408 782 450 q 829 402 800 404 q 886 400 858 400 q 986 409 943 400 q 1057 432 1029 417 q 1098 467 1084 446 q 1112 511 1112 487 q 1104 543 1112 528 q 1082 569 1096 558 q 1048 585 1067 579 q 1008 591 1029 591 m 482 585 q 378 554 425 585 q 297 477 330 524 q 244 371 263 429 q 226 258 226 313 q 236 187 226 218 q 266 134 247 156 q 313 101 286 113 q 372 90 340 90 q 444 103 410 90 q 507 140 478 117 q 558 196 535 164 q 596 264 581 228 q 620 338 612 300 q 629 414 629 377 q 618 486 629 454 q 588 539 607 517 q 542 573 568 561 q 482 585 515 585 m 1161 56 q 1101 29 1134 42 q 1030 5 1067 16 q 954 -11 994 -5 q 875 -17 914 -17 q 728 21 785 -17 q 644 124 671 60 q 517 22 591 60 q 353 -17 443 -17 q 252 0 298 -17 q 170 50 205 18 q 116 129 136 82 q 96 233 96 175 q 110 346 96 290 q 149 452 123 401 q 210 547 174 503 q 293 623 247 591 q 393 673 338 655 q 509 692 448 692 q 648 656 589 692 q 735 554 707 620 q 870 654 792 617 q 1044 692 949 692 q 1133 678 1095 692 q 1196 642 1171 664 q 1232 591 1220 619 q 1244 536 1244 564 q 1225 449 1244 490 q 1167 375 1207 407 q 1062 326 1126 344 q 906 307 998 307 q 830 310 869 307 q 744 319 791 313 q 742 285 742 302 q 751 210 742 245 q 780 148 760 174 q 830 107 800 122 q 905 92 861 92 q 970 98 936 92 q 1040 117 1005 104 q 1107 146 1074 129 q 1169 183 1141 163 l 1161 56 z "},"":{"ha":702,"x_min":105,"x_max":737,"o":"m 130 469 l 737 469 l 712 369 l 105 369 l 130 469 z "},"":{"ha":1163,"x_min":105,"x_max":1198,"o":"m 130 469 l 1198 469 l 1173 369 l 105 369 l 130 469 z "},"":{"ha":712,"x_min":298,"x_max":832,"o":"m 481 774 q 438 725 467 743 q 380 708 409 708 q 348 714 363 708 q 322 732 333 721 q 304 759 311 743 q 298 794 298 775 q 315 868 298 831 q 359 938 332 905 q 418 1001 386 972 q 479 1053 450 1031 l 541 1027 q 501 991 522 1013 q 459 944 479 969 q 424 893 439 920 q 403 841 409 866 l 498 841 l 481 774 m 772 774 q 729 725 758 743 q 671 708 701 708 q 640 714 654 708 q 613 732 625 721 q 596 759 602 743 q 589 794 589 775 q 607 868 589 831 q 651 938 624 905 q 709 1001 677 972 q 771 1053 741 1031 l 832 1027 q 792 991 814 1013 q 751 944 771 969 q 716 893 731 920 q 694 841 701 866 l 789 841 l 772 774 z "},"":{"ha":658,"x_min":271,"x_max":805,"o":"m 622 987 q 666 1036 637 1019 q 724 1053 694 1053 q 755 1047 741 1053 q 782 1029 770 1040 q 799 1002 793 1018 q 805 966 805 985 q 788 892 805 928 q 745 823 771 856 q 686 760 718 789 q 624 708 654 731 l 563 734 q 603 770 581 749 q 644 817 624 791 q 679 868 663 842 q 701 920 694 895 l 606 920 l 622 987 m 330 987 q 374 1036 345 1019 q 432 1053 403 1053 q 464 1047 449 1053 q 490 1029 479 1040 q 507 1002 501 1018 q 513 966 513 985 q 496 892 513 928 q 453 823 479 856 q 394 760 427 789 q 332 708 362 731 l 271 734 q 311 770 290 749 q 352 817 332 791 q 387 868 372 842 q 409 920 403 895 l 314 920 l 330 987 z "},"":{"ha":359,"x_min":264,"x_max":507,"o":"m 447 774 q 404 725 433 743 q 346 708 375 708 q 314 714 329 708 q 288 732 299 721 q 270 759 277 743 q 264 794 264 775 q 281 868 264 831 q 325 938 298 905 q 384 1001 352 972 q 446 1053 416 1031 l 507 1027 q 467 991 488 1013 q 426 944 446 969 q 390 893 406 920 q 369 841 375 866 l 464 841 l 447 774 z "},"":{"ha":342,"x_min":176,"x_max":418,"o":"m 235 987 q 279 1036 250 1019 q 337 1053 308 1053 q 369 1047 354 1053 q 395 1029 384 1040 q 412 1002 406 1018 q 418 966 418 985 q 401 892 418 928 q 358 823 385 856 q 299 760 332 789 q 237 708 267 731 l 176 734 q 216 770 195 749 q 257 817 237 791 q 292 868 277 842 q 314 920 308 895 l 219 920 l 235 987 z "},"":{"ha":800,"x_min":172,"x_max":800,"o":"m 197 532 l 800 532 l 775 432 l 172 432 l 197 532 m 440 682 q 450 722 440 703 q 476 755 460 741 q 513 778 492 770 q 555 787 534 787 q 587 780 572 787 q 612 763 601 774 q 629 739 623 753 q 635 708 635 724 q 626 668 635 687 q 601 634 616 649 q 565 611 585 620 q 523 602 545 602 q 491 609 506 602 q 465 626 476 615 q 447 652 454 637 q 440 682 440 666 m 334 258 q 344 298 334 279 q 370 332 354 317 q 407 354 387 346 q 450 362 428 362 q 481 356 467 362 q 506 338 495 349 q 522 313 516 328 q 528 283 528 299 q 519 243 528 262 q 495 209 510 224 q 459 186 479 195 q 417 178 439 178 q 385 184 400 178 q 359 202 370 191 q 341 228 348 213 q 334 258 334 242 z "},"":{"ha":682,"x_min":119,"x_max":770,"o":"m 549 967 l 224 542 l 332 96 l 662 555 l 549 967 m 349 0 l 264 0 l 119 549 l 529 1063 l 614 1063 l 770 549 l 349 0 z "},"":{"ha":662,"x_min":-136,"x_max":716,"o":"m 235 678 q 269 620 252 655 q 301 539 286 584 q 329 444 316 495 q 351 340 342 393 q 366 232 361 286 q 372 128 372 178 q 454 274 416 200 q 521 415 492 347 q 566 542 549 484 q 582 642 582 600 q 578 678 582 662 l 713 678 q 716 654 716 669 q 694 546 716 614 q 633 392 673 479 q 537 205 593 306 q 413 0 481 105 q 298 -155 352 -94 q 196 -252 245 -216 q 103 -301 148 -288 q 16 -315 59 -315 q -68 -299 -31 -315 q -136 -256 -105 -283 l -69 -149 q -48 -167 -61 -158 q -21 -183 -36 -176 q 10 -195 -7 -191 q 43 -200 26 -200 q 89 -191 64 -200 q 143 -160 115 -182 q 205 -102 172 -138 q 273 -11 237 -66 q 256 201 272 96 q 215 396 241 305 q 157 561 190 488 q 90 678 125 633 l 235 678 m 406 907 q 398 868 406 887 q 375 836 389 850 q 341 813 360 821 q 300 804 321 804 q 270 810 283 804 q 246 827 256 817 q 230 851 236 838 q 224 881 224 865 q 232 918 224 899 q 253 950 239 936 q 287 974 267 965 q 331 983 307 983 q 361 977 347 983 q 385 961 375 971 q 401 937 395 951 q 406 907 406 923 m 691 907 q 683 868 691 887 q 660 836 674 850 q 626 813 645 821 q 585 804 606 804 q 554 810 568 804 q 531 827 541 817 q 515 851 521 838 q 509 881 509 865 q 517 918 509 899 q 538 950 524 936 q 572 974 552 965 q 616 983 591 983 q 646 977 632 983 q 670 961 660 971 q 686 937 680 951 q 691 907 691 923 z "},"":{"ha":882,"x_min":224,"x_max":1059,"o":"m 326 0 q 363 115 343 40 q 408 289 383 190 l 436 406 l 332 708 q 310 772 321 741 q 287 835 299 803 q 259 900 274 867 q 224 970 243 933 l 374 970 l 532 531 l 896 970 l 1059 970 q 986 894 1018 928 q 928 829 955 860 q 876 770 901 799 q 824 708 851 741 l 564 401 l 536 289 q 494 115 512 190 q 475 0 477 40 l 326 0 m 638 1199 q 630 1160 638 1179 q 607 1127 621 1141 q 573 1104 592 1113 q 532 1096 553 1096 q 502 1102 515 1096 q 478 1119 488 1108 q 462 1143 468 1129 q 456 1173 456 1157 q 464 1209 456 1191 q 485 1242 471 1227 q 519 1266 499 1257 q 563 1275 538 1275 q 593 1269 579 1275 q 617 1253 607 1263 q 633 1229 627 1242 q 638 1199 638 1215 m 923 1199 q 915 1160 923 1179 q 891 1127 906 1141 q 858 1104 877 1113 q 817 1096 838 1096 q 786 1102 800 1096 q 763 1119 772 1108 q 747 1143 753 1129 q 741 1173 741 1157 q 749 1209 741 1191 q 770 1242 756 1227 q 804 1266 784 1257 q 848 1275 823 1275 q 878 1269 864 1275 q 902 1253 892 1263 q 918 1229 912 1242 q 923 1199 923 1215 z "},"":{"ha":800,"x_min":-81,"x_max":1038,"o":"m 1038 1063 l 35 -163 l -81 -163 l 922 1063 l 1038 1063 z "},"":{"ha":800,"x_min":66,"x_max":958,"o":"m 477 378 q 570 397 525 378 q 649 447 614 415 q 704 523 683 479 q 724 617 724 566 q 711 682 724 651 q 675 735 698 712 q 620 772 652 758 q 551 785 588 785 q 456 767 502 785 q 375 718 410 749 q 318 642 340 686 q 297 546 297 598 q 311 481 297 511 q 348 428 324 450 q 405 392 372 405 q 477 378 438 378 m 755 199 l 644 341 q 551 301 599 312 q 454 290 503 290 q 411 294 433 290 q 366 307 388 298 q 324 326 344 315 q 289 353 304 338 l 121 222 l 66 292 l 234 423 q 214 478 221 448 q 207 539 207 507 q 235 665 207 604 q 313 772 263 726 l 203 915 l 273 970 l 385 825 q 461 860 417 847 q 559 873 505 873 q 657 857 612 873 q 730 813 701 840 l 903 951 l 958 880 l 789 745 q 808 691 801 721 q 815 629 815 662 q 788 505 815 566 q 716 396 761 444 l 825 255 l 755 199 z "},"":{"ha":522,"x_min":94,"x_max":586,"o":"m 312 0 l 94 339 l 460 678 l 586 678 l 250 339 l 417 0 l 312 0 z "},"":{"ha":522,"x_min":10,"x_max":501,"o":"m 10 0 l 345 339 l 179 678 l 284 678 l 501 339 l 136 0 l 10 0 z "},"":{"ha":869,"x_min":122,"x_max":916,"o":"m 745 876 q 752 912 745 895 q 774 945 760 930 q 806 968 788 959 q 844 977 824 977 q 872 970 859 977 q 896 955 886 964 q 911 931 905 945 q 916 904 916 918 q 908 867 916 885 q 885 835 899 849 q 852 813 871 821 q 813 804 833 804 q 786 810 798 804 q 764 826 773 817 q 750 849 755 836 q 745 876 745 862 m 275 661 l 304 778 q 355 919 326 862 q 420 1011 384 977 q 499 1062 456 1046 q 592 1077 542 1077 q 629 1074 609 1077 q 668 1065 648 1072 q 705 1050 687 1059 q 736 1027 722 1040 l 668 933 q 626 956 650 947 q 578 964 601 964 q 528 952 551 964 q 488 919 506 940 q 457 868 470 898 q 436 804 444 839 l 402 661 l 856 661 q 847 593 854 627 q 830 524 840 559 q 808 448 820 488 q 785 363 796 408 l 755 242 q 741 168 745 206 q 737 92 737 129 q 740 43 737 66 q 745 0 742 19 l 610 0 q 605 59 605 23 q 612 156 605 102 q 633 263 620 210 l 660 364 q 677 431 670 403 q 689 483 684 460 q 698 525 694 506 q 707 565 703 545 l 379 565 q 348 433 361 490 q 324 328 334 376 q 300 194 309 260 q 291 75 291 127 q 297 0 291 28 l 151 0 q 165 126 155 56 q 189 271 175 196 q 220 422 203 347 q 252 565 236 498 l 122 565 l 146 661 l 275 661 z "},"":{"ha":834,"x_min":122,"x_max":888,"o":"m 574 0 q 571 35 572 18 q 570 71 570 53 q 579 194 570 130 q 608 332 589 257 l 732 825 q 746 888 741 859 q 754 943 751 918 q 729 952 743 949 q 700 959 715 956 q 668 963 684 962 q 636 964 651 964 q 571 955 603 964 q 513 927 540 946 q 467 877 487 907 q 436 804 446 847 l 401 661 l 564 661 l 539 565 l 378 565 q 348 433 361 491 q 324 328 334 376 q 300 194 309 260 q 291 75 291 127 q 297 0 291 28 l 151 0 q 165 126 155 56 q 189 271 175 196 q 220 422 203 347 q 252 565 236 498 l 122 565 l 146 661 l 275 661 l 304 778 q 360 919 326 862 q 439 1011 395 977 q 537 1062 484 1046 q 648 1077 590 1077 q 708 1074 679 1077 q 761 1065 737 1071 l 888 1065 q 885 1007 888 1042 q 874 929 881 972 q 858 841 867 887 q 838 749 848 794 l 740 351 q 713 209 722 281 q 705 76 705 136 q 706 35 705 54 q 709 0 707 16 l 574 0 z "},"":{"ha":681,"x_min":7,"x_max":811,"o":"m 623 1004 q 600 935 612 971 q 577 859 589 898 q 556 782 566 821 q 535 705 545 743 q 600 705 570 705 q 662 706 630 705 q 729 707 693 706 q 811 711 765 709 l 783 601 q 702 604 739 603 q 632 606 665 605 q 570 608 600 607 q 511 608 540 608 l 425 267 q 413 216 419 242 q 478 217 448 216 q 539 217 508 217 q 607 219 571 218 q 689 222 643 220 l 662 113 q 581 115 618 114 q 511 117 544 117 q 449 119 478 118 q 390 119 419 119 q 358 -24 373 47 q 334 -156 343 -95 l 201 -156 q 243 -24 222 -95 q 282 119 263 47 q 223 119 253 119 q 160 117 193 118 q 89 115 127 117 q 7 113 52 114 l 35 222 q 115 219 78 220 q 185 217 153 218 q 249 217 218 217 q 308 216 279 216 q 320 267 315 242 q 332 313 326 291 l 406 608 q 346 608 376 608 q 282 606 316 607 q 211 604 249 605 q 129 601 174 603 l 157 711 q 237 707 200 709 q 307 706 274 706 q 370 705 340 705 q 429 705 399 705 q 446 782 437 743 q 463 859 455 821 q 478 935 471 898 q 491 1004 486 971 l 623 1004 z "},"":{"ha":447,"x_min":214,"x_max":399,"o":"m 214 459 q 222 498 214 479 q 246 530 231 516 q 280 552 261 544 q 321 560 300 560 q 352 554 338 560 q 377 537 366 548 q 393 512 387 526 q 399 483 399 498 q 391 444 399 463 q 367 412 382 426 q 332 390 351 398 q 291 382 312 382 q 260 388 275 382 q 236 405 246 394 q 220 429 226 415 q 214 459 214 444 z "},"":{"ha":502,"x_min":104,"x_max":347,"o":"m 163 100 q 207 149 178 132 q 265 166 236 166 q 297 160 282 166 q 323 142 312 153 q 340 115 334 131 q 347 80 347 99 q 329 6 347 43 q 286 -64 312 -31 q 227 -127 259 -98 q 165 -180 195 -157 l 104 -153 q 143 -117 122 -138 q 185 -71 165 -96 q 220 -19 205 -45 q 242 33 236 8 l 147 33 l 163 100 z "},"":{"ha":755,"x_min":70,"x_max":604,"o":"m 421 100 q 465 149 436 132 q 523 166 494 166 q 555 160 540 166 q 581 142 570 153 q 598 115 591 131 q 604 80 604 99 q 587 6 604 43 q 543 -64 570 -31 q 485 -127 517 -98 q 422 -180 452 -157 l 361 -153 q 401 -117 380 -138 q 443 -71 422 -96 q 478 -19 463 -45 q 500 33 494 8 l 405 33 l 421 100 m 130 100 q 173 149 144 132 q 231 166 202 166 q 263 160 248 166 q 289 142 278 153 q 306 115 300 131 q 313 80 313 99 q 295 6 313 43 q 252 -64 278 -31 q 193 -127 225 -98 q 131 -180 161 -157 l 70 -153 q 110 -117 88 -138 q 151 -71 131 -96 q 186 -19 171 -45 q 208 33 202 8 l 113 33 l 130 100 z "},"":{"ha":1479,"x_min":149,"x_max":1467,"o":"m 1453 245 q 1407 121 1434 172 q 1347 40 1380 71 q 1273 -4 1313 9 q 1189 -17 1234 -17 q 1077 21 1119 -17 q 1036 142 1036 60 q 1050 251 1036 191 q 1095 371 1068 321 q 1155 452 1121 420 q 1229 497 1189 483 q 1313 511 1269 511 q 1425 471 1383 511 q 1467 349 1467 431 q 1453 245 1467 302 m 1338 236 q 1353 336 1353 296 q 1336 399 1353 380 q 1286 418 1319 418 q 1247 411 1264 418 q 1215 385 1230 404 q 1188 336 1200 367 q 1164 260 1176 306 q 1149 159 1149 199 q 1166 96 1149 115 q 1215 77 1183 77 q 1254 84 1236 77 q 1287 111 1272 92 q 1314 159 1301 129 q 1338 236 1326 190 m 601 717 q 555 593 583 644 q 495 512 528 543 q 421 468 461 481 q 337 455 382 455 q 225 493 267 455 q 184 614 184 532 q 199 723 184 663 q 243 843 216 793 q 303 924 269 892 q 377 969 337 955 q 461 983 417 983 q 573 943 531 983 q 615 821 615 903 q 601 717 615 774 m 486 708 q 501 808 501 768 q 484 871 501 852 q 435 890 467 890 q 395 883 412 890 q 363 857 378 876 q 336 808 349 839 q 313 732 324 778 q 298 631 298 671 q 315 568 298 587 q 363 549 332 549 q 402 556 385 549 q 435 583 420 564 q 462 631 450 601 q 486 708 475 662 m 1048 983 l 269 -17 l 149 -17 l 928 983 l 1048 983 m 996 245 q 950 121 977 172 q 890 40 924 71 q 816 -4 856 9 q 732 -17 777 -17 q 669 -7 697 -17 q 621 21 641 2 q 590 71 601 41 q 579 142 579 101 q 583 193 579 166 q 594 252 587 220 q 638 371 612 321 q 699 452 665 420 q 772 498 732 484 q 857 512 812 512 q 968 472 926 512 q 1010 349 1010 431 q 1006 300 1010 326 q 996 245 1003 275 m 882 237 q 897 336 897 296 q 879 399 897 380 q 829 418 862 418 q 790 411 807 418 q 758 385 772 404 q 731 336 743 367 q 707 260 719 306 q 692 159 692 199 q 709 96 692 115 q 758 77 726 77 q 798 84 780 77 q 830 111 816 92 q 858 160 845 129 q 882 237 870 191 z "},"":{"ha":946,"x_min":-14,"x_max":956,"o":"m 349 359 l 693 359 l 640 841 l 349 359 m 704 256 l 286 256 l 132 0 l -14 0 q 16 42 1 20 q 48 92 31 64 q 89 154 66 119 q 140 236 111 189 l 594 970 l 740 970 l 828 236 q 839 155 833 190 q 848 92 844 119 q 857 42 852 64 q 865 0 861 20 l 732 0 l 704 256 m 380 1069 l 668 1355 l 783 1355 l 956 1069 l 854 1069 l 715 1255 l 481 1069 l 380 1069 z "},"":{"ha":773,"x_min":68,"x_max":897,"o":"m 733 562 l 707 455 l 320 455 l 234 110 l 413 110 q 583 111 514 110 q 694 119 651 113 l 665 0 l 68 0 q 105 115 85 40 q 150 289 125 190 l 248 682 q 290 855 272 780 q 309 970 307 930 l 886 970 l 859 861 l 421 861 l 347 562 l 733 562 m 321 1069 l 609 1355 l 724 1355 l 897 1069 l 795 1069 l 656 1255 l 422 1069 l 321 1069 z "},"":{"ha":946,"x_min":-14,"x_max":1027,"o":"m 349 359 l 693 359 l 640 841 l 349 359 m 704 256 l 286 256 l 132 0 l -14 0 q 16 42 1 20 q 48 92 31 64 q 89 154 66 119 q 140 236 111 189 l 594 970 l 740 970 l 828 236 q 839 155 833 190 q 848 92 844 119 q 857 42 852 64 q 865 0 861 20 l 732 0 l 704 256 m 1027 1355 l 685 1069 l 570 1069 l 858 1355 l 1027 1355 z "},"":{"ha":773,"x_min":68,"x_max":889,"o":"m 733 562 l 707 455 l 320 455 l 234 110 l 413 110 q 583 111 514 110 q 694 119 651 113 l 665 0 l 68 0 q 105 115 85 40 q 150 289 125 190 l 248 682 q 290 855 272 780 q 309 970 307 930 l 886 970 l 859 861 l 421 861 l 347 562 l 733 562 m 604 1199 q 596 1160 604 1179 q 573 1127 587 1141 q 539 1104 558 1113 q 498 1096 519 1096 q 468 1102 481 1096 q 444 1119 454 1108 q 428 1143 434 1129 q 422 1173 422 1157 q 430 1209 422 1191 q 451 1242 437 1227 q 485 1266 465 1257 q 529 1275 505 1275 q 559 1269 545 1275 q 583 1253 573 1263 q 599 1229 593 1242 q 604 1199 604 1215 m 889 1199 q 881 1160 889 1179 q 858 1127 872 1141 q 824 1104 843 1113 q 783 1096 804 1096 q 752 1102 766 1096 q 729 1119 739 1108 q 713 1143 719 1129 q 707 1173 707 1157 q 715 1209 707 1191 q 736 1242 722 1227 q 770 1266 750 1257 q 814 1275 789 1275 q 844 1269 830 1275 q 868 1253 858 1263 q 884 1229 878 1242 q 889 1199 889 1215 z "},"":{"ha":773,"x_min":68,"x_max":886,"o":"m 733 562 l 707 455 l 320 455 l 234 110 l 413 110 q 583 111 514 110 q 694 119 651 113 l 665 0 l 68 0 q 105 115 85 40 q 150 289 125 190 l 248 682 q 290 855 272 780 q 309 970 307 930 l 886 970 l 859 861 l 421 861 l 347 562 l 733 562 m 575 1355 l 762 1069 l 660 1069 l 433 1355 l 575 1355 z "},"":{"ha":648,"x_min":54,"x_max":884,"o":"m 753 970 l 730 874 l 564 874 l 370 96 l 536 96 l 512 0 l 54 0 l 78 96 l 241 96 l 435 874 l 272 874 l 296 970 l 753 970 m 884 1355 l 543 1069 l 427 1069 l 715 1355 l 884 1355 z "},"":{"ha":648,"x_min":54,"x_max":813,"o":"m 753 970 l 730 874 l 564 874 l 370 96 l 536 96 l 512 0 l 54 0 l 78 96 l 241 96 l 435 874 l 272 874 l 296 970 l 753 970 m 237 1069 l 526 1355 l 641 1355 l 813 1069 l 712 1069 l 572 1255 l 339 1069 l 237 1069 z "},"":{"ha":648,"x_min":54,"x_max":806,"o":"m 753 970 l 730 874 l 564 874 l 370 96 l 536 96 l 512 0 l 54 0 l 78 96 l 241 96 l 435 874 l 272 874 l 296 970 l 753 970 m 521 1199 q 512 1160 521 1179 q 489 1127 504 1141 q 455 1104 475 1113 q 414 1096 436 1096 q 384 1102 398 1096 q 360 1119 370 1108 q 345 1143 351 1129 q 339 1173 339 1157 q 347 1209 339 1191 q 368 1242 354 1227 q 401 1266 382 1257 q 446 1275 421 1275 q 476 1269 462 1275 q 500 1253 490 1263 q 515 1229 510 1242 q 521 1199 521 1215 m 806 1199 q 797 1160 806 1179 q 774 1127 789 1141 q 740 1104 760 1113 q 699 1096 721 1096 q 669 1102 683 1096 q 645 1119 655 1108 q 630 1143 635 1129 q 624 1173 624 1157 q 631 1209 624 1191 q 653 1242 639 1227 q 686 1266 667 1257 q 730 1275 706 1275 q 761 1269 747 1275 q 785 1253 774 1263 q 800 1229 795 1242 q 806 1199 806 1215 z "},"":{"ha":648,"x_min":54,"x_max":753,"o":"m 753 970 l 730 874 l 564 874 l 370 96 l 536 96 l 512 0 l 54 0 l 78 96 l 241 96 l 435 874 l 272 874 l 296 970 l 753 970 m 492 1355 l 678 1069 l 576 1069 l 349 1355 l 492 1355 z "},"":{"ha":981,"x_min":125,"x_max":1047,"o":"m 1012 631 q 990 457 1012 541 q 929 302 968 374 q 837 171 890 230 q 721 70 783 112 q 590 6 659 28 q 452 -17 522 -17 q 325 7 384 -17 q 221 76 265 31 q 151 188 176 122 q 125 339 125 254 q 148 513 125 430 q 209 669 170 597 q 301 799 248 741 q 417 900 355 858 q 549 964 479 941 q 688 987 618 987 q 814 963 755 987 q 917 893 873 939 q 986 782 961 848 q 1012 631 1012 715 m 488 100 q 601 122 548 100 q 696 181 653 144 q 773 269 739 218 q 829 375 806 319 q 864 490 852 431 q 876 605 876 549 q 860 715 876 666 q 815 799 844 764 q 745 852 787 833 q 653 871 704 871 q 540 849 593 871 q 444 790 488 827 q 367 703 401 753 q 310 597 333 653 q 274 482 286 541 q 262 367 262 422 q 277 256 262 306 q 322 172 293 207 q 394 118 352 137 q 488 100 435 100 m 1047 1355 l 705 1069 l 590 1069 l 878 1355 l 1047 1355 z "},"":{"ha":981,"x_min":125,"x_max":1012,"o":"m 1012 631 q 990 457 1012 541 q 929 302 968 374 q 837 171 890 230 q 721 70 783 112 q 590 6 659 28 q 452 -17 522 -17 q 325 7 384 -17 q 221 76 265 31 q 151 188 176 122 q 125 339 125 254 q 148 513 125 430 q 209 669 170 597 q 301 799 248 741 q 417 900 355 858 q 549 964 479 941 q 688 987 618 987 q 814 963 755 987 q 917 893 873 939 q 986 782 961 848 q 1012 631 1012 715 m 488 100 q 601 122 548 100 q 696 181 653 144 q 773 269 739 218 q 829 375 806 319 q 864 490 852 431 q 876 605 876 549 q 860 715 876 666 q 815 799 844 764 q 745 852 787 833 q 653 871 704 871 q 540 849 593 871 q 444 790 488 827 q 367 703 401 753 q 310 597 333 653 q 274 482 286 541 q 262 367 262 422 q 277 256 262 306 q 322 172 293 207 q 394 118 352 137 q 488 100 435 100 m 400 1069 l 688 1355 l 804 1355 l 976 1069 l 875 1069 l 735 1255 l 502 1069 l 400 1069 z "},"":{"ha":736,"x_min":94,"x_max":726,"o":"m 445 569 q 448 584 445 576 q 457 596 452 591 q 470 606 463 602 q 486 609 477 609 q 504 602 497 609 q 511 584 511 595 q 508 569 511 576 q 498 557 504 562 q 484 549 492 552 q 470 546 477 546 q 452 552 458 546 q 445 569 445 559 m 375 39 q 362 12 375 23 q 334 0 350 0 q 316 7 323 0 q 309 24 309 14 q 322 51 309 39 q 350 63 334 63 q 368 56 361 63 q 375 39 375 50 m 547 549 q 559 576 547 564 q 587 588 572 588 q 606 581 599 588 q 612 563 612 573 q 609 548 612 555 q 599 536 605 541 q 585 527 593 530 q 571 524 578 524 q 553 532 559 524 q 547 549 547 540 m 273 59 q 260 32 273 43 q 233 20 247 20 q 214 28 221 20 q 207 46 207 37 q 211 60 207 53 q 220 72 214 66 q 234 80 227 77 q 249 83 241 83 q 267 76 260 83 q 273 59 273 69 m 622 491 q 634 517 622 506 q 663 529 647 529 q 681 522 674 529 q 688 505 688 515 q 675 478 688 490 q 647 465 663 465 q 629 473 635 465 q 622 491 622 481 m 198 120 q 185 93 198 105 q 157 80 173 80 q 139 87 146 80 q 132 104 132 94 q 135 118 132 111 q 144 131 138 125 q 157 140 150 136 q 172 143 164 143 q 191 137 184 143 q 198 120 198 130 m 726 416 q 713 389 726 401 q 684 377 701 377 q 667 384 674 377 q 660 400 660 390 q 663 415 660 408 q 672 428 667 422 q 686 437 678 433 q 701 441 693 441 q 719 434 712 441 q 726 416 726 427 m 161 208 q 157 194 161 201 q 148 181 153 186 q 134 172 142 175 q 119 168 127 168 q 100 175 107 168 q 94 193 94 182 q 106 220 94 208 q 135 231 119 231 q 154 225 146 231 q 161 208 161 218 m 696 336 q 714 329 707 336 q 722 312 722 322 q 709 285 722 297 q 681 273 696 273 q 661 280 668 273 q 654 297 654 287 q 658 312 654 305 q 668 325 662 319 q 682 333 674 330 q 696 336 689 336 m 139 336 q 158 329 151 336 q 165 311 165 321 q 161 296 165 303 q 151 284 157 290 q 138 276 145 279 q 124 273 130 273 q 105 280 112 273 q 98 297 98 287 q 111 324 98 313 q 139 336 123 336 m 674 208 q 661 180 674 192 q 633 169 648 169 q 614 176 621 169 q 608 193 608 183 q 612 209 608 202 q 622 221 616 216 q 636 229 629 227 q 650 231 644 231 q 667 225 660 231 q 674 208 673 218 m 212 415 q 208 400 212 407 q 198 388 204 393 q 184 380 192 383 q 170 377 177 377 q 152 385 158 377 q 146 401 146 392 q 150 417 146 410 q 159 429 153 424 q 172 438 165 435 q 186 441 179 441 q 204 433 197 441 q 212 415 212 426 m 592 119 q 579 92 592 104 q 551 81 566 81 q 532 87 539 81 q 525 104 525 94 q 537 131 525 119 q 565 143 549 143 q 584 137 576 143 q 592 119 591 131 m 269 529 q 286 522 278 529 q 294 505 294 515 q 281 477 294 488 q 254 466 269 466 q 235 473 242 466 q 228 490 228 479 q 232 505 228 498 q 241 517 235 512 q 255 526 248 523 q 269 529 262 529 m 459 84 q 479 77 471 84 q 487 58 487 70 q 474 33 487 45 q 446 20 461 20 q 428 27 435 20 q 420 45 420 35 q 432 72 420 59 q 459 84 444 84 m 399 566 q 388 537 399 551 q 359 524 377 524 q 340 531 348 524 q 333 549 333 538 q 346 575 333 563 q 375 588 359 588 q 392 583 385 588 q 399 566 399 578 z "},"":{"ha":981,"x_min":125,"x_max":1012,"o":"m 1012 631 q 990 457 1012 541 q 929 302 968 374 q 837 171 890 230 q 721 70 783 112 q 590 6 659 28 q 452 -17 522 -17 q 325 7 384 -17 q 221 76 265 31 q 151 188 176 122 q 125 339 125 254 q 148 513 125 430 q 209 669 170 597 q 301 799 248 741 q 417 900 355 858 q 549 964 479 941 q 688 987 618 987 q 814 963 755 987 q 917 893 873 939 q 986 782 961 848 q 1012 631 1012 715 m 488 100 q 601 122 548 100 q 696 181 653 144 q 773 269 739 218 q 829 375 806 319 q 864 490 852 431 q 876 605 876 549 q 860 715 876 666 q 815 799 844 764 q 745 852 787 833 q 653 871 704 871 q 540 849 593 871 q 444 790 488 827 q 367 703 401 753 q 310 597 333 653 q 274 482 286 541 q 262 367 262 422 q 277 256 262 306 q 322 172 293 207 q 394 118 352 137 q 488 100 435 100 m 654 1355 l 841 1069 l 739 1069 l 512 1355 l 654 1355 z "},"":{"ha":963,"x_min":155,"x_max":1052,"o":"m 1052 970 q 1016 857 1036 930 q 970 682 996 785 l 881 326 q 825 185 861 248 q 735 77 789 122 q 606 8 680 33 q 436 -17 532 -17 q 308 5 361 -17 q 221 64 255 26 q 171 151 187 101 q 155 257 155 201 q 170 374 155 313 l 248 682 q 290 855 273 781 q 309 970 307 930 l 448 970 l 304 395 q 290 328 295 361 q 286 265 286 296 q 294 196 286 228 q 324 140 303 163 q 378 103 345 117 q 463 90 412 90 q 654 158 581 90 q 764 372 728 227 l 913 970 l 1052 970 m 1040 1355 l 699 1069 l 583 1069 l 871 1355 l 1040 1355 z "},"":{"ha":963,"x_min":155,"x_max":1052,"o":"m 1052 970 q 1016 857 1036 930 q 970 682 996 785 l 881 326 q 825 185 861 248 q 735 77 789 122 q 606 8 680 33 q 436 -17 532 -17 q 308 5 361 -17 q 221 64 255 26 q 171 151 187 101 q 155 257 155 201 q 170 374 155 313 l 248 682 q 290 855 273 781 q 309 970 307 930 l 448 970 l 304 395 q 290 328 295 361 q 286 265 286 296 q 294 196 286 228 q 324 140 303 163 q 378 103 345 117 q 463 90 412 90 q 654 158 581 90 q 764 372 728 227 l 913 970 l 1052 970 m 393 1069 l 682 1355 l 797 1355 l 969 1069 l 868 1069 l 728 1255 l 495 1069 l 393 1069 z "},"":{"ha":963,"x_min":155,"x_max":1052,"o":"m 1052 970 q 1016 857 1036 930 q 970 682 996 785 l 881 326 q 825 185 861 248 q 735 77 789 122 q 606 8 680 33 q 436 -17 532 -17 q 308 5 361 -17 q 221 64 255 26 q 171 151 187 101 q 155 257 155 201 q 170 374 155 313 l 248 682 q 290 855 273 781 q 309 970 307 930 l 448 970 l 304 395 q 290 328 295 361 q 286 265 286 296 q 294 196 286 228 q 324 140 303 163 q 378 103 345 117 q 463 90 412 90 q 654 158 581 90 q 764 372 728 227 l 913 970 l 1052 970 m 648 1355 l 834 1069 l 732 1069 l 505 1355 l 648 1355 z "},"":{"ha":376,"x_min":112,"x_max":356,"o":"m 356 678 q 350 621 356 656 q 335 543 345 585 q 315 455 326 501 q 292 363 304 408 l 262 242 q 248 168 252 206 q 244 92 244 129 q 247 43 244 66 q 252 0 249 19 l 117 0 q 112 59 112 23 q 119 156 112 102 q 140 263 127 210 l 167 364 q 188 446 177 403 q 207 530 199 488 q 221 611 216 572 q 227 678 227 649 l 356 678 z "},"":{"ha":576,"x_min":159,"x_max":736,"o":"m 159 778 l 448 1063 l 563 1063 l 736 778 l 634 778 l 494 964 l 261 778 l 159 778 z "},"":{"ha":468,"x_min":159,"x_max":679,"o":"m 159 801 q 183 861 166 831 q 222 912 199 890 q 272 949 245 935 q 330 964 300 964 q 383 953 359 964 q 439 929 407 943 q 493 906 472 915 q 536 897 515 897 q 559 902 549 897 q 579 916 570 907 q 596 935 589 924 q 608 957 603 945 l 679 957 q 654 896 671 925 q 614 844 637 866 q 563 808 591 821 q 503 794 534 794 q 451 803 476 794 q 398 826 426 812 q 342 852 363 844 q 302 861 321 861 q 258 843 277 861 q 230 801 239 825 l 159 801 z "},"":{"ha":468,"x_min":164,"x_max":671,"o":"m 189 924 l 671 924 l 646 824 l 164 824 l 189 924 z "},"":{"ha":495,"x_min":168,"x_max":684,"o":"m 684 1030 q 643 934 671 982 q 574 849 615 886 q 481 788 533 811 q 370 764 429 764 q 282 781 320 764 q 219 826 245 798 q 181 891 194 854 q 168 968 168 928 q 170 999 168 983 q 176 1030 172 1015 l 257 1030 q 256 1017 256 1023 l 256 1004 q 264 949 256 975 q 289 905 273 924 q 329 875 305 886 q 382 864 352 864 q 448 877 415 864 q 511 913 481 890 q 564 966 541 937 q 601 1030 587 996 l 684 1030 z "},"":{"ha":170,"x_min":180,"x_max":367,"o":"m 180 882 q 189 921 180 903 q 213 953 198 939 q 248 975 228 967 q 289 983 267 983 q 319 977 305 983 q 344 961 334 971 q 361 936 355 950 q 367 906 367 922 q 358 867 367 886 q 334 835 349 849 q 299 812 319 821 q 258 804 279 804 q 227 811 241 804 q 202 828 213 817 q 186 852 192 838 q 180 882 180 867 z "},"":{"ha":278,"x_min":184,"x_max":484,"o":"m 184 895 q 199 959 184 928 q 238 1013 214 989 q 295 1049 263 1036 q 363 1063 328 1063 q 412 1054 389 1063 q 450 1029 434 1045 q 475 991 466 1013 q 484 945 484 970 q 469 882 484 912 q 430 828 454 851 q 373 791 405 805 q 305 778 340 778 q 257 787 279 778 q 219 812 235 796 q 194 849 203 828 q 184 895 184 871 m 317 854 q 350 860 334 854 q 378 878 366 867 q 397 905 390 890 q 405 939 405 921 q 391 974 405 961 q 351 987 376 987 q 319 980 334 987 q 291 962 303 974 q 271 935 279 951 q 264 901 264 920 q 278 867 264 880 q 317 854 292 854 z "},"":{"ha":251,"x_min":-154,"x_max":144,"o":"m 53 34 l 28 -63 q 43 -61 36 -62 q 62 -60 51 -60 q 123 -84 101 -60 q 144 -147 144 -109 q 125 -217 144 -186 q 75 -271 106 -249 q 6 -306 44 -294 q -69 -319 -32 -319 q -116 -311 -96 -319 q -154 -292 -136 -304 l -131 -226 q -104 -241 -119 -237 q -68 -246 -90 -246 q -32 -241 -51 -246 q 4 -227 -12 -237 q 31 -201 20 -216 q 42 -165 42 -186 q 28 -132 42 -144 q -10 -119 14 -119 q -44 -124 -26 -119 q -75 -136 -62 -130 l -32 34 l 53 34 z "},"":{"ha":522,"x_min":149,"x_max":753,"o":"m 522 1063 l 251 764 l 149 764 l 366 1063 l 522 1063 m 753 1063 l 481 764 l 380 764 l 597 1063 l 753 1063 z "},"":{"ha":288,"x_min":-122,"x_max":164,"o":"m 122 0 q 76 -27 101 -12 q 29 -63 51 -43 q -7 -106 7 -83 q -22 -154 -22 -129 q -5 -194 -22 -179 q 43 -210 12 -210 q 69 -206 54 -210 q 100 -195 84 -202 q 133 -179 117 -189 q 161 -159 149 -170 l 164 -226 q 88 -270 127 -255 q 11 -286 49 -286 q -40 -277 -16 -286 q -83 -253 -64 -268 q -112 -216 -101 -237 q -122 -171 -122 -195 q -109 -114 -122 -140 q -75 -66 -96 -87 q -27 -29 -54 -45 q 27 0 -1 -12 l 122 0 z "},"":{"ha":563,"x_min":224,"x_max":800,"o":"m 326 1063 l 466 878 l 699 1063 l 800 1063 l 512 778 l 397 778 l 224 1063 l 326 1063 z "},"":{"ha":768,"x_min":85,"x_max":797,"o":"m 649 573 q 605 581 633 576 q 526 585 577 585 q 416 561 465 585 q 330 495 367 536 q 266 400 292 454 q 225 286 240 346 q 215 210 215 245 q 219 164 215 185 q 232 128 224 143 q 253 104 241 113 q 279 95 264 95 q 335 115 302 95 q 404 166 368 134 q 476 240 439 199 q 543 326 512 282 q 597 412 574 370 q 628 488 619 454 l 649 573 m 557 0 q 559 52 557 23 q 564 111 561 81 q 571 169 567 140 q 581 219 576 197 l 595 273 q 550 205 576 239 q 494 139 524 172 q 431 79 464 107 q 365 29 398 50 q 298 -5 331 7 q 237 -17 266 -17 q 176 -5 203 -17 q 127 31 148 7 q 96 90 107 55 q 85 170 85 125 q 89 221 85 194 q 100 279 92 249 q 134 382 111 332 q 187 479 156 433 q 258 564 218 525 q 345 631 298 603 q 445 676 392 660 q 557 692 498 692 q 685 683 623 692 q 797 661 748 675 l 720 352 q 695 235 704 289 q 682 136 686 180 q 677 57 678 92 q 676 0 676 23 l 557 0 z "},"":{"ha":768,"x_min":85,"x_max":892,"o":"m 649 573 q 605 581 633 576 q 526 585 577 585 q 416 561 465 585 q 330 495 367 536 q 266 400 292 454 q 225 286 240 346 q 215 210 215 245 q 219 164 215 185 q 232 128 224 143 q 253 104 241 113 q 279 95 264 95 q 335 115 302 95 q 404 166 368 134 q 476 240 439 199 q 543 326 512 282 q 597 412 574 370 q 628 488 619 454 l 649 573 m 557 0 q 559 52 557 23 q 564 111 561 81 q 571 169 567 140 q 581 219 576 197 l 595 273 q 550 205 576 239 q 494 139 524 172 q 431 79 464 107 q 365 29 398 50 q 298 -5 331 7 q 237 -17 266 -17 q 176 -5 203 -17 q 127 31 148 7 q 96 90 107 55 q 85 170 85 125 q 89 221 85 194 q 100 279 92 249 q 134 382 111 332 q 187 479 156 433 q 258 564 218 525 q 345 631 298 603 q 445 676 392 660 q 557 692 498 692 q 685 683 623 692 q 797 661 748 675 l 720 352 q 695 235 704 289 q 682 136 686 180 q 677 57 678 92 q 676 0 676 23 l 557 0 m 892 1063 l 550 778 l 435 778 l 723 1063 l 892 1063 z "},"":{"ha":768,"x_min":85,"x_max":797,"o":"m 649 573 q 605 581 633 576 q 526 585 577 585 q 416 561 465 585 q 330 495 367 536 q 266 400 292 454 q 225 286 240 346 q 215 210 215 245 q 219 164 215 185 q 232 128 224 143 q 253 104 241 113 q 279 95 264 95 q 335 115 302 95 q 404 166 368 134 q 476 240 439 199 q 543 326 512 282 q 597 412 574 370 q 628 488 619 454 l 649 573 m 557 0 q 559 52 557 23 q 564 111 561 81 q 571 169 567 140 q 581 219 576 197 l 595 273 q 550 205 576 239 q 494 139 524 172 q 431 79 464 107 q 365 29 398 50 q 298 -5 331 7 q 237 -17 266 -17 q 176 -5 203 -17 q 127 31 148 7 q 96 90 107 55 q 85 170 85 125 q 89 221 85 194 q 100 279 92 249 q 134 382 111 332 q 187 479 156 433 q 258 564 218 525 q 345 631 298 603 q 445 676 392 660 q 557 692 498 692 q 685 683 623 692 q 797 661 748 675 l 720 352 q 695 235 704 289 q 682 136 686 180 q 677 57 678 92 q 676 0 676 23 l 557 0 m 499 1063 l 686 778 l 584 778 l 357 1063 l 499 1063 z "},"":{"ha":768,"x_min":85,"x_max":821,"o":"m 649 573 q 605 581 633 576 q 526 585 577 585 q 416 561 465 585 q 330 495 367 536 q 266 400 292 454 q 225 286 240 346 q 215 210 215 245 q 219 164 215 185 q 232 128 224 143 q 253 104 241 113 q 279 95 264 95 q 335 115 302 95 q 404 166 368 134 q 476 240 439 199 q 543 326 512 282 q 597 412 574 370 q 628 488 619 454 l 649 573 m 557 0 q 559 52 557 23 q 564 111 561 81 q 571 169 567 140 q 581 219 576 197 l 595 273 q 550 205 576 239 q 494 139 524 172 q 431 79 464 107 q 365 29 398 50 q 298 -5 331 7 q 237 -17 266 -17 q 176 -5 203 -17 q 127 31 148 7 q 96 90 107 55 q 85 170 85 125 q 89 221 85 194 q 100 279 92 249 q 134 382 111 332 q 187 479 156 433 q 258 564 218 525 q 345 631 298 603 q 445 676 392 660 q 557 692 498 692 q 685 683 623 692 q 797 661 748 675 l 720 352 q 695 235 704 289 q 682 136 686 180 q 677 57 678 92 q 676 0 676 23 l 557 0 m 245 778 l 533 1063 l 648 1063 l 821 778 l 720 778 l 580 964 l 347 778 l 245 778 z "},"":{"ha":768,"x_min":85,"x_max":821,"o":"m 649 573 q 605 581 633 576 q 526 585 577 585 q 416 561 465 585 q 330 495 367 536 q 266 400 292 454 q 225 286 240 346 q 215 210 215 245 q 219 164 215 185 q 232 128 224 143 q 253 104 241 113 q 279 95 264 95 q 335 115 302 95 q 404 166 368 134 q 476 240 439 199 q 543 326 512 282 q 597 412 574 370 q 628 488 619 454 l 649 573 m 557 0 q 559 52 557 23 q 564 111 561 81 q 571 169 567 140 q 581 219 576 197 l 595 273 q 550 205 576 239 q 494 139 524 172 q 431 79 464 107 q 365 29 398 50 q 298 -5 331 7 q 237 -17 266 -17 q 176 -5 203 -17 q 127 31 148 7 q 96 90 107 55 q 85 170 85 125 q 89 221 85 194 q 100 279 92 249 q 134 382 111 332 q 187 479 156 433 q 258 564 218 525 q 345 631 298 603 q 445 676 392 660 q 557 692 498 692 q 685 683 623 692 q 797 661 748 675 l 720 352 q 695 235 704 289 q 682 136 686 180 q 677 57 678 92 q 676 0 676 23 l 557 0 m 403 -193 q 394 -232 403 -213 q 371 -264 386 -250 q 337 -287 357 -279 q 296 -296 318 -296 q 266 -290 280 -296 q 242 -273 252 -283 q 227 -249 233 -262 q 221 -219 221 -235 q 229 -182 221 -201 q 250 -150 236 -164 q 283 -126 264 -135 q 328 -117 303 -117 q 358 -123 344 -117 q 382 -139 372 -129 q 397 -163 392 -149 q 403 -193 403 -177 m 245 778 l 533 1063 l 648 1063 l 821 778 l 720 778 l 580 964 l 347 778 l 245 778 z "},"":{"ha":768,"x_min":85,"x_max":959,"o":"m 649 573 q 605 581 633 576 q 526 585 577 585 q 416 561 465 585 q 330 495 367 536 q 266 400 292 454 q 225 286 240 346 q 215 210 215 245 q 219 164 215 185 q 232 128 224 143 q 253 104 241 113 q 279 95 264 95 q 335 115 302 95 q 404 166 368 134 q 476 240 439 199 q 543 326 512 282 q 597 412 574 370 q 628 488 619 454 l 649 573 m 557 0 q 559 52 557 23 q 564 111 561 81 q 571 169 567 140 q 581 219 576 197 l 595 273 q 550 205 576 239 q 494 139 524 172 q 431 79 464 107 q 365 29 398 50 q 298 -5 331 7 q 237 -17 266 -17 q 176 -5 203 -17 q 127 31 148 7 q 96 90 107 55 q 85 170 85 125 q 89 221 85 194 q 100 279 92 249 q 134 382 111 332 q 187 479 156 433 q 258 564 218 525 q 345 631 298 603 q 445 676 392 660 q 557 692 498 692 q 685 683 623 692 q 797 661 748 675 l 720 352 q 695 235 704 289 q 682 136 686 180 q 677 57 678 92 q 676 0 676 23 l 557 0 m 245 778 l 533 1063 l 648 1063 l 821 778 l 720 778 l 580 964 l 347 778 l 245 778 m 959 1426 l 617 1141 l 502 1141 l 790 1426 l 959 1426 z "},"":{"ha":768,"x_min":85,"x_max":821,"o":"m 649 573 q 605 581 633 576 q 526 585 577 585 q 416 561 465 585 q 330 495 367 536 q 266 400 292 454 q 225 286 240 346 q 215 210 215 245 q 219 164 215 185 q 232 128 224 143 q 253 104 241 113 q 279 95 264 95 q 335 115 302 95 q 404 166 368 134 q 476 240 439 199 q 543 326 512 282 q 597 412 574 370 q 628 488 619 454 l 649 573 m 557 0 q 559 52 557 23 q 564 111 561 81 q 571 169 567 140 q 581 219 576 197 l 595 273 q 550 205 576 239 q 494 139 524 172 q 431 79 464 107 q 365 29 398 50 q 298 -5 331 7 q 237 -17 266 -17 q 176 -5 203 -17 q 127 31 148 7 q 96 90 107 55 q 85 170 85 125 q 89 221 85 194 q 100 279 92 249 q 134 382 111 332 q 187 479 156 433 q 258 564 218 525 q 345 631 298 603 q 445 676 392 660 q 557 692 498 692 q 685 683 623 692 q 797 661 748 675 l 720 352 q 695 235 704 289 q 682 136 686 180 q 677 57 678 92 q 676 0 676 23 l 557 0 m 245 778 l 533 1063 l 648 1063 l 821 778 l 720 778 l 580 964 l 347 778 l 245 778 m 566 1426 l 753 1141 l 651 1141 l 424 1426 l 566 1426 z "},"":{"ha":768,"x_min":85,"x_max":888,"o":"m 649 573 q 605 581 633 576 q 526 585 577 585 q 416 561 465 585 q 330 495 367 536 q 266 400 292 454 q 225 286 240 346 q 215 210 215 245 q 219 164 215 185 q 232 128 224 143 q 253 104 241 113 q 279 95 264 95 q 335 115 302 95 q 404 166 368 134 q 476 240 439 199 q 543 326 512 282 q 597 412 574 370 q 628 488 619 454 l 649 573 m 557 0 q 559 52 557 23 q 564 111 561 81 q 571 169 567 140 q 581 219 576 197 l 595 273 q 550 205 576 239 q 494 139 524 172 q 431 79 464 107 q 365 29 398 50 q 298 -5 331 7 q 237 -17 266 -17 q 176 -5 203 -17 q 127 31 148 7 q 96 90 107 55 q 85 170 85 125 q 89 221 85 194 q 100 279 92 249 q 134 382 111 332 q 187 479 156 433 q 258 564 218 525 q 345 631 298 603 q 445 676 392 660 q 557 692 498 692 q 685 683 623 692 q 797 661 748 675 l 720 352 q 695 235 704 289 q 682 136 686 180 q 677 57 678 92 q 676 0 676 23 l 557 0 m 245 778 l 533 1063 l 648 1063 l 821 778 l 720 778 l 580 964 l 347 778 l 245 778 m 368 1164 q 392 1223 376 1194 q 432 1275 409 1253 q 482 1312 454 1298 q 540 1326 509 1326 q 592 1316 568 1326 q 648 1292 616 1305 q 703 1269 682 1278 q 746 1260 724 1260 q 769 1265 758 1260 q 789 1278 780 1270 q 805 1297 798 1286 q 817 1320 812 1308 l 888 1320 q 864 1258 880 1288 q 824 1206 847 1229 q 772 1171 801 1184 q 713 1157 744 1157 q 661 1166 686 1157 q 608 1189 635 1175 q 552 1215 573 1206 q 511 1223 530 1223 q 467 1206 486 1223 q 439 1164 448 1188 l 368 1164 z "},"":{"ha":768,"x_min":85,"x_max":821,"o":"m 649 573 q 605 581 633 576 q 526 585 577 585 q 416 561 465 585 q 330 495 367 536 q 266 400 292 454 q 225 286 240 346 q 215 210 215 245 q 219 164 215 185 q 232 128 224 143 q 253 104 241 113 q 279 95 264 95 q 335 115 302 95 q 404 166 368 134 q 476 240 439 199 q 543 326 512 282 q 597 412 574 370 q 628 488 619 454 l 649 573 m 557 0 q 559 52 557 23 q 564 111 561 81 q 571 169 567 140 q 581 219 576 197 l 595 273 q 550 205 576 239 q 494 139 524 172 q 431 79 464 107 q 365 29 398 50 q 298 -5 331 7 q 237 -17 266 -17 q 176 -5 203 -17 q 127 31 148 7 q 96 90 107 55 q 85 170 85 125 q 89 221 85 194 q 100 279 92 249 q 134 382 111 332 q 187 479 156 433 q 258 564 218 525 q 345 631 298 603 q 445 676 392 660 q 557 692 498 692 q 685 683 623 692 q 797 661 748 675 l 720 352 q 695 235 704 289 q 682 136 686 180 q 677 57 678 92 q 676 0 676 23 l 557 0 m 245 778 l 533 1063 l 648 1063 l 821 778 l 720 778 l 580 964 l 347 778 l 245 778 m 564 1110 q 588 1184 575 1153 q 621 1238 602 1215 q 649 1262 631 1249 q 686 1290 668 1275 q 718 1320 705 1304 q 732 1351 732 1335 q 714 1382 732 1371 q 665 1393 696 1393 q 607 1380 635 1393 q 552 1346 578 1367 l 552 1416 q 612 1449 578 1436 q 686 1463 646 1463 q 739 1455 714 1463 q 781 1433 763 1447 q 809 1400 799 1419 q 819 1362 819 1382 q 805 1315 819 1333 q 772 1282 791 1296 q 732 1255 753 1267 q 697 1225 711 1242 q 668 1178 680 1204 q 646 1110 656 1152 l 564 1110 z "},"":{"ha":768,"x_min":85,"x_max":860,"o":"m 649 573 q 605 581 633 576 q 526 585 577 585 q 416 561 465 585 q 330 495 367 536 q 266 400 292 454 q 225 286 240 346 q 215 210 215 245 q 219 164 215 185 q 232 128 224 143 q 253 104 241 113 q 279 95 264 95 q 335 115 302 95 q 404 166 368 134 q 476 240 439 199 q 543 326 512 282 q 597 412 574 370 q 628 488 619 454 l 649 573 m 557 0 q 559 52 557 23 q 564 111 561 81 q 571 169 567 140 q 581 219 576 197 l 595 273 q 550 205 576 239 q 494 139 524 172 q 431 79 464 107 q 365 29 398 50 q 298 -5 331 7 q 237 -17 266 -17 q 176 -5 203 -17 q 127 31 148 7 q 96 90 107 55 q 85 170 85 125 q 89 221 85 194 q 100 279 92 249 q 134 382 111 332 q 187 479 156 433 q 258 564 218 525 q 345 631 298 603 q 445 676 392 660 q 557 692 498 692 q 685 683 623 692 q 797 661 748 675 l 720 352 q 695 235 704 289 q 682 136 686 180 q 677 57 678 92 q 676 0 676 23 l 557 0 m 860 1030 q 820 934 848 982 q 750 849 791 886 q 657 788 709 811 q 547 764 606 764 q 459 781 496 764 q 396 826 421 798 q 357 891 370 854 q 345 968 345 928 q 346 999 345 983 q 352 1030 348 1015 l 433 1030 q 432 1017 432 1023 l 432 1004 q 440 949 432 975 q 465 905 449 924 q 505 875 481 886 q 558 864 528 864 q 625 877 591 864 q 687 913 658 890 q 740 966 717 937 q 777 1030 764 996 l 860 1030 z "},"":{"ha":768,"x_min":85,"x_max":860,"o":"m 649 573 q 605 581 633 576 q 526 585 577 585 q 416 561 465 585 q 330 495 367 536 q 266 400 292 454 q 225 286 240 346 q 215 210 215 245 q 219 164 215 185 q 232 128 224 143 q 253 104 241 113 q 279 95 264 95 q 335 115 302 95 q 404 166 368 134 q 476 240 439 199 q 543 326 512 282 q 597 412 574 370 q 628 488 619 454 l 649 573 m 557 0 q 559 52 557 23 q 564 111 561 81 q 571 169 567 140 q 581 219 576 197 l 595 273 q 550 205 576 239 q 494 139 524 172 q 431 79 464 107 q 365 29 398 50 q 298 -5 331 7 q 237 -17 266 -17 q 176 -5 203 -17 q 127 31 148 7 q 96 90 107 55 q 85 170 85 125 q 89 221 85 194 q 100 279 92 249 q 134 382 111 332 q 187 479 156 433 q 258 564 218 525 q 345 631 298 603 q 445 676 392 660 q 557 692 498 692 q 685 683 623 692 q 797 661 748 675 l 720 352 q 695 235 704 289 q 682 136 686 180 q 677 57 678 92 q 676 0 676 23 l 557 0 m 403 -193 q 394 -232 403 -213 q 371 -264 386 -250 q 337 -287 357 -279 q 296 -296 318 -296 q 266 -290 280 -296 q 242 -273 252 -283 q 227 -249 233 -262 q 221 -219 221 -235 q 229 -182 221 -201 q 250 -150 236 -164 q 283 -126 264 -135 q 328 -117 303 -117 q 358 -123 344 -117 q 382 -139 372 -129 q 397 -163 392 -149 q 403 -193 403 -177 m 860 1030 q 820 934 848 982 q 750 849 791 886 q 657 788 709 811 q 547 764 606 764 q 459 781 496 764 q 396 826 421 798 q 357 891 370 854 q 345 968 345 928 q 346 999 345 983 q 352 1030 348 1015 l 433 1030 q 432 1017 432 1023 l 432 1004 q 440 949 432 975 q 465 905 449 924 q 505 875 481 886 q 558 864 528 864 q 625 877 591 864 q 687 913 658 890 q 740 966 717 937 q 777 1030 764 996 l 860 1030 z "},"":{"ha":768,"x_min":85,"x_max":969,"o":"m 649 573 q 605 581 633 576 q 526 585 577 585 q 416 561 465 585 q 330 495 367 536 q 266 400 292 454 q 225 286 240 346 q 215 210 215 245 q 219 164 215 185 q 232 128 224 143 q 253 104 241 113 q 279 95 264 95 q 335 115 302 95 q 404 166 368 134 q 476 240 439 199 q 543 326 512 282 q 597 412 574 370 q 628 488 619 454 l 649 573 m 557 0 q 559 52 557 23 q 564 111 561 81 q 571 169 567 140 q 581 219 576 197 l 595 273 q 550 205 576 239 q 494 139 524 172 q 431 79 464 107 q 365 29 398 50 q 298 -5 331 7 q 237 -17 266 -17 q 176 -5 203 -17 q 127 31 148 7 q 96 90 107 55 q 85 170 85 125 q 89 221 85 194 q 100 279 92 249 q 134 382 111 332 q 187 479 156 433 q 258 564 218 525 q 345 631 298 603 q 445 676 392 660 q 557 692 498 692 q 685 683 623 692 q 797 661 748 675 l 720 352 q 695 235 704 289 q 682 136 686 180 q 677 57 678 92 q 676 0 676 23 l 557 0 m 860 1030 q 820 934 848 982 q 750 849 791 886 q 657 788 709 811 q 547 764 606 764 q 459 781 496 764 q 396 826 421 798 q 357 891 370 854 q 345 968 345 928 q 346 999 345 983 q 352 1030 348 1015 l 433 1030 q 432 1017 432 1023 l 432 1004 q 440 949 432 975 q 465 905 449 924 q 505 875 481 886 q 558 864 528 864 q 625 877 591 864 q 687 913 658 890 q 740 966 717 937 q 777 1030 764 996 l 860 1030 m 969 1426 l 627 1141 l 512 1141 l 800 1426 l 969 1426 z "},"":{"ha":768,"x_min":85,"x_max":860,"o":"m 649 573 q 605 581 633 576 q 526 585 577 585 q 416 561 465 585 q 330 495 367 536 q 266 400 292 454 q 225 286 240 346 q 215 210 215 245 q 219 164 215 185 q 232 128 224 143 q 253 104 241 113 q 279 95 264 95 q 335 115 302 95 q 404 166 368 134 q 476 240 439 199 q 543 326 512 282 q 597 412 574 370 q 628 488 619 454 l 649 573 m 557 0 q 559 52 557 23 q 564 111 561 81 q 571 169 567 140 q 581 219 576 197 l 595 273 q 550 205 576 239 q 494 139 524 172 q 431 79 464 107 q 365 29 398 50 q 298 -5 331 7 q 237 -17 266 -17 q 176 -5 203 -17 q 127 31 148 7 q 96 90 107 55 q 85 170 85 125 q 89 221 85 194 q 100 279 92 249 q 134 382 111 332 q 187 479 156 433 q 258 564 218 525 q 345 631 298 603 q 445 676 392 660 q 557 692 498 692 q 685 683 623 692 q 797 661 748 675 l 720 352 q 695 235 704 289 q 682 136 686 180 q 677 57 678 92 q 676 0 676 23 l 557 0 m 860 1030 q 820 934 848 982 q 750 849 791 886 q 657 788 709 811 q 547 764 606 764 q 459 781 496 764 q 396 826 421 798 q 357 891 370 854 q 345 968 345 928 q 346 999 345 983 q 352 1030 348 1015 l 433 1030 q 432 1017 432 1023 l 432 1004 q 440 949 432 975 q 465 905 449 924 q 505 875 481 886 q 558 864 528 864 q 625 877 591 864 q 687 913 658 890 q 740 966 717 937 q 777 1030 764 996 l 860 1030 m 576 1426 l 763 1141 l 661 1141 l 434 1426 l 576 1426 z "},"":{"ha":768,"x_min":85,"x_max":899,"o":"m 649 573 q 605 581 633 576 q 526 585 577 585 q 416 561 465 585 q 330 495 367 536 q 266 400 292 454 q 225 286 240 346 q 215 210 215 245 q 219 164 215 185 q 232 128 224 143 q 253 104 241 113 q 279 95 264 95 q 335 115 302 95 q 404 166 368 134 q 476 240 439 199 q 543 326 512 282 q 597 412 574 370 q 628 488 619 454 l 649 573 m 557 0 q 559 52 557 23 q 564 111 561 81 q 571 169 567 140 q 581 219 576 197 l 595 273 q 550 205 576 239 q 494 139 524 172 q 431 79 464 107 q 365 29 398 50 q 298 -5 331 7 q 237 -17 266 -17 q 176 -5 203 -17 q 127 31 148 7 q 96 90 107 55 q 85 170 85 125 q 89 221 85 194 q 100 279 92 249 q 134 382 111 332 q 187 479 156 433 q 258 564 218 525 q 345 631 298 603 q 445 676 392 660 q 557 692 498 692 q 685 683 623 692 q 797 661 748 675 l 720 352 q 695 235 704 289 q 682 136 686 180 q 677 57 678 92 q 676 0 676 23 l 557 0 m 860 1030 q 820 934 848 982 q 750 849 791 886 q 657 788 709 811 q 547 764 606 764 q 459 781 496 764 q 396 826 421 798 q 357 891 370 854 q 345 968 345 928 q 346 999 345 983 q 352 1030 348 1015 l 433 1030 q 432 1017 432 1023 l 432 1004 q 440 949 432 975 q 465 905 449 924 q 505 875 481 886 q 558 864 528 864 q 625 877 591 864 q 687 913 658 890 q 740 966 717 937 q 777 1030 764 996 l 860 1030 m 378 1164 q 402 1223 386 1194 q 442 1275 419 1253 q 492 1312 465 1298 q 550 1326 519 1326 q 603 1316 578 1326 q 659 1292 627 1305 q 713 1269 692 1278 q 756 1260 734 1260 q 779 1265 768 1260 q 799 1278 790 1270 q 815 1297 808 1286 q 827 1320 823 1308 l 899 1320 q 874 1258 890 1288 q 834 1206 857 1229 q 783 1171 811 1184 q 723 1157 754 1157 q 671 1166 696 1157 q 618 1189 646 1175 q 562 1215 583 1206 q 522 1223 541 1223 q 477 1206 496 1223 q 450 1164 458 1188 l 378 1164 z "},"":{"ha":768,"x_min":85,"x_max":860,"o":"m 649 573 q 605 581 633 576 q 526 585 577 585 q 416 561 465 585 q 330 495 367 536 q 266 400 292 454 q 225 286 240 346 q 215 210 215 245 q 219 164 215 185 q 232 128 224 143 q 253 104 241 113 q 279 95 264 95 q 335 115 302 95 q 404 166 368 134 q 476 240 439 199 q 543 326 512 282 q 597 412 574 370 q 628 488 619 454 l 649 573 m 557 0 q 559 52 557 23 q 564 111 561 81 q 571 169 567 140 q 581 219 576 197 l 595 273 q 550 205 576 239 q 494 139 524 172 q 431 79 464 107 q 365 29 398 50 q 298 -5 331 7 q 237 -17 266 -17 q 176 -5 203 -17 q 127 31 148 7 q 96 90 107 55 q 85 170 85 125 q 89 221 85 194 q 100 279 92 249 q 134 382 111 332 q 187 479 156 433 q 258 564 218 525 q 345 631 298 603 q 445 676 392 660 q 557 692 498 692 q 685 683 623 692 q 797 661 748 675 l 720 352 q 695 235 704 289 q 682 136 686 180 q 677 57 678 92 q 676 0 676 23 l 557 0 m 860 1030 q 820 934 848 982 q 750 849 791 886 q 657 788 709 811 q 547 764 606 764 q 459 781 496 764 q 396 826 421 798 q 357 891 370 854 q 345 968 345 928 q 346 999 345 983 q 352 1030 348 1015 l 433 1030 q 432 1017 432 1023 l 432 1004 q 440 949 432 975 q 465 905 449 924 q 505 875 481 886 q 558 864 528 864 q 625 877 591 864 q 687 913 658 890 q 740 966 717 937 q 777 1030 764 996 l 860 1030 m 574 1110 q 598 1184 585 1153 q 631 1238 612 1215 q 660 1262 641 1249 q 696 1290 678 1275 q 728 1320 715 1304 q 742 1351 742 1335 q 724 1382 742 1371 q 675 1393 706 1393 q 617 1380 646 1393 q 562 1346 588 1367 l 562 1416 q 622 1449 589 1436 q 696 1463 656 1463 q 749 1455 724 1463 q 791 1433 773 1447 q 819 1400 809 1419 q 829 1362 829 1382 q 815 1315 829 1333 q 782 1282 802 1296 q 742 1255 763 1267 q 707 1225 721 1242 q 678 1178 690 1204 q 656 1110 666 1152 l 574 1110 z "},"":{"ha":768,"x_min":85,"x_max":892,"o":"m 649 573 q 605 581 633 576 q 526 585 577 585 q 416 561 465 585 q 330 495 367 536 q 266 400 292 454 q 225 286 240 346 q 215 210 215 245 q 219 164 215 185 q 232 128 224 143 q 253 104 241 113 q 279 95 264 95 q 335 115 302 95 q 404 166 368 134 q 476 240 439 199 q 543 326 512 282 q 597 412 574 370 q 628 488 619 454 l 649 573 m 557 0 q 559 52 557 23 q 564 111 561 81 q 571 169 567 140 q 581 219 576 197 l 595 273 q 550 205 576 239 q 494 139 524 172 q 431 79 464 107 q 365 29 398 50 q 298 -5 331 7 q 237 -17 266 -17 q 176 -5 203 -17 q 127 31 148 7 q 96 90 107 55 q 85 170 85 125 q 89 221 85 194 q 100 279 92 249 q 134 382 111 332 q 187 479 156 433 q 258 564 218 525 q 345 631 298 603 q 445 676 392 660 q 557 692 498 692 q 685 683 623 692 q 797 661 748 675 l 720 352 q 695 235 704 289 q 682 136 686 180 q 677 57 678 92 q 676 0 676 23 l 557 0 m 418 1063 l 558 878 l 790 1063 l 892 1063 l 604 778 l 489 778 l 316 1063 l 418 1063 z "},"":{"ha":768,"x_min":85,"x_max":821,"o":"m 649 573 q 605 581 633 576 q 526 585 577 585 q 416 561 465 585 q 330 495 367 536 q 266 400 292 454 q 225 286 240 346 q 215 210 215 245 q 219 164 215 185 q 232 128 224 143 q 253 104 241 113 q 279 95 264 95 q 335 115 302 95 q 404 166 368 134 q 476 240 439 199 q 543 326 512 282 q 597 412 574 370 q 628 488 619 454 l 649 573 m 557 0 q 559 52 557 23 q 564 111 561 81 q 571 169 567 140 q 581 219 576 197 l 595 273 q 550 205 576 239 q 494 139 524 172 q 431 79 464 107 q 365 29 398 50 q 298 -5 331 7 q 237 -17 266 -17 q 176 -5 203 -17 q 127 31 148 7 q 96 90 107 55 q 85 170 85 125 q 89 221 85 194 q 100 279 92 249 q 134 382 111 332 q 187 479 156 433 q 258 564 218 525 q 345 631 298 603 q 445 676 392 660 q 557 692 498 692 q 685 683 623 692 q 797 661 748 675 l 720 352 q 695 235 704 289 q 682 136 686 180 q 677 57 678 92 q 676 0 676 23 l 557 0 m 301 801 q 325 861 309 831 q 365 912 342 890 q 415 949 387 935 q 473 964 442 964 q 525 953 501 964 q 581 929 549 943 q 636 906 614 915 q 679 897 657 897 q 702 902 691 897 q 722 916 713 907 q 738 935 731 924 q 750 957 745 945 l 821 957 q 797 896 813 925 q 757 844 780 866 q 705 808 734 821 q 646 794 677 794 q 593 803 618 794 q 541 826 568 812 q 485 852 506 844 q 444 861 463 861 q 400 843 419 861 q 372 801 381 825 l 301 801 z "},"":{"ha":768,"x_min":85,"x_max":817,"o":"m 649 573 q 605 581 633 576 q 526 585 577 585 q 416 561 465 585 q 330 495 367 536 q 266 400 292 454 q 225 286 240 346 q 215 210 215 245 q 219 164 215 185 q 232 128 224 143 q 253 104 241 113 q 279 95 264 95 q 335 115 302 95 q 404 166 368 134 q 476 240 439 199 q 543 326 512 282 q 597 412 574 370 q 628 488 619 454 l 649 573 m 557 0 q 559 52 557 23 q 564 111 561 81 q 571 169 567 140 q 581 219 576 197 l 595 273 q 550 205 576 239 q 494 139 524 172 q 431 79 464 107 q 365 29 398 50 q 298 -5 331 7 q 237 -17 266 -17 q 176 -5 203 -17 q 127 31 148 7 q 96 90 107 55 q 85 170 85 125 q 89 221 85 194 q 100 279 92 249 q 134 382 111 332 q 187 479 156 433 q 258 564 218 525 q 345 631 298 603 q 445 676 392 660 q 557 692 498 692 q 685 683 623 692 q 797 661 748 675 l 720 352 q 695 235 704 289 q 682 136 686 180 q 677 57 678 92 q 676 0 676 23 l 557 0 m 309 924 l 817 924 l 791 824 l 283 824 l 309 924 z "},"":{"ha":768,"x_min":85,"x_max":813,"o":"m 649 573 q 605 581 633 576 q 526 585 577 585 q 416 561 465 585 q 330 495 367 536 q 266 400 292 454 q 225 286 240 346 q 215 210 215 245 q 219 164 215 185 q 232 128 224 143 q 253 104 241 113 q 279 95 264 95 q 335 115 302 95 q 404 166 368 134 q 476 240 439 199 q 543 326 512 282 q 597 412 574 370 q 628 488 619 454 l 649 573 m 557 0 q 559 52 557 23 q 564 111 561 81 q 571 169 567 140 q 581 219 576 197 l 595 273 q 550 205 576 239 q 494 139 524 172 q 431 79 464 107 q 365 29 398 50 q 298 -5 331 7 q 237 -17 266 -17 q 176 -5 203 -17 q 127 31 148 7 q 96 90 107 55 q 85 170 85 125 q 89 221 85 194 q 100 279 92 249 q 134 382 111 332 q 187 479 156 433 q 258 564 218 525 q 345 631 298 603 q 445 676 392 660 q 557 692 498 692 q 685 683 623 692 q 797 661 748 675 l 720 352 q 695 235 704 289 q 682 136 686 180 q 677 57 678 92 q 676 0 676 23 l 557 0 m 528 907 q 520 868 528 887 q 497 836 511 850 q 463 813 482 821 q 422 804 444 804 q 392 810 406 804 q 368 827 378 817 q 352 851 358 838 q 347 881 347 865 q 354 918 347 899 q 375 950 361 936 q 409 974 389 965 q 453 983 429 983 q 483 977 469 983 q 507 961 497 971 q 523 937 517 951 q 528 907 528 923 m 813 907 q 805 868 813 887 q 782 836 796 850 q 748 813 767 821 q 707 804 728 804 q 676 810 690 804 q 653 827 663 817 q 637 851 643 838 q 631 881 631 865 q 639 918 631 899 q 660 950 646 936 q 694 974 674 965 q 738 983 713 983 q 768 977 754 983 q 792 961 782 971 q 808 937 802 951 q 813 907 813 923 z "},"":{"ha":768,"x_min":85,"x_max":882,"o":"m 649 573 q 605 581 633 576 q 526 585 577 585 q 416 561 465 585 q 330 495 367 536 q 266 400 292 454 q 225 286 240 346 q 215 210 215 245 q 219 164 215 185 q 232 128 224 143 q 253 104 241 113 q 279 95 264 95 q 335 115 302 95 q 404 166 368 134 q 476 240 439 199 q 543 326 512 282 q 597 412 574 370 q 628 488 619 454 l 649 573 m 557 0 q 559 52 557 23 q 564 111 561 81 q 571 169 567 140 q 581 219 576 197 l 595 273 q 550 205 576 239 q 494 139 524 172 q 431 79 464 107 q 365 29 398 50 q 298 -5 331 7 q 237 -17 266 -17 q 176 -5 203 -17 q 127 31 148 7 q 96 90 107 55 q 85 170 85 125 q 89 221 85 194 q 100 279 92 249 q 134 382 111 332 q 187 479 156 433 q 258 564 218 525 q 345 631 298 603 q 445 676 392 660 q 557 692 498 692 q 685 683 623 692 q 797 661 748 675 l 720 352 q 695 235 704 289 q 682 136 686 180 q 677 57 678 92 q 676 0 676 23 l 557 0 m 528 907 q 520 868 528 887 q 497 836 511 850 q 463 813 482 821 q 422 804 444 804 q 392 810 406 804 q 368 827 378 817 q 352 851 358 838 q 347 881 347 865 q 354 918 347 899 q 375 950 361 936 q 409 974 389 965 q 453 983 429 983 q 483 977 469 983 q 507 961 497 971 q 523 937 517 951 q 528 907 528 923 m 813 907 q 805 868 813 887 q 782 836 796 850 q 748 813 767 821 q 707 804 728 804 q 676 810 690 804 q 653 827 663 817 q 637 851 643 838 q 631 881 631 865 q 639 918 631 899 q 660 950 646 936 q 694 974 674 965 q 738 983 713 983 q 768 977 754 983 q 792 961 782 971 q 808 937 802 951 q 813 907 813 923 m 374 1198 l 882 1198 l 857 1099 l 349 1099 l 374 1198 z "},"":{"ha":768,"x_min":85,"x_max":797,"o":"m 649 573 q 605 581 633 576 q 526 585 577 585 q 416 561 465 585 q 330 495 367 536 q 266 400 292 454 q 225 286 240 346 q 215 210 215 245 q 219 164 215 185 q 232 128 224 143 q 253 104 241 113 q 279 95 264 95 q 335 115 302 95 q 404 166 368 134 q 476 240 439 199 q 543 326 512 282 q 597 412 574 370 q 628 488 619 454 l 649 573 m 557 0 q 559 52 557 23 q 564 111 561 81 q 571 169 567 140 q 581 219 576 197 l 595 273 q 550 205 576 239 q 494 139 524 172 q 431 79 464 107 q 365 29 398 50 q 298 -5 331 7 q 237 -17 266 -17 q 176 -5 203 -17 q 127 31 148 7 q 96 90 107 55 q 85 170 85 125 q 89 221 85 194 q 100 279 92 249 q 134 382 111 332 q 187 479 156 433 q 258 564 218 525 q 345 631 298 603 q 445 676 392 660 q 557 692 498 692 q 685 683 623 692 q 797 661 748 675 l 720 352 q 695 235 704 289 q 682 136 686 180 q 677 57 678 92 q 676 0 676 23 l 557 0 m 481 882 q 491 921 481 903 q 515 953 500 939 q 549 975 530 967 q 591 983 569 983 q 621 977 607 983 q 646 961 635 971 q 663 936 656 950 q 669 906 669 922 q 660 867 669 886 q 635 835 650 849 q 601 812 621 821 q 559 804 581 804 q 529 811 543 804 q 504 828 515 817 q 488 852 494 838 q 481 882 481 867 z "},"":{"ha":768,"x_min":85,"x_max":886,"o":"m 649 573 q 605 581 633 576 q 526 585 577 585 q 416 561 465 585 q 330 495 367 536 q 266 400 292 454 q 225 286 240 346 q 215 210 215 245 q 219 164 215 185 q 232 128 224 143 q 253 104 241 113 q 279 95 264 95 q 335 115 302 95 q 404 166 368 134 q 476 240 439 199 q 543 326 512 282 q 597 412 574 370 q 628 488 619 454 l 649 573 m 557 0 q 559 52 557 23 q 564 111 561 81 q 571 169 567 140 q 581 219 576 197 l 595 273 q 550 205 576 239 q 494 139 524 172 q 431 79 464 107 q 365 29 398 50 q 298 -5 331 7 q 237 -17 266 -17 q 176 -5 203 -17 q 127 31 148 7 q 96 90 107 55 q 85 170 85 125 q 89 221 85 194 q 100 279 92 249 q 134 382 111 332 q 187 479 156 433 q 258 564 218 525 q 345 631 298 603 q 445 676 392 660 q 557 692 498 692 q 685 683 623 692 q 797 661 748 675 l 720 352 q 695 235 704 289 q 682 136 686 180 q 677 57 678 92 q 676 0 676 23 l 557 0 m 481 882 q 491 921 481 903 q 515 953 500 939 q 549 975 530 967 q 591 983 569 983 q 621 977 607 983 q 646 961 635 971 q 663 936 656 950 q 669 906 669 922 q 660 867 669 886 q 635 835 650 849 q 601 812 621 821 q 559 804 581 804 q 529 811 543 804 q 504 828 515 817 q 488 852 494 838 q 481 882 481 867 m 378 1198 l 886 1198 l 861 1099 l 353 1099 l 378 1198 z "},"":{"ha":768,"x_min":85,"x_max":797,"o":"m 649 573 q 605 581 633 576 q 526 585 577 585 q 416 561 465 585 q 330 495 367 536 q 266 400 292 454 q 225 286 240 346 q 215 210 215 245 q 219 164 215 185 q 232 128 224 143 q 253 104 241 113 q 279 95 264 95 q 335 115 302 95 q 404 166 368 134 q 476 240 439 199 q 543 326 512 282 q 597 412 574 370 q 628 488 619 454 l 649 573 m 557 0 q 559 52 557 23 q 564 111 561 81 q 571 169 567 140 q 581 219 576 197 l 595 273 q 550 205 576 239 q 494 139 524 172 q 431 79 464 107 q 365 29 398 50 q 298 -5 331 7 q 237 -17 266 -17 q 176 -5 203 -17 q 127 31 148 7 q 96 90 107 55 q 85 170 85 125 q 89 221 85 194 q 100 279 92 249 q 134 382 111 332 q 187 479 156 433 q 258 564 218 525 q 345 631 298 603 q 445 676 392 660 q 557 692 498 692 q 685 683 623 692 q 797 661 748 675 l 720 352 q 695 235 704 289 q 682 136 686 180 q 677 57 678 92 q 676 0 676 23 l 557 0 m 422 895 q 436 959 422 928 q 476 1013 451 989 q 533 1049 500 1036 q 600 1063 565 1063 q 649 1054 627 1063 q 687 1029 671 1045 q 712 991 703 1013 q 722 945 722 970 q 707 882 722 912 q 667 828 692 851 q 610 791 642 805 q 543 778 578 778 q 494 787 516 778 q 456 812 472 796 q 431 849 440 828 q 422 895 422 871 m 555 854 q 587 860 571 854 q 615 878 603 867 q 635 905 627 890 q 642 939 642 921 q 628 974 642 961 q 588 987 614 987 q 556 980 572 987 q 528 962 541 974 q 509 935 516 951 q 501 901 501 920 q 515 867 501 880 q 555 854 529 854 z "},"":{"ha":768,"x_min":85,"x_max":1003,"o":"m 649 573 q 605 581 633 576 q 526 585 577 585 q 416 561 465 585 q 330 495 367 536 q 266 400 292 454 q 225 286 240 346 q 215 210 215 245 q 219 164 215 185 q 232 128 224 143 q 253 104 241 113 q 279 95 264 95 q 335 115 302 95 q 404 166 368 134 q 476 240 439 199 q 543 326 512 282 q 597 412 574 370 q 628 488 619 454 l 649 573 m 557 0 q 559 52 557 23 q 564 111 561 81 q 571 169 567 140 q 581 219 576 197 l 595 273 q 550 205 576 239 q 494 139 524 172 q 431 79 464 107 q 365 29 398 50 q 298 -5 331 7 q 237 -17 266 -17 q 176 -5 203 -17 q 127 31 148 7 q 96 90 107 55 q 85 170 85 125 q 89 221 85 194 q 100 279 92 249 q 134 382 111 332 q 187 479 156 433 q 258 564 218 525 q 345 631 298 603 q 445 676 392 660 q 557 692 498 692 q 685 683 623 692 q 797 661 748 675 l 720 352 q 695 235 704 289 q 682 136 686 180 q 677 57 678 92 q 676 0 676 23 l 557 0 m 422 895 q 436 959 422 928 q 476 1013 451 989 q 533 1049 500 1036 q 600 1063 565 1063 q 649 1054 627 1063 q 687 1029 671 1045 q 712 991 703 1013 q 722 945 722 970 q 707 882 722 912 q 667 828 692 851 q 610 791 642 805 q 543 778 578 778 q 494 787 516 778 q 456 812 472 796 q 431 849 440 828 q 422 895 422 871 m 555 854 q 587 860 571 854 q 615 878 603 867 q 635 905 627 890 q 642 939 642 921 q 628 974 642 961 q 588 987 614 987 q 556 980 572 987 q 528 962 541 974 q 509 935 516 951 q 501 901 501 920 q 515 867 501 880 q 555 854 529 854 m 1003 1426 l 661 1141 l 546 1141 l 834 1426 l 1003 1426 z "},"":{"ha":768,"x_min":85,"x_max":797,"o":"m 649 573 q 605 581 633 576 q 526 585 577 585 q 416 561 465 585 q 330 495 367 536 q 266 400 292 454 q 225 286 240 346 q 215 210 215 245 q 219 164 215 185 q 232 128 224 143 q 253 104 241 113 q 279 95 264 95 q 335 115 302 95 q 404 166 368 134 q 476 240 439 199 q 543 326 512 282 q 597 412 574 370 q 628 488 619 454 l 649 573 m 557 0 q 559 52 557 23 q 564 111 561 81 q 571 169 567 140 q 581 219 576 197 l 595 273 q 550 205 576 239 q 494 139 524 172 q 431 79 464 107 q 365 29 398 50 q 298 -5 331 7 q 237 -17 266 -17 q 176 -5 203 -17 q 127 31 148 7 q 96 90 107 55 q 85 170 85 125 q 89 221 85 194 q 100 279 92 249 q 134 382 111 332 q 187 479 156 433 q 258 564 218 525 q 345 631 298 603 q 445 676 392 660 q 557 692 498 692 q 685 683 623 692 q 797 661 748 675 l 720 352 q 695 235 704 289 q 682 136 686 180 q 677 57 678 92 q 676 0 676 23 l 557 0 m 497 747 q 521 821 508 790 q 554 875 534 852 q 582 899 564 886 q 619 927 601 912 q 651 957 637 941 q 665 988 665 972 q 647 1019 665 1008 q 598 1030 629 1030 q 539 1017 568 1030 q 485 983 511 1004 l 485 1053 q 545 1086 511 1073 q 619 1100 578 1100 q 671 1092 647 1100 q 714 1070 696 1084 q 742 1038 732 1056 q 752 999 752 1019 q 738 952 752 970 q 705 919 724 933 q 665 892 686 905 q 630 863 644 880 q 601 815 612 841 q 578 747 589 789 l 497 747 z "},"":{"ha":768,"x_min":85,"x_max":797,"o":"m 649 573 q 605 581 633 576 q 526 585 577 585 q 416 561 465 585 q 330 495 367 536 q 266 400 292 454 q 225 286 240 346 q 215 210 215 245 q 219 164 215 185 q 232 128 224 143 q 253 104 241 113 q 279 95 264 95 q 335 115 302 95 q 404 166 368 134 q 476 240 439 199 q 543 326 512 282 q 597 412 574 370 q 628 488 619 454 l 649 573 m 557 0 q 559 52 557 23 q 564 111 561 81 q 571 169 567 140 q 581 219 576 197 l 595 273 q 550 205 576 239 q 494 139 524 172 q 431 79 464 107 q 365 29 398 50 q 298 -5 331 7 q 237 -17 266 -17 q 176 -5 203 -17 q 127 31 148 7 q 96 90 107 55 q 85 170 85 125 q 89 221 85 194 q 100 279 92 249 q 134 382 111 332 q 187 479 156 433 q 258 564 218 525 q 345 631 298 603 q 445 676 392 660 q 557 692 498 692 q 685 683 623 692 q 797 661 748 675 l 720 352 q 695 235 704 289 q 682 136 686 180 q 677 57 678 92 q 676 0 676 23 l 557 0 m 403 -193 q 394 -232 403 -213 q 371 -264 386 -250 q 337 -287 357 -279 q 296 -296 318 -296 q 266 -290 280 -296 q 242 -273 252 -283 q 227 -249 233 -262 q 221 -219 221 -235 q 229 -182 221 -201 q 250 -150 236 -164 q 283 -126 264 -135 q 328 -117 303 -117 q 358 -123 344 -117 q 382 -139 372 -129 q 397 -163 392 -149 q 403 -193 403 -177 z "},"":{"ha":1145,"x_min":69,"x_max":1169,"o":"m 934 591 q 862 578 898 591 q 793 542 825 566 q 734 484 760 517 q 690 408 707 450 q 754 402 725 404 q 811 400 783 400 q 911 409 869 400 q 982 432 954 417 q 1024 467 1010 446 q 1038 511 1038 487 q 1029 543 1038 528 q 1007 569 1021 558 q 974 585 993 579 q 934 591 955 591 m 545 258 q 546 292 545 275 q 551 329 547 309 q 514 326 538 328 q 465 321 491 324 q 412 316 438 319 q 370 313 387 314 q 307 300 336 310 q 256 275 278 290 q 219 241 234 260 q 199 201 205 222 q 197 179 197 191 q 204 145 197 161 q 227 118 212 130 q 261 99 241 106 q 306 93 281 93 q 365 102 334 93 q 429 131 397 112 q 491 176 460 149 q 545 238 521 203 l 545 258 m 1086 56 q 1026 29 1059 42 q 956 5 993 16 q 879 -11 919 -5 q 800 -17 840 -17 q 650 23 709 -17 q 566 131 592 64 q 502 72 538 99 q 426 25 466 45 q 345 -6 386 5 q 264 -17 303 -17 q 186 -2 222 -17 q 124 37 151 13 q 84 93 98 62 q 69 158 69 125 q 93 247 69 204 q 158 322 116 289 q 259 377 201 355 q 387 406 317 399 q 432 409 405 407 q 488 414 460 412 q 540 419 516 417 q 574 422 564 421 l 583 459 q 586 473 585 467 q 587 487 587 480 q 546 559 587 534 q 438 585 505 585 q 385 579 411 585 q 332 564 359 574 q 275 538 305 553 q 211 502 245 522 q 219 530 214 513 q 230 567 224 548 q 241 603 235 586 q 250 631 246 621 q 306 653 279 642 q 363 672 334 664 q 425 686 392 681 q 496 691 457 691 q 625 661 577 691 q 686 579 672 630 q 812 661 741 631 q 969 692 884 692 q 1059 678 1021 692 q 1121 642 1097 664 q 1157 591 1145 619 q 1169 536 1169 564 q 1151 449 1169 490 q 1092 375 1133 407 q 988 326 1052 344 q 831 307 924 307 q 755 310 795 307 q 669 319 716 313 q 667 285 667 302 q 676 210 667 245 q 705 148 686 174 q 756 107 725 122 q 830 92 787 92 q 896 98 861 92 q 965 117 930 104 q 1033 146 1000 129 q 1095 183 1066 163 l 1086 56 m 1085 1063 l 743 778 l 628 778 l 916 1063 l 1085 1063 z "},"":{"ha":1145,"x_min":69,"x_max":1169,"o":"m 934 591 q 862 578 898 591 q 793 542 825 566 q 734 484 760 517 q 690 408 707 450 q 754 402 725 404 q 811 400 783 400 q 911 409 869 400 q 982 432 954 417 q 1024 467 1010 446 q 1038 511 1038 487 q 1029 543 1038 528 q 1007 569 1021 558 q 974 585 993 579 q 934 591 955 591 m 545 258 q 546 292 545 275 q 551 329 547 309 q 514 326 538 328 q 465 321 491 324 q 412 316 438 319 q 370 313 387 314 q 307 300 336 310 q 256 275 278 290 q 219 241 234 260 q 199 201 205 222 q 197 179 197 191 q 204 145 197 161 q 227 118 212 130 q 261 99 241 106 q 306 93 281 93 q 365 102 334 93 q 429 131 397 112 q 491 176 460 149 q 545 238 521 203 l 545 258 m 1086 56 q 1026 29 1059 42 q 956 5 993 16 q 879 -11 919 -5 q 800 -17 840 -17 q 650 23 709 -17 q 566 131 592 64 q 502 72 538 99 q 426 25 466 45 q 345 -6 386 5 q 264 -17 303 -17 q 186 -2 222 -17 q 124 37 151 13 q 84 93 98 62 q 69 158 69 125 q 93 247 69 204 q 158 322 116 289 q 259 377 201 355 q 387 406 317 399 q 432 409 405 407 q 488 414 460 412 q 540 419 516 417 q 574 422 564 421 l 583 459 q 586 473 585 467 q 587 487 587 480 q 546 559 587 534 q 438 585 505 585 q 385 579 411 585 q 332 564 359 574 q 275 538 305 553 q 211 502 245 522 q 219 530 214 513 q 230 567 224 548 q 241 603 235 586 q 250 631 246 621 q 306 653 279 642 q 363 672 334 664 q 425 686 392 681 q 496 691 457 691 q 625 661 577 691 q 686 579 672 630 q 812 661 741 631 q 969 692 884 692 q 1059 678 1021 692 q 1121 642 1097 664 q 1157 591 1145 619 q 1169 536 1169 564 q 1151 449 1169 490 q 1092 375 1133 407 q 988 326 1052 344 q 831 307 924 307 q 755 310 795 307 q 669 319 716 313 q 667 285 667 302 q 676 210 667 245 q 705 148 686 174 q 756 107 725 122 q 830 92 787 92 q 896 98 861 92 q 965 117 930 104 q 1033 146 1000 129 q 1095 183 1066 163 l 1086 56 m 502 924 l 1010 924 l 985 824 l 477 824 l 502 924 z "},"":{"ha":946,"x_min":-14,"x_max":1094,"o":"m 349 359 l 693 359 l 640 841 l 349 359 m 704 256 l 286 256 l 132 0 l -14 0 q 16 42 1 20 q 48 92 31 64 q 89 154 66 119 q 140 236 111 189 l 594 970 l 740 970 l 828 236 q 839 155 833 190 q 848 92 844 119 q 857 42 852 64 q 865 0 861 20 l 732 0 l 704 256 m 380 1069 l 668 1355 l 783 1355 l 956 1069 l 854 1069 l 715 1255 l 481 1069 l 380 1069 m 1094 1718 l 752 1432 l 637 1432 l 925 1718 l 1094 1718 z "},"":{"ha":946,"x_min":-14,"x_max":956,"o":"m 349 359 l 693 359 l 640 841 l 349 359 m 704 256 l 286 256 l 132 0 l -14 0 q 16 42 1 20 q 48 92 31 64 q 89 154 66 119 q 140 236 111 189 l 594 970 l 740 970 l 828 236 q 839 155 833 190 q 848 92 844 119 q 857 42 852 64 q 865 0 861 20 l 732 0 l 704 256 m 380 1069 l 668 1355 l 783 1355 l 956 1069 l 854 1069 l 715 1255 l 481 1069 l 380 1069 m 701 1718 l 888 1432 l 786 1432 l 559 1718 l 701 1718 z "},"":{"ha":946,"x_min":-14,"x_max":1023,"o":"m 349 359 l 693 359 l 640 841 l 349 359 m 704 256 l 286 256 l 132 0 l -14 0 q 16 42 1 20 q 48 92 31 64 q 89 154 66 119 q 140 236 111 189 l 594 970 l 740 970 l 828 236 q 839 155 833 190 q 848 92 844 119 q 857 42 852 64 q 865 0 861 20 l 732 0 l 704 256 m 380 1069 l 668 1355 l 783 1355 l 956 1069 l 854 1069 l 715 1255 l 481 1069 l 380 1069 m 503 1455 q 527 1515 511 1486 q 567 1567 544 1544 q 617 1604 589 1590 q 675 1618 644 1618 q 727 1608 703 1618 q 783 1584 751 1597 q 838 1560 817 1569 q 881 1552 859 1552 q 904 1557 893 1552 q 924 1570 915 1562 q 940 1589 933 1578 q 952 1611 947 1600 l 1023 1611 q 999 1550 1015 1579 q 959 1498 982 1520 q 907 1462 936 1476 q 848 1449 879 1449 q 795 1457 821 1449 q 743 1480 770 1466 q 687 1507 708 1498 q 646 1515 665 1515 q 602 1497 621 1515 q 574 1455 583 1480 l 503 1455 z "},"":{"ha":946,"x_min":-14,"x_max":956,"o":"m 349 359 l 693 359 l 640 841 l 349 359 m 704 256 l 286 256 l 132 0 l -14 0 q 16 42 1 20 q 48 92 31 64 q 89 154 66 119 q 140 236 111 189 l 594 970 l 740 970 l 828 236 q 839 155 833 190 q 848 92 844 119 q 857 42 852 64 q 865 0 861 20 l 732 0 l 704 256 m 380 1069 l 668 1355 l 783 1355 l 956 1069 l 854 1069 l 715 1255 l 481 1069 l 380 1069 m 699 1402 q 723 1476 710 1444 q 756 1529 736 1507 q 784 1553 766 1540 q 821 1581 803 1567 q 853 1611 840 1596 q 867 1643 867 1627 q 849 1673 867 1662 q 800 1685 831 1685 q 742 1672 770 1685 q 687 1638 713 1659 l 687 1708 q 747 1741 713 1727 q 821 1754 781 1754 q 873 1746 849 1754 q 916 1724 898 1738 q 944 1692 934 1710 q 954 1653 954 1674 q 940 1606 954 1625 q 907 1573 926 1588 q 867 1547 888 1559 q 832 1517 846 1534 q 803 1469 814 1495 q 781 1402 791 1443 l 699 1402 z "},"":{"ha":946,"x_min":-14,"x_max":956,"o":"m 349 359 l 693 359 l 640 841 l 349 359 m 704 256 l 286 256 l 132 0 l -14 0 q 16 42 1 20 q 48 92 31 64 q 89 154 66 119 q 140 236 111 189 l 594 970 l 740 970 l 828 236 q 839 155 833 190 q 848 92 844 119 q 857 42 852 64 q 865 0 861 20 l 732 0 l 704 256 m 465 -193 q 457 -232 465 -213 q 434 -264 448 -250 q 400 -287 419 -279 q 359 -296 380 -296 q 329 -290 342 -296 q 305 -273 315 -283 q 289 -249 295 -262 q 283 -219 283 -235 q 291 -182 283 -201 q 312 -150 298 -164 q 346 -126 326 -135 q 390 -117 366 -117 q 420 -123 406 -117 q 444 -139 434 -129 q 460 -163 454 -149 q 465 -193 465 -177 m 380 1069 l 668 1355 l 783 1355 l 956 1069 l 854 1069 l 715 1255 l 481 1069 l 380 1069 z "},"":{"ha":946,"x_min":-14,"x_max":995,"o":"m 349 359 l 693 359 l 640 841 l 349 359 m 704 256 l 286 256 l 132 0 l -14 0 q 16 42 1 20 q 48 92 31 64 q 89 154 66 119 q 140 236 111 189 l 594 970 l 740 970 l 828 236 q 839 155 833 190 q 848 92 844 119 q 857 42 852 64 q 865 0 861 20 l 732 0 l 704 256 m 995 1322 q 955 1226 983 1274 q 885 1140 926 1178 q 792 1079 844 1103 q 682 1056 741 1056 q 594 1073 631 1056 q 531 1117 556 1089 q 492 1182 505 1145 q 479 1259 479 1219 q 481 1291 479 1275 q 487 1322 483 1306 l 568 1322 q 567 1309 567 1315 l 567 1296 q 575 1241 567 1267 q 600 1196 584 1215 q 640 1166 616 1177 q 693 1156 663 1156 q 760 1169 726 1156 q 822 1205 793 1182 q 875 1258 852 1228 q 912 1322 899 1288 l 995 1322 z "},"":{"ha":946,"x_min":-14,"x_max":1104,"o":"m 349 359 l 693 359 l 640 841 l 349 359 m 704 256 l 286 256 l 132 0 l -14 0 q 16 42 1 20 q 48 92 31 64 q 89 154 66 119 q 140 236 111 189 l 594 970 l 740 970 l 828 236 q 839 155 833 190 q 848 92 844 119 q 857 42 852 64 q 865 0 861 20 l 732 0 l 704 256 m 995 1322 q 955 1226 983 1274 q 885 1140 926 1178 q 792 1079 844 1103 q 682 1056 741 1056 q 594 1073 631 1056 q 531 1117 556 1089 q 492 1182 505 1145 q 479 1259 479 1219 q 481 1291 479 1275 q 487 1322 483 1306 l 568 1322 q 567 1309 567 1315 l 567 1296 q 575 1241 567 1267 q 600 1196 584 1215 q 640 1166 616 1177 q 693 1156 663 1156 q 760 1169 726 1156 q 822 1205 793 1182 q 875 1258 852 1228 q 912 1322 899 1288 l 995 1322 m 1104 1718 l 762 1432 l 647 1432 l 935 1718 l 1104 1718 z "},"":{"ha":946,"x_min":-14,"x_max":995,"o":"m 349 359 l 693 359 l 640 841 l 349 359 m 704 256 l 286 256 l 132 0 l -14 0 q 16 42 1 20 q 48 92 31 64 q 89 154 66 119 q 140 236 111 189 l 594 970 l 740 970 l 828 236 q 839 155 833 190 q 848 92 844 119 q 857 42 852 64 q 865 0 861 20 l 732 0 l 704 256 m 995 1322 q 955 1226 983 1274 q 885 1140 926 1178 q 792 1079 844 1103 q 682 1056 741 1056 q 594 1073 631 1056 q 531 1117 556 1089 q 492 1182 505 1145 q 479 1259 479 1219 q 481 1291 479 1275 q 487 1322 483 1306 l 568 1322 q 567 1309 567 1315 l 567 1296 q 575 1241 567 1267 q 600 1196 584 1215 q 640 1166 616 1177 q 693 1156 663 1156 q 760 1169 726 1156 q 822 1205 793 1182 q 875 1258 852 1228 q 912 1322 899 1288 l 995 1322 m 711 1718 l 898 1432 l 796 1432 l 569 1718 l 711 1718 z "},"":{"ha":946,"x_min":-14,"x_max":1034,"o":"m 349 359 l 693 359 l 640 841 l 349 359 m 704 256 l 286 256 l 132 0 l -14 0 q 16 42 1 20 q 48 92 31 64 q 89 154 66 119 q 140 236 111 189 l 594 970 l 740 970 l 828 236 q 839 155 833 190 q 848 92 844 119 q 857 42 852 64 q 865 0 861 20 l 732 0 l 704 256 m 995 1322 q 955 1226 983 1274 q 885 1140 926 1178 q 792 1079 844 1103 q 682 1056 741 1056 q 594 1073 631 1056 q 531 1117 556 1089 q 492 1182 505 1145 q 479 1259 479 1219 q 481 1291 479 1275 q 487 1322 483 1306 l 568 1322 q 567 1309 567 1315 l 567 1296 q 575 1241 567 1267 q 600 1196 584 1215 q 640 1166 616 1177 q 693 1156 663 1156 q 760 1169 726 1156 q 822 1205 793 1182 q 875 1258 852 1228 q 912 1322 899 1288 l 995 1322 m 513 1455 q 537 1515 521 1486 q 577 1567 554 1544 q 627 1604 600 1590 q 685 1618 654 1618 q 738 1608 713 1618 q 793 1584 762 1597 q 848 1560 827 1569 q 891 1552 869 1552 q 914 1557 903 1552 q 934 1570 925 1562 q 950 1589 943 1578 q 962 1611 958 1600 l 1034 1611 q 1009 1550 1025 1579 q 969 1498 992 1520 q 918 1462 946 1476 q 858 1449 889 1449 q 806 1457 831 1449 q 753 1480 781 1466 q 697 1507 718 1498 q 656 1515 675 1515 q 612 1497 631 1515 q 585 1455 593 1480 l 513 1455 z "},"":{"ha":946,"x_min":-14,"x_max":995,"o":"m 349 359 l 693 359 l 640 841 l 349 359 m 704 256 l 286 256 l 132 0 l -14 0 q 16 42 1 20 q 48 92 31 64 q 89 154 66 119 q 140 236 111 189 l 594 970 l 740 970 l 828 236 q 839 155 833 190 q 848 92 844 119 q 857 42 852 64 q 865 0 861 20 l 732 0 l 704 256 m 995 1322 q 955 1226 983 1274 q 885 1140 926 1178 q 792 1079 844 1103 q 682 1056 741 1056 q 594 1073 631 1056 q 531 1117 556 1089 q 492 1182 505 1145 q 479 1259 479 1219 q 481 1291 479 1275 q 487 1322 483 1306 l 568 1322 q 567 1309 567 1315 l 567 1296 q 575 1241 567 1267 q 600 1196 584 1215 q 640 1166 616 1177 q 693 1156 663 1156 q 760 1169 726 1156 q 822 1205 793 1182 q 875 1258 852 1228 q 912 1322 899 1288 l 995 1322 m 709 1402 q 733 1476 720 1444 q 766 1529 747 1507 q 794 1553 776 1540 q 831 1581 813 1567 q 863 1611 850 1596 q 877 1643 877 1627 q 859 1673 877 1662 q 810 1685 841 1685 q 752 1672 781 1685 q 697 1638 723 1659 l 697 1708 q 757 1741 724 1727 q 831 1754 791 1754 q 884 1746 859 1754 q 926 1724 908 1738 q 954 1692 944 1710 q 964 1653 964 1674 q 950 1606 964 1625 q 917 1573 937 1588 q 877 1547 898 1559 q 842 1517 856 1534 q 813 1469 825 1495 q 791 1402 801 1443 l 709 1402 z "},"":{"ha":946,"x_min":-14,"x_max":995,"o":"m 349 359 l 693 359 l 640 841 l 349 359 m 704 256 l 286 256 l 132 0 l -14 0 q 16 42 1 20 q 48 92 31 64 q 89 154 66 119 q 140 236 111 189 l 594 970 l 740 970 l 828 236 q 839 155 833 190 q 848 92 844 119 q 857 42 852 64 q 865 0 861 20 l 732 0 l 704 256 m 465 -193 q 457 -232 465 -213 q 434 -264 448 -250 q 400 -287 419 -279 q 359 -296 380 -296 q 329 -290 342 -296 q 305 -273 315 -283 q 289 -249 295 -262 q 283 -219 283 -235 q 291 -182 283 -201 q 312 -150 298 -164 q 346 -126 326 -135 q 390 -117 366 -117 q 420 -123 406 -117 q 444 -139 434 -129 q 460 -163 454 -149 q 465 -193 465 -177 m 995 1322 q 955 1226 983 1274 q 885 1140 926 1178 q 792 1079 844 1103 q 682 1056 741 1056 q 594 1073 631 1056 q 531 1117 556 1089 q 492 1182 505 1145 q 479 1259 479 1219 q 481 1291 479 1275 q 487 1322 483 1306 l 568 1322 q 567 1309 567 1315 l 567 1296 q 575 1241 567 1267 q 600 1196 584 1215 q 640 1166 616 1177 q 693 1156 663 1156 q 760 1169 726 1156 q 822 1205 793 1182 q 875 1258 852 1228 q 912 1322 899 1288 l 995 1322 z "},"":{"ha":946,"x_min":-14,"x_max":1027,"o":"m 349 359 l 693 359 l 640 841 l 349 359 m 704 256 l 286 256 l 132 0 l -14 0 q 16 42 1 20 q 48 92 31 64 q 89 154 66 119 q 140 236 111 189 l 594 970 l 740 970 l 828 236 q 839 155 833 190 q 848 92 844 119 q 857 42 852 64 q 865 0 861 20 l 732 0 l 704 256 m 553 1355 l 693 1169 l 925 1355 l 1027 1355 l 739 1069 l 624 1069 l 451 1355 l 553 1355 z "},"":{"ha":946,"x_min":-14,"x_max":951,"o":"m 349 359 l 693 359 l 640 841 l 349 359 m 704 256 l 286 256 l 132 0 l -14 0 q 16 42 1 20 q 48 92 31 64 q 89 154 66 119 q 140 236 111 189 l 594 970 l 740 970 l 828 236 q 839 155 833 190 q 848 92 844 119 q 857 42 852 64 q 865 0 861 20 l 732 0 l 704 256 m 444 1215 l 951 1215 l 926 1116 l 418 1116 l 444 1215 z "},"":{"ha":946,"x_min":-14,"x_max":1017,"o":"m 349 359 l 693 359 l 640 841 l 349 359 m 704 256 l 286 256 l 132 0 l -14 0 q 16 42 1 20 q 48 92 31 64 q 89 154 66 119 q 140 236 111 189 l 594 970 l 740 970 l 828 236 q 839 155 833 190 q 848 92 844 119 q 857 42 852 64 q 865 0 861 20 l 732 0 l 704 256 m 663 1199 q 655 1160 663 1179 q 632 1127 646 1141 q 598 1104 617 1113 q 557 1096 578 1096 q 527 1102 541 1096 q 503 1119 513 1108 q 487 1143 493 1129 q 481 1173 481 1157 q 489 1209 481 1191 q 510 1242 496 1227 q 544 1266 524 1257 q 588 1275 564 1275 q 618 1269 604 1275 q 642 1253 632 1263 q 658 1229 652 1242 q 663 1199 663 1215 m 948 1199 q 940 1160 948 1179 q 917 1127 931 1141 q 883 1104 902 1113 q 842 1096 863 1096 q 811 1102 825 1096 q 788 1119 798 1108 q 772 1143 778 1129 q 766 1173 766 1157 q 774 1209 766 1191 q 795 1242 781 1227 q 829 1266 809 1257 q 873 1275 848 1275 q 903 1269 889 1275 q 927 1253 917 1263 q 943 1229 937 1242 q 948 1199 948 1215 m 509 1490 l 1017 1490 l 992 1390 l 484 1390 l 509 1490 z "},"":{"ha":946,"x_min":-14,"x_max":865,"o":"m 349 359 l 693 359 l 640 841 l 349 359 m 704 256 l 286 256 l 132 0 l -14 0 q 16 42 1 20 q 48 92 31 64 q 89 154 66 119 q 140 236 111 189 l 594 970 l 740 970 l 828 236 q 839 155 833 190 q 848 92 844 119 q 857 42 852 64 q 865 0 861 20 l 732 0 l 704 256 m 616 1174 q 626 1213 616 1194 q 650 1245 635 1231 q 684 1267 665 1259 q 726 1275 704 1275 q 756 1269 742 1275 q 781 1252 770 1263 q 798 1227 791 1242 q 804 1198 804 1213 q 794 1159 804 1177 q 770 1126 785 1141 q 735 1104 755 1112 q 694 1096 715 1096 q 664 1102 678 1096 q 639 1119 650 1109 q 623 1144 629 1130 q 616 1174 616 1158 z "},"":{"ha":946,"x_min":-14,"x_max":1021,"o":"m 349 359 l 693 359 l 640 841 l 349 359 m 704 256 l 286 256 l 132 0 l -14 0 q 16 42 1 20 q 48 92 31 64 q 89 154 66 119 q 140 236 111 189 l 594 970 l 740 970 l 828 236 q 839 155 833 190 q 848 92 844 119 q 857 42 852 64 q 865 0 861 20 l 732 0 l 704 256 m 616 1174 q 626 1213 616 1194 q 650 1245 635 1231 q 684 1267 665 1259 q 726 1275 704 1275 q 756 1269 742 1275 q 781 1252 770 1263 q 798 1227 791 1242 q 804 1198 804 1213 q 794 1159 804 1177 q 770 1126 785 1141 q 735 1104 755 1112 q 694 1096 715 1096 q 664 1102 678 1096 q 639 1119 650 1109 q 623 1144 629 1130 q 616 1174 616 1158 m 513 1490 l 1021 1490 l 996 1390 l 488 1390 l 513 1490 z "},"":{"ha":946,"x_min":-14,"x_max":1138,"o":"m 349 359 l 693 359 l 640 841 l 349 359 m 704 256 l 286 256 l 132 0 l -14 0 q 16 42 1 20 q 48 92 31 64 q 89 154 66 119 q 140 236 111 189 l 594 970 l 740 970 l 828 236 q 839 155 833 190 q 848 92 844 119 q 857 42 852 64 q 865 0 861 20 l 732 0 l 704 256 m 557 1187 q 571 1251 557 1220 q 611 1304 586 1281 q 668 1341 635 1327 q 735 1355 700 1355 q 784 1346 762 1355 q 822 1321 806 1337 q 847 1283 838 1305 q 857 1237 857 1261 q 842 1173 857 1204 q 802 1120 827 1143 q 745 1083 777 1097 q 677 1069 713 1069 q 629 1079 651 1069 q 591 1104 607 1088 q 566 1141 575 1120 q 557 1187 557 1162 m 690 1145 q 722 1152 706 1145 q 750 1170 738 1158 q 770 1197 762 1181 q 777 1231 777 1213 q 763 1265 777 1253 q 723 1278 749 1278 q 691 1272 707 1278 q 663 1254 675 1265 q 644 1227 651 1242 q 636 1193 636 1211 q 650 1158 636 1171 q 690 1145 664 1145 m 1138 1718 l 796 1432 l 681 1432 l 969 1718 l 1138 1718 z "},"":{"ha":946,"x_min":-14,"x_max":887,"o":"m 349 359 l 693 359 l 640 841 l 349 359 m 704 256 l 286 256 l 132 0 l -14 0 q 16 42 1 20 q 48 92 31 64 q 89 154 66 119 q 140 236 111 189 l 594 970 l 740 970 l 828 236 q 839 155 833 190 q 848 92 844 119 q 857 42 852 64 q 865 0 861 20 l 732 0 l 704 256 m 632 1039 q 656 1113 643 1082 q 689 1166 669 1144 q 717 1191 699 1177 q 754 1218 736 1204 q 786 1249 772 1233 q 800 1280 800 1264 q 782 1311 800 1299 q 733 1322 764 1322 q 674 1309 703 1322 q 620 1275 646 1296 l 620 1345 q 680 1378 646 1364 q 754 1392 713 1392 q 806 1383 782 1392 q 849 1361 831 1375 q 877 1329 867 1348 q 887 1291 887 1311 q 873 1243 887 1262 q 840 1211 859 1225 q 800 1184 821 1196 q 765 1154 779 1171 q 735 1106 747 1133 q 713 1039 724 1080 l 632 1039 z "},"":{"ha":946,"x_min":-14,"x_max":865,"o":"m 349 359 l 693 359 l 640 841 l 349 359 m 704 256 l 286 256 l 132 0 l -14 0 q 16 42 1 20 q 48 92 31 64 q 89 154 66 119 q 140 236 111 189 l 594 970 l 740 970 l 828 236 q 839 155 833 190 q 848 92 844 119 q 857 42 852 64 q 865 0 861 20 l 732 0 l 704 256 m 465 -193 q 457 -232 465 -213 q 434 -264 448 -250 q 400 -287 419 -279 q 359 -296 380 -296 q 329 -290 342 -296 q 305 -273 315 -283 q 289 -249 295 -262 q 283 -219 283 -235 q 291 -182 283 -201 q 312 -150 298 -164 q 346 -126 326 -135 q 390 -117 366 -117 q 420 -123 406 -117 q 444 -139 434 -129 q 460 -163 454 -149 q 465 -193 465 -177 z "},"":{"ha":1211,"x_min":0,"x_max":1323,"o":"m 798 861 l 419 359 l 672 359 l 798 861 m 825 455 l 739 110 l 850 110 q 1020 111 951 110 q 1131 119 1088 113 l 1102 0 l 573 0 q 584 28 578 12 q 598 74 590 45 q 618 147 606 103 q 646 256 629 191 l 342 256 l 149 0 l 0 0 q 59 70 32 37 q 111 134 86 102 q 161 198 136 165 q 212 265 185 230 l 736 970 l 1323 970 l 1296 861 l 926 861 l 852 562 l 1171 562 l 1144 455 l 825 455 m 1249 1355 l 907 1069 l 792 1069 l 1080 1355 l 1249 1355 z "},"":{"ha":1211,"x_min":0,"x_max":1323,"o":"m 798 861 l 419 359 l 672 359 l 798 861 m 825 455 l 739 110 l 850 110 q 1020 111 951 110 q 1131 119 1088 113 l 1102 0 l 573 0 q 584 28 578 12 q 598 74 590 45 q 618 147 606 103 q 646 256 629 191 l 342 256 l 149 0 l 0 0 q 59 70 32 37 q 111 134 86 102 q 161 198 136 165 q 212 265 185 230 l 736 970 l 1323 970 l 1296 861 l 926 861 l 852 562 l 1171 562 l 1144 455 l 825 455 m 666 1215 l 1174 1215 l 1149 1116 l 641 1116 l 666 1215 z "},"":{"ha":776,"x_min":75,"x_max":788,"o":"m 220 136 q 251 118 233 127 q 289 102 269 109 q 331 90 309 94 q 374 85 353 85 q 467 106 418 85 q 557 170 516 128 q 598 219 580 191 q 631 280 617 247 q 652 351 644 313 q 659 431 659 389 q 632 542 659 507 q 557 576 604 576 q 513 564 538 576 q 461 531 488 552 q 406 481 434 510 q 350 421 377 453 q 300 356 323 390 q 259 291 277 323 l 220 136 m 425 1065 q 422 1016 425 1049 q 412 940 418 983 q 396 847 406 897 q 374 749 387 798 l 309 488 q 379 565 342 528 q 456 630 416 602 q 536 675 495 659 q 615 692 576 692 q 682 680 650 692 q 737 642 713 668 q 774 573 760 615 q 788 471 788 531 q 775 358 788 413 q 738 253 762 302 q 683 161 715 203 q 615 85 652 118 q 494 8 558 33 q 351 -17 431 -17 q 270 -9 309 -17 q 194 10 230 -1 q 127 34 158 21 q 75 58 97 47 l 249 749 q 266 828 258 785 q 281 914 275 871 q 292 996 288 957 q 296 1065 296 1036 l 425 1065 m 551 882 q 560 921 551 903 q 584 953 569 939 q 618 975 599 967 q 660 983 638 983 q 690 977 676 983 q 715 961 705 971 q 732 936 726 950 q 738 906 738 922 q 729 867 738 886 q 705 835 720 849 q 670 812 690 821 q 629 804 650 804 q 598 811 612 804 q 573 828 584 817 q 557 852 563 838 q 551 882 551 867 z "},"":{"ha":776,"x_min":39,"x_max":788,"o":"m 220 136 q 251 118 233 127 q 289 102 269 109 q 331 90 309 94 q 374 85 353 85 q 467 106 418 85 q 557 170 516 128 q 598 219 580 191 q 631 280 617 247 q 652 351 644 313 q 659 431 659 389 q 632 542 659 507 q 557 576 604 576 q 513 564 538 576 q 461 531 488 552 q 406 481 434 510 q 350 421 377 453 q 300 356 323 390 q 259 291 277 323 l 220 136 m 425 1065 q 422 1016 425 1049 q 412 940 418 983 q 396 847 406 897 q 374 749 387 798 l 309 488 q 379 565 342 528 q 456 630 416 602 q 536 675 495 659 q 615 692 576 692 q 682 680 650 692 q 737 642 713 668 q 774 573 760 615 q 788 471 788 531 q 775 358 788 413 q 738 253 762 302 q 683 161 715 203 q 615 85 652 118 q 494 8 558 33 q 351 -17 431 -17 q 270 -9 309 -17 q 194 10 230 -1 q 127 34 158 21 q 75 58 97 47 l 249 749 q 266 828 258 785 q 281 914 275 871 q 292 996 288 957 q 296 1065 296 1036 l 425 1065 m 64 -113 l 572 -113 l 547 -213 l 39 -213 l 64 -113 z "},"":{"ha":776,"x_min":75,"x_max":788,"o":"m 220 136 q 251 118 233 127 q 289 102 269 109 q 331 90 309 94 q 374 85 353 85 q 467 106 418 85 q 557 170 516 128 q 598 219 580 191 q 631 280 617 247 q 652 351 644 313 q 659 431 659 389 q 632 542 659 507 q 557 576 604 576 q 513 564 538 576 q 461 531 488 552 q 406 481 434 510 q 350 421 377 453 q 300 356 323 390 q 259 291 277 323 l 220 136 m 425 1065 q 422 1016 425 1049 q 412 940 418 983 q 396 847 406 897 q 374 749 387 798 l 309 488 q 379 565 342 528 q 456 630 416 602 q 536 675 495 659 q 615 692 576 692 q 682 680 650 692 q 737 642 713 668 q 774 573 760 615 q 788 471 788 531 q 775 358 788 413 q 738 253 762 302 q 683 161 715 203 q 615 85 652 118 q 494 8 558 33 q 351 -17 431 -17 q 270 -9 309 -17 q 194 10 230 -1 q 127 34 158 21 q 75 58 97 47 l 249 749 q 266 828 258 785 q 281 914 275 871 q 292 996 288 957 q 296 1065 296 1036 l 425 1065 m 399 -193 q 391 -232 399 -213 q 368 -264 382 -250 q 334 -287 353 -279 q 293 -296 315 -296 q 263 -290 277 -296 q 239 -273 249 -283 q 223 -249 229 -262 q 218 -219 218 -235 q 225 -182 218 -201 q 247 -150 233 -164 q 280 -126 260 -135 q 324 -117 300 -117 q 354 -123 340 -117 q 378 -139 368 -129 q 394 -163 389 -149 q 399 -193 399 -177 z "},"":{"ha":776,"x_min":75,"x_max":808,"o":"m 220 136 q 251 118 233 127 q 289 102 269 109 q 331 90 309 94 q 374 85 353 85 q 467 106 418 85 q 557 170 516 128 q 598 219 580 191 q 631 280 617 247 q 652 351 644 313 q 659 431 659 389 q 632 542 659 507 q 557 576 604 576 q 513 564 538 576 q 461 531 488 552 q 406 481 434 510 q 350 421 377 453 q 300 356 323 390 q 259 291 277 323 l 220 136 m 728 917 q 675 949 711 935 q 589 964 639 964 q 524 951 557 964 q 464 915 492 939 q 413 854 435 890 q 378 768 391 817 l 308 488 q 378 565 340 528 q 455 630 416 602 q 536 675 495 659 q 615 692 576 692 q 682 680 650 692 q 737 642 713 668 q 774 573 760 615 q 788 471 788 531 q 775 358 788 413 q 738 253 762 302 q 683 161 715 203 q 615 85 652 118 q 494 8 558 33 q 351 -17 431 -17 q 270 -9 309 -17 q 194 10 230 -1 q 127 34 158 21 q 75 58 97 47 l 249 749 q 305 889 269 828 q 391 992 342 950 q 500 1055 440 1034 q 627 1076 560 1076 q 686 1071 658 1076 q 738 1058 714 1066 q 779 1040 761 1050 q 808 1020 797 1030 l 728 917 z "},"":{"ha":862,"x_min":68,"x_max":870,"o":"m 232 103 q 295 101 251 102 q 397 100 340 100 q 505 110 453 100 q 597 143 557 119 q 662 207 637 168 q 686 305 686 246 q 671 372 686 342 q 631 423 656 402 q 569 454 605 444 q 489 465 532 465 l 323 465 l 232 103 m 243 665 q 267 760 256 713 q 288 846 279 806 q 302 918 296 886 q 309 970 308 950 q 363 973 332 972 q 429 976 393 975 q 506 977 465 977 q 589 977 547 977 q 710 962 657 977 q 798 919 762 946 q 852 854 833 891 q 870 773 870 817 q 854 682 870 722 q 810 609 839 641 q 740 555 781 577 q 648 518 699 532 q 706 495 676 511 q 760 454 735 479 q 799 392 784 429 q 814 307 814 356 q 785 171 814 230 q 699 73 755 113 q 563 13 643 33 q 381 -7 482 -7 q 279 -6 330 -7 q 186 -4 229 -5 q 112 -2 143 -3 q 68 0 81 -1 q 86 51 77 20 q 107 122 96 82 q 130 207 118 161 q 153 302 141 253 l 243 665 m 348 568 l 473 568 q 581 580 532 568 q 662 615 629 592 q 714 671 696 637 q 732 749 732 705 q 688 844 732 813 q 550 874 643 874 q 478 873 510 874 q 424 871 446 872 l 348 568 m 568 1174 q 577 1213 568 1194 q 601 1245 586 1231 q 635 1267 616 1259 q 677 1275 655 1275 q 707 1269 693 1275 q 732 1252 722 1263 q 749 1227 743 1242 q 755 1198 755 1213 q 746 1159 755 1177 q 722 1126 736 1141 q 687 1104 707 1112 q 646 1096 667 1096 q 615 1102 629 1096 q 590 1119 601 1109 q 574 1144 580 1130 q 568 1174 568 1158 z "},"":{"ha":862,"x_min":56,"x_max":870,"o":"m 232 103 q 295 101 251 102 q 397 100 340 100 q 505 110 453 100 q 597 143 557 119 q 662 207 637 168 q 686 305 686 246 q 671 372 686 342 q 631 423 656 402 q 569 454 605 444 q 489 465 532 465 l 323 465 l 232 103 m 243 665 q 267 760 256 713 q 288 846 279 806 q 302 918 296 886 q 309 970 308 950 q 363 973 332 972 q 429 976 393 975 q 506 977 465 977 q 589 977 547 977 q 710 962 657 977 q 798 919 762 946 q 852 854 833 891 q 870 773 870 817 q 854 682 870 722 q 810 609 839 641 q 740 555 781 577 q 648 518 699 532 q 706 495 676 511 q 760 454 735 479 q 799 392 784 429 q 814 307 814 356 q 785 171 814 230 q 699 73 755 113 q 563 13 643 33 q 381 -7 482 -7 q 279 -6 330 -7 q 186 -4 229 -5 q 112 -2 143 -3 q 68 0 81 -1 q 86 51 77 20 q 107 122 96 82 q 130 207 118 161 q 153 302 141 253 l 243 665 m 348 568 l 473 568 q 581 580 532 568 q 662 615 629 592 q 714 671 696 637 q 732 749 732 705 q 688 844 732 813 q 550 874 643 874 q 478 873 510 874 q 424 871 446 872 l 348 568 m 81 -113 l 589 -113 l 564 -213 l 56 -213 l 81 -113 z "},"":{"ha":862,"x_min":68,"x_max":870,"o":"m 232 103 q 295 101 251 102 q 397 100 340 100 q 505 110 453 100 q 597 143 557 119 q 662 207 637 168 q 686 305 686 246 q 671 372 686 342 q 631 423 656 402 q 569 454 605 444 q 489 465 532 465 l 323 465 l 232 103 m 243 665 q 267 760 256 713 q 288 846 279 806 q 302 918 296 886 q 309 970 308 950 q 363 973 332 972 q 429 976 393 975 q 506 977 465 977 q 589 977 547 977 q 710 962 657 977 q 798 919 762 946 q 852 854 833 891 q 870 773 870 817 q 854 682 870 722 q 810 609 839 641 q 740 555 781 577 q 648 518 699 532 q 706 495 676 511 q 760 454 735 479 q 799 392 784 429 q 814 307 814 356 q 785 171 814 230 q 699 73 755 113 q 563 13 643 33 q 381 -7 482 -7 q 279 -6 330 -7 q 186 -4 229 -5 q 112 -2 143 -3 q 68 0 81 -1 q 86 51 77 20 q 107 122 96 82 q 130 207 118 161 q 153 302 141 253 l 243 665 m 348 568 l 473 568 q 581 580 532 568 q 662 615 629 592 q 714 671 696 637 q 732 749 732 705 q 688 844 732 813 q 550 874 643 874 q 478 873 510 874 q 424 871 446 872 l 348 568 m 416 -193 q 408 -232 416 -213 q 385 -264 399 -250 q 351 -287 370 -279 q 310 -296 332 -296 q 280 -290 294 -296 q 256 -273 266 -283 q 240 -249 246 -262 q 235 -219 235 -235 q 242 -182 235 -201 q 263 -150 250 -164 q 297 -126 277 -135 q 341 -117 317 -117 q 371 -123 357 -117 q 395 -139 385 -129 q 411 -163 406 -149 q 416 -193 416 -177 z "},"":{"ha":1086,"x_min":130,"x_max":1094,"o":"m 648 874 l 572 568 l 700 568 q 806 580 759 568 q 887 615 853 592 q 938 672 920 638 q 956 749 956 705 q 911 844 956 813 q 774 874 867 874 l 648 874 m 456 103 q 519 101 475 102 q 621 100 564 100 q 729 110 677 100 q 821 143 781 119 q 885 207 861 168 q 909 305 909 246 q 895 372 909 342 q 854 423 880 402 q 792 454 829 444 q 713 465 756 465 l 547 465 l 456 103 m 139 572 q 133 605 135 585 q 130 647 130 625 q 138 716 130 685 q 190 834 155 785 q 278 916 225 884 q 402 962 331 947 q 562 977 473 977 l 813 977 q 933 962 881 977 q 1022 919 986 946 q 1076 854 1057 891 q 1094 773 1094 817 q 1078 682 1094 722 q 1034 609 1063 641 q 963 555 1004 577 q 871 518 922 532 q 929 495 900 511 q 983 454 959 479 q 1023 392 1008 429 q 1038 307 1038 356 q 1008 171 1038 230 q 923 73 979 113 q 786 13 867 33 q 605 -7 706 -7 q 503 -6 553 -7 q 410 -4 452 -5 q 336 -2 367 -3 q 292 0 304 -1 q 310 51 300 20 q 331 122 320 82 q 353 207 342 161 q 377 302 365 253 l 519 874 l 503 874 q 336 835 399 874 q 254 721 273 796 q 248 689 250 703 q 246 662 246 675 q 249 629 246 644 q 257 598 252 614 l 139 572 z "}}}
